G04 #@! TF.GenerationSoftware,KiCad,Pcbnew,(5.1.2)-2*
G04 #@! TF.CreationDate,2023-04-24T21:20:06-05:00*
G04 #@! TF.ProjectId,nrf24l01breakout,6e726632-346c-4303-9162-7265616b6f75,V0.1*
G04 #@! TF.SameCoordinates,Original*
G04 #@! TF.FileFunction,Legend,Top*
G04 #@! TF.FilePolarity,Positive*
%FSLAX46Y46*%
G04 Gerber Fmt 4.6, Leading zero omitted, Abs format (unit mm)*
G04 Created by KiCad (PCBNEW (5.1.2)-2) date 2023-04-24 21:20:06*
%MOMM*%
%LPD*%
G04 APERTURE LIST*
%ADD10C,0.150000*%
%ADD11C,0.120000*%
G04 APERTURE END LIST*
D10*
X130830714Y-100601428D02*
X130830714Y-100001428D01*
X131459285Y-100601428D02*
X131259285Y-100315714D01*
X131116428Y-100601428D02*
X131116428Y-100001428D01*
X131345000Y-100001428D01*
X131402142Y-100030000D01*
X131430714Y-100058571D01*
X131459285Y-100115714D01*
X131459285Y-100201428D01*
X131430714Y-100258571D01*
X131402142Y-100287142D01*
X131345000Y-100315714D01*
X131116428Y-100315714D01*
X132116428Y-100658571D02*
X132059285Y-100630000D01*
X132002142Y-100572857D01*
X131916428Y-100487142D01*
X131859285Y-100458571D01*
X131802142Y-100458571D01*
X131830714Y-100601428D02*
X131773571Y-100572857D01*
X131716428Y-100515714D01*
X131687857Y-100401428D01*
X131687857Y-100201428D01*
X131716428Y-100087142D01*
X131773571Y-100030000D01*
X131830714Y-100001428D01*
X131945000Y-100001428D01*
X132002142Y-100030000D01*
X132059285Y-100087142D01*
X132087857Y-100201428D01*
X132087857Y-100401428D01*
X132059285Y-100515714D01*
X132002142Y-100572857D01*
X131945000Y-100601428D01*
X131830714Y-100601428D01*
D11*
X123825000Y-91440000D02*
X123825000Y-92075000D01*
X132715000Y-91440000D02*
X123825000Y-91440000D01*
X132715000Y-95885000D02*
X132715000Y-91440000D01*
X123825000Y-95885000D02*
X132715000Y-95885000D01*
X123825000Y-92075000D02*
X123825000Y-95885000D01*
D10*
X123500520Y-96806666D02*
X123429687Y-97373333D01*
X123454687Y-97440000D01*
X123483854Y-97473333D01*
X123546354Y-97506666D01*
X123679687Y-97506666D01*
X123750520Y-97473333D01*
X123788020Y-97440000D01*
X123829687Y-97373333D01*
X123900520Y-96806666D01*
X124204687Y-97040000D02*
X124146354Y-97506666D01*
X124196354Y-97106666D02*
X124233854Y-97073333D01*
X124304687Y-97040000D01*
X124404687Y-97040000D01*
X124467187Y-97073333D01*
X124492187Y-97140000D01*
X124446354Y-97506666D01*
X124779687Y-97506666D02*
X124838020Y-97040000D01*
X124867187Y-96806666D02*
X124829687Y-96840000D01*
X124858854Y-96873333D01*
X124896354Y-96840000D01*
X124867187Y-96806666D01*
X124858854Y-96873333D01*
X125104687Y-97040000D02*
X125213020Y-97506666D01*
X125438020Y-97040000D01*
X125917187Y-97473333D02*
X125846354Y-97506666D01*
X125713020Y-97506666D01*
X125650520Y-97473333D01*
X125625520Y-97406666D01*
X125658854Y-97140000D01*
X125700520Y-97073333D01*
X125771354Y-97040000D01*
X125904687Y-97040000D01*
X125967187Y-97073333D01*
X125992187Y-97140000D01*
X125983854Y-97206666D01*
X125642187Y-97273333D01*
X126246354Y-97506666D02*
X126304687Y-97040000D01*
X126288020Y-97173333D02*
X126329687Y-97106666D01*
X126367187Y-97073333D01*
X126438020Y-97040000D01*
X126504687Y-97040000D01*
X126650520Y-97473333D02*
X126713020Y-97506666D01*
X126846354Y-97506666D01*
X126917187Y-97473333D01*
X126958854Y-97406666D01*
X126963020Y-97373333D01*
X126938020Y-97306666D01*
X126875520Y-97273333D01*
X126775520Y-97273333D01*
X126713020Y-97240000D01*
X126688020Y-97173333D01*
X126692187Y-97140000D01*
X126733854Y-97073333D01*
X126804687Y-97040000D01*
X126904687Y-97040000D01*
X126967187Y-97073333D01*
X127246354Y-97506666D02*
X127304687Y-97040000D01*
X127333854Y-96806666D02*
X127296354Y-96840000D01*
X127325520Y-96873333D01*
X127363020Y-96840000D01*
X127333854Y-96806666D01*
X127325520Y-96873333D01*
X127879687Y-97506666D02*
X127967187Y-96806666D01*
X127883854Y-97473333D02*
X127813020Y-97506666D01*
X127679687Y-97506666D01*
X127617187Y-97473333D01*
X127588020Y-97440000D01*
X127563020Y-97373333D01*
X127588020Y-97173333D01*
X127629687Y-97106666D01*
X127667187Y-97073333D01*
X127738020Y-97040000D01*
X127871354Y-97040000D01*
X127933854Y-97073333D01*
X128513020Y-97506666D02*
X128558854Y-97140000D01*
X128533854Y-97073333D01*
X128471354Y-97040000D01*
X128338020Y-97040000D01*
X128267187Y-97073333D01*
X128517187Y-97473333D02*
X128446354Y-97506666D01*
X128279687Y-97506666D01*
X128217187Y-97473333D01*
X128192187Y-97406666D01*
X128200520Y-97340000D01*
X128242187Y-97273333D01*
X128313020Y-97240000D01*
X128479687Y-97240000D01*
X128550520Y-97206666D01*
X129146354Y-97506666D02*
X129233854Y-96806666D01*
X129150520Y-97473333D02*
X129079687Y-97506666D01*
X128946354Y-97506666D01*
X128883854Y-97473333D01*
X128854687Y-97440000D01*
X128829687Y-97373333D01*
X128854687Y-97173333D01*
X128896354Y-97106666D01*
X128933854Y-97073333D01*
X129004687Y-97040000D01*
X129138020Y-97040000D01*
X129200520Y-97073333D01*
X129983854Y-97473333D02*
X130079687Y-97506666D01*
X130246354Y-97506666D01*
X130317187Y-97473333D01*
X130354687Y-97440000D01*
X130396354Y-97373333D01*
X130404687Y-97306666D01*
X130379687Y-97240000D01*
X130350520Y-97206666D01*
X130288020Y-97173333D01*
X130158854Y-97140000D01*
X130096354Y-97106666D01*
X130067187Y-97073333D01*
X130042187Y-97006666D01*
X130050520Y-96940000D01*
X130092187Y-96873333D01*
X130129687Y-96840000D01*
X130200520Y-96806666D01*
X130367187Y-96806666D01*
X130463020Y-96840000D01*
X130950520Y-97473333D02*
X130879687Y-97506666D01*
X130746354Y-97506666D01*
X130683854Y-97473333D01*
X130658854Y-97406666D01*
X130692187Y-97140000D01*
X130733854Y-97073333D01*
X130804687Y-97040000D01*
X130938020Y-97040000D01*
X131000520Y-97073333D01*
X131025520Y-97140000D01*
X131017187Y-97206666D01*
X130675520Y-97273333D01*
X131279687Y-97506666D02*
X131338020Y-97040000D01*
X131321354Y-97173333D02*
X131363020Y-97106666D01*
X131400520Y-97073333D01*
X131471354Y-97040000D01*
X131538020Y-97040000D01*
X132071354Y-97040000D02*
X132000520Y-97606666D01*
X131958854Y-97673333D01*
X131921354Y-97706666D01*
X131850520Y-97740000D01*
X131750520Y-97740000D01*
X131688020Y-97706666D01*
X132017187Y-97473333D02*
X131946354Y-97506666D01*
X131813020Y-97506666D01*
X131750520Y-97473333D01*
X131721354Y-97440000D01*
X131696354Y-97373333D01*
X131721354Y-97173333D01*
X131763020Y-97106666D01*
X131800520Y-97073333D01*
X131871354Y-97040000D01*
X132004687Y-97040000D01*
X132067187Y-97073333D01*
X132346354Y-97506666D02*
X132404687Y-97040000D01*
X132433854Y-96806666D02*
X132396354Y-96840000D01*
X132425520Y-96873333D01*
X132463020Y-96840000D01*
X132433854Y-96806666D01*
X132425520Y-96873333D01*
X132779687Y-97506666D02*
X132717187Y-97473333D01*
X132688020Y-97440000D01*
X132663020Y-97373333D01*
X132688020Y-97173333D01*
X132729687Y-97106666D01*
X132767187Y-97073333D01*
X132838020Y-97040000D01*
X132938020Y-97040000D01*
X133000520Y-97073333D01*
X133029687Y-97106666D01*
X133054687Y-97173333D01*
X133029687Y-97373333D01*
X132988020Y-97440000D01*
X132950520Y-97473333D01*
X132879687Y-97506666D01*
X132779687Y-97506666D01*
X126088020Y-98506666D02*
X126421354Y-98506666D01*
X125996354Y-98706666D02*
X126317187Y-98006666D01*
X126463020Y-98706666D01*
X126696354Y-98706666D02*
X126754687Y-98240000D01*
X126738020Y-98373333D02*
X126779687Y-98306666D01*
X126817187Y-98273333D01*
X126888020Y-98240000D01*
X126954687Y-98240000D01*
X127129687Y-98706666D02*
X127217187Y-98006666D01*
X127183854Y-98273333D02*
X127254687Y-98240000D01*
X127388020Y-98240000D01*
X127450520Y-98273333D01*
X127479687Y-98306666D01*
X127504687Y-98373333D01*
X127479687Y-98573333D01*
X127438020Y-98640000D01*
X127400520Y-98673333D01*
X127329687Y-98706666D01*
X127196354Y-98706666D01*
X127133854Y-98673333D01*
X127863020Y-98706666D02*
X127800520Y-98673333D01*
X127771354Y-98640000D01*
X127746354Y-98573333D01*
X127771354Y-98373333D01*
X127813020Y-98306666D01*
X127850520Y-98273333D01*
X127921354Y-98240000D01*
X128021354Y-98240000D01*
X128083854Y-98273333D01*
X128113020Y-98306666D01*
X128138020Y-98373333D01*
X128113020Y-98573333D01*
X128071354Y-98640000D01*
X128033854Y-98673333D01*
X127963020Y-98706666D01*
X127863020Y-98706666D01*
X128496354Y-98706666D02*
X128433854Y-98673333D01*
X128408854Y-98606666D01*
X128483854Y-98006666D01*
X129033854Y-98673333D02*
X128963020Y-98706666D01*
X128829687Y-98706666D01*
X128767187Y-98673333D01*
X128742187Y-98606666D01*
X128775520Y-98340000D01*
X128817187Y-98273333D01*
X128888020Y-98240000D01*
X129021354Y-98240000D01*
X129083854Y-98273333D01*
X129108854Y-98340000D01*
X129100520Y-98406666D01*
X128758854Y-98473333D01*
X129663020Y-98706666D02*
X129750520Y-98006666D01*
X129667187Y-98673333D02*
X129596354Y-98706666D01*
X129463020Y-98706666D01*
X129400520Y-98673333D01*
X129371354Y-98640000D01*
X129346354Y-98573333D01*
X129371354Y-98373333D01*
X129413020Y-98306666D01*
X129450520Y-98273333D01*
X129521354Y-98240000D01*
X129654687Y-98240000D01*
X129717187Y-98273333D01*
X130296354Y-98706666D02*
X130342187Y-98340000D01*
X130317187Y-98273333D01*
X130254687Y-98240000D01*
X130121354Y-98240000D01*
X130050520Y-98273333D01*
X130300520Y-98673333D02*
X130229687Y-98706666D01*
X130063020Y-98706666D01*
X130000520Y-98673333D01*
X129975520Y-98606666D01*
X129983854Y-98540000D01*
X130025520Y-98473333D01*
X130096354Y-98440000D01*
X130263020Y-98440000D01*
X130333854Y-98406666D01*
X124960476Y-92940714D02*
X124960476Y-93607380D01*
X124960476Y-93035952D02*
X125008095Y-92988333D01*
X125103333Y-92940714D01*
X125246190Y-92940714D01*
X125341428Y-92988333D01*
X125389047Y-93083571D01*
X125389047Y-93607380D01*
X126436666Y-93607380D02*
X126103333Y-93131190D01*
X125865238Y-93607380D02*
X125865238Y-92607380D01*
X126246190Y-92607380D01*
X126341428Y-92655000D01*
X126389047Y-92702619D01*
X126436666Y-92797857D01*
X126436666Y-92940714D01*
X126389047Y-93035952D01*
X126341428Y-93083571D01*
X126246190Y-93131190D01*
X125865238Y-93131190D01*
X127198571Y-93083571D02*
X126865238Y-93083571D01*
X126865238Y-93607380D02*
X126865238Y-92607380D01*
X127341428Y-92607380D01*
X127674761Y-92702619D02*
X127722380Y-92655000D01*
X127817619Y-92607380D01*
X128055714Y-92607380D01*
X128150952Y-92655000D01*
X128198571Y-92702619D01*
X128246190Y-92797857D01*
X128246190Y-92893095D01*
X128198571Y-93035952D01*
X127627142Y-93607380D01*
X128246190Y-93607380D01*
X129103333Y-92940714D02*
X129103333Y-93607380D01*
X128865238Y-92559761D02*
X128627142Y-93274047D01*
X129246190Y-93274047D01*
X129770000Y-93607380D02*
X129674761Y-93559761D01*
X129627142Y-93464523D01*
X129627142Y-92607380D01*
X130341428Y-92607380D02*
X130436666Y-92607380D01*
X130531904Y-92655000D01*
X130579523Y-92702619D01*
X130627142Y-92797857D01*
X130674761Y-92988333D01*
X130674761Y-93226428D01*
X130627142Y-93416904D01*
X130579523Y-93512142D01*
X130531904Y-93559761D01*
X130436666Y-93607380D01*
X130341428Y-93607380D01*
X130246190Y-93559761D01*
X130198571Y-93512142D01*
X130150952Y-93416904D01*
X130103333Y-93226428D01*
X130103333Y-92988333D01*
X130150952Y-92797857D01*
X130198571Y-92702619D01*
X130246190Y-92655000D01*
X130341428Y-92607380D01*
X131627142Y-93607380D02*
X131055714Y-93607380D01*
X131341428Y-93607380D02*
X131341428Y-92607380D01*
X131246190Y-92750238D01*
X131150952Y-92845476D01*
X131055714Y-92893095D01*
X124841428Y-95257380D02*
X124841428Y-94257380D01*
X124841428Y-94638333D02*
X124936666Y-94590714D01*
X125127142Y-94590714D01*
X125222380Y-94638333D01*
X125270000Y-94685952D01*
X125317619Y-94781190D01*
X125317619Y-95066904D01*
X125270000Y-95162142D01*
X125222380Y-95209761D01*
X125127142Y-95257380D01*
X124936666Y-95257380D01*
X124841428Y-95209761D01*
X125746190Y-95257380D02*
X125746190Y-94590714D01*
X125746190Y-94781190D02*
X125793809Y-94685952D01*
X125841428Y-94638333D01*
X125936666Y-94590714D01*
X126031904Y-94590714D01*
X126746190Y-95209761D02*
X126650952Y-95257380D01*
X126460476Y-95257380D01*
X126365238Y-95209761D01*
X126317619Y-95114523D01*
X126317619Y-94733571D01*
X126365238Y-94638333D01*
X126460476Y-94590714D01*
X126650952Y-94590714D01*
X126746190Y-94638333D01*
X126793809Y-94733571D01*
X126793809Y-94828809D01*
X126317619Y-94924047D01*
X127650952Y-95257380D02*
X127650952Y-94733571D01*
X127603333Y-94638333D01*
X127508095Y-94590714D01*
X127317619Y-94590714D01*
X127222380Y-94638333D01*
X127650952Y-95209761D02*
X127555714Y-95257380D01*
X127317619Y-95257380D01*
X127222380Y-95209761D01*
X127174761Y-95114523D01*
X127174761Y-95019285D01*
X127222380Y-94924047D01*
X127317619Y-94876428D01*
X127555714Y-94876428D01*
X127650952Y-94828809D01*
X128555714Y-95209761D02*
X128460476Y-95257380D01*
X128270000Y-95257380D01*
X128174761Y-95209761D01*
X128127142Y-95162142D01*
X128079523Y-95066904D01*
X128079523Y-94781190D01*
X128127142Y-94685952D01*
X128174761Y-94638333D01*
X128270000Y-94590714D01*
X128460476Y-94590714D01*
X128555714Y-94638333D01*
X128984285Y-95257380D02*
X128984285Y-94257380D01*
X129079523Y-94876428D02*
X129365238Y-95257380D01*
X129365238Y-94590714D02*
X128984285Y-94971666D01*
X129936666Y-95257380D02*
X129841428Y-95209761D01*
X129793809Y-95162142D01*
X129746190Y-95066904D01*
X129746190Y-94781190D01*
X129793809Y-94685952D01*
X129841428Y-94638333D01*
X129936666Y-94590714D01*
X130079523Y-94590714D01*
X130174761Y-94638333D01*
X130222380Y-94685952D01*
X130270000Y-94781190D01*
X130270000Y-95066904D01*
X130222380Y-95162142D01*
X130174761Y-95209761D01*
X130079523Y-95257380D01*
X129936666Y-95257380D01*
X131127142Y-94590714D02*
X131127142Y-95257380D01*
X130698571Y-94590714D02*
X130698571Y-95114523D01*
X130746190Y-95209761D01*
X130841428Y-95257380D01*
X130984285Y-95257380D01*
X131079523Y-95209761D01*
X131127142Y-95162142D01*
X131460476Y-94590714D02*
X131841428Y-94590714D01*
X131603333Y-94257380D02*
X131603333Y-95114523D01*
X131650952Y-95209761D01*
X131746190Y-95257380D01*
X131841428Y-95257380D01*
D11*
X123575000Y-81635000D02*
X122405000Y-81635000D01*
X118995000Y-81635000D02*
X120165000Y-81635000D01*
X119765000Y-86215000D02*
X120165000Y-86215000D01*
X122805000Y-86215000D02*
X122405000Y-86215000D01*
X123575000Y-85445000D02*
X123575000Y-81635000D01*
X123575000Y-85445000D02*
X122805000Y-86215000D01*
X118995000Y-85445000D02*
X118995000Y-81635000D01*
X118995000Y-85445000D02*
X119765000Y-86215000D01*
X122840000Y-88300000D02*
X123540000Y-88300000D01*
X123540000Y-89500000D02*
X122840000Y-89500000D01*
X134870000Y-85340000D02*
X135640000Y-86110000D01*
X134870000Y-85340000D02*
X134870000Y-81530000D01*
X139450000Y-85340000D02*
X138680000Y-86110000D01*
X139450000Y-85340000D02*
X139450000Y-81530000D01*
X138680000Y-86110000D02*
X138280000Y-86110000D01*
X135640000Y-86110000D02*
X136040000Y-86110000D01*
X134870000Y-81530000D02*
X136040000Y-81530000D01*
X139450000Y-81530000D02*
X138280000Y-81530000D01*
X136240000Y-88865000D02*
X135540000Y-88865000D01*
X135540000Y-87665000D02*
X136240000Y-87665000D01*
X140250000Y-92010000D02*
X140250000Y-94610000D01*
X139150000Y-92010000D02*
X139150000Y-94610000D01*
X140250000Y-92010000D02*
X139150000Y-92010000D01*
X140250000Y-87735000D02*
X139150000Y-87735000D01*
X139150000Y-87735000D02*
X139150000Y-90335000D01*
X140250000Y-87735000D02*
X140250000Y-90335000D01*
X120964000Y-93220000D02*
X120964000Y-90110000D01*
X118304000Y-90680000D02*
X118304000Y-90110000D01*
X120964000Y-95310000D02*
X120964000Y-94740000D01*
X120964000Y-94740000D02*
X122484000Y-94740000D01*
X118304000Y-95310000D02*
X118304000Y-92200000D01*
X120964000Y-90110000D02*
X118304000Y-90110000D01*
X120964000Y-95310000D02*
X118304000Y-95310000D01*
X135681000Y-92888000D02*
X135681000Y-93888000D01*
X134321000Y-93888000D02*
X134321000Y-92888000D01*
X135390000Y-89490000D02*
X136390000Y-89490000D01*
X136390000Y-90850000D02*
X135390000Y-90850000D01*
X125440000Y-80765000D02*
X131450000Y-80765000D01*
X127690000Y-87585000D02*
X131450000Y-87585000D01*
X131450000Y-80765000D02*
X131450000Y-82025000D01*
X131450000Y-87585000D02*
X131450000Y-86325000D01*
X122825000Y-105775000D02*
X122825000Y-101275000D01*
X122825000Y-101275000D02*
X132825000Y-101275000D01*
X132825000Y-101275000D02*
X132825000Y-105775000D01*
X132825000Y-105775000D02*
X122825000Y-105775000D01*
X122825000Y-103775000D02*
X124825000Y-103775000D01*
X124825000Y-103775000D02*
X124825000Y-105775000D01*
D10*
X118467142Y-84091666D02*
X118514761Y-84139285D01*
X118562380Y-84282142D01*
X118562380Y-84377380D01*
X118514761Y-84520238D01*
X118419523Y-84615476D01*
X118324285Y-84663095D01*
X118133809Y-84710714D01*
X117990952Y-84710714D01*
X117800476Y-84663095D01*
X117705238Y-84615476D01*
X117610000Y-84520238D01*
X117562380Y-84377380D01*
X117562380Y-84282142D01*
X117610000Y-84139285D01*
X117657619Y-84091666D01*
X118562380Y-83139285D02*
X118562380Y-83710714D01*
X118562380Y-83425000D02*
X117562380Y-83425000D01*
X117705238Y-83520238D01*
X117800476Y-83615476D01*
X117848095Y-83710714D01*
X123366428Y-87075952D02*
X123366428Y-86314047D01*
X123747380Y-86695000D02*
X122985476Y-86695000D01*
X119848333Y-89257142D02*
X119800714Y-89304761D01*
X119657857Y-89352380D01*
X119562619Y-89352380D01*
X119419761Y-89304761D01*
X119324523Y-89209523D01*
X119276904Y-89114285D01*
X119229285Y-88923809D01*
X119229285Y-88780952D01*
X119276904Y-88590476D01*
X119324523Y-88495238D01*
X119419761Y-88400000D01*
X119562619Y-88352380D01*
X119657857Y-88352380D01*
X119800714Y-88400000D01*
X119848333Y-88447619D01*
X120229285Y-88447619D02*
X120276904Y-88400000D01*
X120372142Y-88352380D01*
X120610238Y-88352380D01*
X120705476Y-88400000D01*
X120753095Y-88447619D01*
X120800714Y-88542857D01*
X120800714Y-88638095D01*
X120753095Y-88780952D01*
X120181666Y-89352380D01*
X120800714Y-89352380D01*
X136993333Y-79732142D02*
X136945714Y-79779761D01*
X136802857Y-79827380D01*
X136707619Y-79827380D01*
X136564761Y-79779761D01*
X136469523Y-79684523D01*
X136421904Y-79589285D01*
X136374285Y-79398809D01*
X136374285Y-79255952D01*
X136421904Y-79065476D01*
X136469523Y-78970238D01*
X136564761Y-78875000D01*
X136707619Y-78827380D01*
X136802857Y-78827380D01*
X136945714Y-78875000D01*
X136993333Y-78922619D01*
X137326666Y-78827380D02*
X137945714Y-78827380D01*
X137612380Y-79208333D01*
X137755238Y-79208333D01*
X137850476Y-79255952D01*
X137898095Y-79303571D01*
X137945714Y-79398809D01*
X137945714Y-79636904D01*
X137898095Y-79732142D01*
X137850476Y-79779761D01*
X137755238Y-79827380D01*
X137469523Y-79827380D01*
X137374285Y-79779761D01*
X137326666Y-79732142D01*
X139241428Y-86970952D02*
X139241428Y-86209047D01*
X139622380Y-86590000D02*
X138860476Y-86590000D01*
X132868333Y-88622142D02*
X132820714Y-88669761D01*
X132677857Y-88717380D01*
X132582619Y-88717380D01*
X132439761Y-88669761D01*
X132344523Y-88574523D01*
X132296904Y-88479285D01*
X132249285Y-88288809D01*
X132249285Y-88145952D01*
X132296904Y-87955476D01*
X132344523Y-87860238D01*
X132439761Y-87765000D01*
X132582619Y-87717380D01*
X132677857Y-87717380D01*
X132820714Y-87765000D01*
X132868333Y-87812619D01*
X133725476Y-88050714D02*
X133725476Y-88717380D01*
X133487380Y-87669761D02*
X133249285Y-88384047D01*
X133868333Y-88384047D01*
X138791904Y-93300476D02*
X137991904Y-93300476D01*
X137991904Y-93110000D01*
X138030000Y-92995714D01*
X138106190Y-92919523D01*
X138182380Y-92881428D01*
X138334761Y-92843333D01*
X138449047Y-92843333D01*
X138601428Y-92881428D01*
X138677619Y-92919523D01*
X138753809Y-92995714D01*
X138791904Y-93110000D01*
X138791904Y-93300476D01*
X138791904Y-92081428D02*
X138791904Y-92538571D01*
X138791904Y-92310000D02*
X137991904Y-92310000D01*
X138106190Y-92386190D01*
X138182380Y-92462380D01*
X138220476Y-92538571D01*
X138791904Y-89490476D02*
X137991904Y-89490476D01*
X137991904Y-89300000D01*
X138030000Y-89185714D01*
X138106190Y-89109523D01*
X138182380Y-89071428D01*
X138334761Y-89033333D01*
X138449047Y-89033333D01*
X138601428Y-89071428D01*
X138677619Y-89109523D01*
X138753809Y-89185714D01*
X138791904Y-89300000D01*
X138791904Y-89490476D01*
X138068095Y-88728571D02*
X138030000Y-88690476D01*
X137991904Y-88614285D01*
X137991904Y-88423809D01*
X138030000Y-88347619D01*
X138068095Y-88309523D01*
X138144285Y-88271428D01*
X138220476Y-88271428D01*
X138334761Y-88309523D01*
X138791904Y-88766666D01*
X138791904Y-88271428D01*
X119300666Y-95762380D02*
X119300666Y-96476666D01*
X119253047Y-96619523D01*
X119157809Y-96714761D01*
X119014952Y-96762380D01*
X118919714Y-96762380D01*
X120300666Y-96762380D02*
X119729238Y-96762380D01*
X120014952Y-96762380D02*
X120014952Y-95762380D01*
X119919714Y-95905238D01*
X119824476Y-96000476D01*
X119729238Y-96048095D01*
X136903380Y-93554666D02*
X136427190Y-93888000D01*
X136903380Y-94126095D02*
X135903380Y-94126095D01*
X135903380Y-93745142D01*
X135951000Y-93649904D01*
X135998619Y-93602285D01*
X136093857Y-93554666D01*
X136236714Y-93554666D01*
X136331952Y-93602285D01*
X136379571Y-93649904D01*
X136427190Y-93745142D01*
X136427190Y-94126095D01*
X136903380Y-92602285D02*
X136903380Y-93173714D01*
X136903380Y-92888000D02*
X135903380Y-92888000D01*
X136046238Y-92983238D01*
X136141476Y-93078476D01*
X136189095Y-93173714D01*
X132548333Y-90622380D02*
X132215000Y-90146190D01*
X131976904Y-90622380D02*
X131976904Y-89622380D01*
X132357857Y-89622380D01*
X132453095Y-89670000D01*
X132500714Y-89717619D01*
X132548333Y-89812857D01*
X132548333Y-89955714D01*
X132500714Y-90050952D01*
X132453095Y-90098571D01*
X132357857Y-90146190D01*
X131976904Y-90146190D01*
X132929285Y-89717619D02*
X132976904Y-89670000D01*
X133072142Y-89622380D01*
X133310238Y-89622380D01*
X133405476Y-89670000D01*
X133453095Y-89717619D01*
X133500714Y-89812857D01*
X133500714Y-89908095D01*
X133453095Y-90050952D01*
X132881666Y-90622380D01*
X133500714Y-90622380D01*
X128778095Y-79127380D02*
X128778095Y-79936904D01*
X128825714Y-80032142D01*
X128873333Y-80079761D01*
X128968571Y-80127380D01*
X129159047Y-80127380D01*
X129254285Y-80079761D01*
X129301904Y-80032142D01*
X129349523Y-79936904D01*
X129349523Y-79127380D01*
X130349523Y-80127380D02*
X129778095Y-80127380D01*
X130063809Y-80127380D02*
X130063809Y-79127380D01*
X129968571Y-79270238D01*
X129873333Y-79365476D01*
X129778095Y-79413095D01*
X124063095Y-99727380D02*
X124063095Y-100536904D01*
X124110714Y-100632142D01*
X124158333Y-100679761D01*
X124253571Y-100727380D01*
X124444047Y-100727380D01*
X124539285Y-100679761D01*
X124586904Y-100632142D01*
X124634523Y-100536904D01*
X124634523Y-99727380D01*
X125063095Y-99822619D02*
X125110714Y-99775000D01*
X125205952Y-99727380D01*
X125444047Y-99727380D01*
X125539285Y-99775000D01*
X125586904Y-99822619D01*
X125634523Y-99917857D01*
X125634523Y-100013095D01*
X125586904Y-100155952D01*
X125015476Y-100727380D01*
X125634523Y-100727380D01*
M02*
