G04 #@! TF.GenerationSoftware,KiCad,Pcbnew,(5.1.2)-2*
G04 #@! TF.CreationDate,2023-04-24T21:20:06-05:00*
G04 #@! TF.ProjectId,nrf24l01breakout,6e726632-346c-4303-9162-7265616b6f75,V0.1*
G04 #@! TF.SameCoordinates,Original*
G04 #@! TF.FileFunction,Legend,Bot*
G04 #@! TF.FilePolarity,Positive*
%FSLAX46Y46*%
G04 Gerber Fmt 4.6, Leading zero omitted, Abs format (unit mm)*
G04 Created by KiCad (PCBNEW (5.1.2)-2) date 2023-04-24 21:20:06*
%MOMM*%
%LPD*%
G04 APERTURE LIST*
%ADD10C,0.010000*%
%ADD11C,0.120000*%
%ADD12C,0.150000*%
G04 APERTURE END LIST*
D10*
G36*
X136026286Y-93614875D02*
G01*
X135965095Y-94213824D01*
X135848672Y-94824247D01*
X135680711Y-95433959D01*
X135464908Y-96030775D01*
X135204957Y-96602508D01*
X135012825Y-96957049D01*
X134640489Y-97536611D01*
X134221172Y-98075190D01*
X133758036Y-98570764D01*
X133254244Y-99021309D01*
X132712959Y-99424804D01*
X132137341Y-99779226D01*
X131530555Y-100082552D01*
X130895760Y-100332761D01*
X130236121Y-100527830D01*
X129554799Y-100665736D01*
X129127250Y-100721197D01*
X129143412Y-100722748D01*
X129219204Y-100724327D01*
X129350754Y-100725913D01*
X129534191Y-100727489D01*
X129765647Y-100729037D01*
X130041249Y-100730536D01*
X130357127Y-100731968D01*
X130709410Y-100733316D01*
X131094228Y-100734559D01*
X131507710Y-100735679D01*
X131945985Y-100736658D01*
X132405184Y-100737477D01*
X132532438Y-100737668D01*
X136048750Y-100742750D01*
X136042747Y-97083562D01*
X136041882Y-96611522D01*
X136040878Y-96160388D01*
X136039753Y-95733851D01*
X136038523Y-95335599D01*
X136037207Y-94969322D01*
X136035822Y-94638708D01*
X136034386Y-94347447D01*
X136032916Y-94099228D01*
X136031429Y-93897740D01*
X136029943Y-93746672D01*
X136028476Y-93649714D01*
X136027045Y-93610554D01*
X136026286Y-93614875D01*
X136026286Y-93614875D01*
G37*
X136026286Y-93614875D02*
X135965095Y-94213824D01*
X135848672Y-94824247D01*
X135680711Y-95433959D01*
X135464908Y-96030775D01*
X135204957Y-96602508D01*
X135012825Y-96957049D01*
X134640489Y-97536611D01*
X134221172Y-98075190D01*
X133758036Y-98570764D01*
X133254244Y-99021309D01*
X132712959Y-99424804D01*
X132137341Y-99779226D01*
X131530555Y-100082552D01*
X130895760Y-100332761D01*
X130236121Y-100527830D01*
X129554799Y-100665736D01*
X129127250Y-100721197D01*
X129143412Y-100722748D01*
X129219204Y-100724327D01*
X129350754Y-100725913D01*
X129534191Y-100727489D01*
X129765647Y-100729037D01*
X130041249Y-100730536D01*
X130357127Y-100731968D01*
X130709410Y-100733316D01*
X131094228Y-100734559D01*
X131507710Y-100735679D01*
X131945985Y-100736658D01*
X132405184Y-100737477D01*
X132532438Y-100737668D01*
X136048750Y-100742750D01*
X136042747Y-97083562D01*
X136041882Y-96611522D01*
X136040878Y-96160388D01*
X136039753Y-95733851D01*
X136038523Y-95335599D01*
X136037207Y-94969322D01*
X136035822Y-94638708D01*
X136034386Y-94347447D01*
X136032916Y-94099228D01*
X136031429Y-93897740D01*
X136029943Y-93746672D01*
X136028476Y-93649714D01*
X136027045Y-93610554D01*
X136026286Y-93614875D01*
G36*
X120860377Y-93593353D02*
G01*
X120859022Y-93663348D01*
X120857639Y-93789376D01*
X120856244Y-93967703D01*
X120854854Y-94194595D01*
X120853486Y-94466320D01*
X120852155Y-94779142D01*
X120850879Y-95129330D01*
X120849673Y-95513148D01*
X120848555Y-95926864D01*
X120847540Y-96366744D01*
X120846646Y-96829054D01*
X120846223Y-97083562D01*
X120840500Y-100742750D01*
X124356813Y-100737668D01*
X124821004Y-100736896D01*
X125265318Y-100735959D01*
X125685886Y-100734875D01*
X126078837Y-100733663D01*
X126440299Y-100732342D01*
X126766402Y-100730931D01*
X127053277Y-100729447D01*
X127297051Y-100727911D01*
X127493854Y-100726341D01*
X127639816Y-100724756D01*
X127731065Y-100723173D01*
X127763732Y-100721612D01*
X127762000Y-100721197D01*
X127067767Y-100619249D01*
X126393153Y-100458794D01*
X125741347Y-100241748D01*
X125115537Y-99970026D01*
X124518913Y-99645542D01*
X123954662Y-99270211D01*
X123425973Y-98845948D01*
X122936035Y-98374668D01*
X122488037Y-97858286D01*
X122099444Y-97320493D01*
X121753437Y-96737631D01*
X121460225Y-96122697D01*
X121221806Y-95481721D01*
X121040176Y-94820735D01*
X120917333Y-94145768D01*
X120861687Y-93583125D01*
X120860377Y-93593353D01*
X120860377Y-93593353D01*
G37*
X120860377Y-93593353D02*
X120859022Y-93663348D01*
X120857639Y-93789376D01*
X120856244Y-93967703D01*
X120854854Y-94194595D01*
X120853486Y-94466320D01*
X120852155Y-94779142D01*
X120850879Y-95129330D01*
X120849673Y-95513148D01*
X120848555Y-95926864D01*
X120847540Y-96366744D01*
X120846646Y-96829054D01*
X120846223Y-97083562D01*
X120840500Y-100742750D01*
X124356813Y-100737668D01*
X124821004Y-100736896D01*
X125265318Y-100735959D01*
X125685886Y-100734875D01*
X126078837Y-100733663D01*
X126440299Y-100732342D01*
X126766402Y-100730931D01*
X127053277Y-100729447D01*
X127297051Y-100727911D01*
X127493854Y-100726341D01*
X127639816Y-100724756D01*
X127731065Y-100723173D01*
X127763732Y-100721612D01*
X127762000Y-100721197D01*
X127067767Y-100619249D01*
X126393153Y-100458794D01*
X125741347Y-100241748D01*
X125115537Y-99970026D01*
X124518913Y-99645542D01*
X123954662Y-99270211D01*
X123425973Y-98845948D01*
X122936035Y-98374668D01*
X122488037Y-97858286D01*
X122099444Y-97320493D01*
X121753437Y-96737631D01*
X121460225Y-96122697D01*
X121221806Y-95481721D01*
X121040176Y-94820735D01*
X120917333Y-94145768D01*
X120861687Y-93583125D01*
X120860377Y-93593353D01*
G36*
X133365779Y-95302200D02*
G01*
X133258887Y-95347213D01*
X133151898Y-95412439D01*
X133223814Y-95488991D01*
X133289459Y-95541141D01*
X133333870Y-95540298D01*
X133350000Y-95487368D01*
X133377204Y-95431038D01*
X133443277Y-95396746D01*
X133524907Y-95393641D01*
X133560392Y-95404802D01*
X133625976Y-95450278D01*
X133629121Y-95497026D01*
X133570814Y-95543303D01*
X133457949Y-95585664D01*
X133303064Y-95644794D01*
X133206308Y-95717067D01*
X133162955Y-95806610D01*
X133159500Y-95846185D01*
X133188094Y-95967283D01*
X133269989Y-96058200D01*
X133374749Y-96105839D01*
X133454403Y-96126290D01*
X133503927Y-96135903D01*
X133508750Y-96135959D01*
X133547386Y-96126073D01*
X133618823Y-96105895D01*
X133621625Y-96105082D01*
X133712778Y-96061050D01*
X133795793Y-95994749D01*
X133795841Y-95994698D01*
X133873057Y-95912505D01*
X133794091Y-95851879D01*
X133715914Y-95806088D01*
X133669423Y-95814522D01*
X133652457Y-95877681D01*
X133652314Y-95884631D01*
X133625380Y-95954108D01*
X133558841Y-95993384D01*
X133471792Y-95996474D01*
X133394666Y-95965355D01*
X133333459Y-95908457D01*
X133331409Y-95854713D01*
X133389856Y-95801970D01*
X133510142Y-95748076D01*
X133535533Y-95739092D01*
X133643565Y-95698690D01*
X133728852Y-95660957D01*
X133770838Y-95635612D01*
X133803521Y-95563627D01*
X133801035Y-95469112D01*
X133766959Y-95379843D01*
X133732775Y-95340302D01*
X133632599Y-95294515D01*
X133502328Y-95281930D01*
X133365779Y-95302200D01*
X133365779Y-95302200D01*
G37*
X133365779Y-95302200D02*
X133258887Y-95347213D01*
X133151898Y-95412439D01*
X133223814Y-95488991D01*
X133289459Y-95541141D01*
X133333870Y-95540298D01*
X133350000Y-95487368D01*
X133377204Y-95431038D01*
X133443277Y-95396746D01*
X133524907Y-95393641D01*
X133560392Y-95404802D01*
X133625976Y-95450278D01*
X133629121Y-95497026D01*
X133570814Y-95543303D01*
X133457949Y-95585664D01*
X133303064Y-95644794D01*
X133206308Y-95717067D01*
X133162955Y-95806610D01*
X133159500Y-95846185D01*
X133188094Y-95967283D01*
X133269989Y-96058200D01*
X133374749Y-96105839D01*
X133454403Y-96126290D01*
X133503927Y-96135903D01*
X133508750Y-96135959D01*
X133547386Y-96126073D01*
X133618823Y-96105895D01*
X133621625Y-96105082D01*
X133712778Y-96061050D01*
X133795793Y-95994749D01*
X133795841Y-95994698D01*
X133873057Y-95912505D01*
X133794091Y-95851879D01*
X133715914Y-95806088D01*
X133669423Y-95814522D01*
X133652457Y-95877681D01*
X133652314Y-95884631D01*
X133625380Y-95954108D01*
X133558841Y-95993384D01*
X133471792Y-95996474D01*
X133394666Y-95965355D01*
X133333459Y-95908457D01*
X133331409Y-95854713D01*
X133389856Y-95801970D01*
X133510142Y-95748076D01*
X133535533Y-95739092D01*
X133643565Y-95698690D01*
X133728852Y-95660957D01*
X133770838Y-95635612D01*
X133803521Y-95563627D01*
X133801035Y-95469112D01*
X133766959Y-95379843D01*
X133732775Y-95340302D01*
X133632599Y-95294515D01*
X133502328Y-95281930D01*
X133365779Y-95302200D01*
G36*
X132738813Y-95281733D02*
G01*
X132429250Y-95281750D01*
X132429250Y-95377000D01*
X132438447Y-95443878D01*
X132460605Y-95472242D01*
X132461000Y-95472250D01*
X132491828Y-95448089D01*
X132492750Y-95440500D01*
X132521704Y-95423631D01*
X132597493Y-95412180D01*
X132685359Y-95408750D01*
X132791387Y-95409966D01*
X132848015Y-95418111D01*
X132869344Y-95439928D01*
X132869476Y-95482161D01*
X132867922Y-95496062D01*
X132852672Y-95554561D01*
X132811781Y-95582377D01*
X132736597Y-95593361D01*
X132647137Y-95591646D01*
X132582128Y-95574614D01*
X132574926Y-95569824D01*
X132526519Y-95552191D01*
X132498463Y-95592417D01*
X132492750Y-95650292D01*
X132505992Y-95716128D01*
X132536492Y-95746803D01*
X132570416Y-95728935D01*
X132571805Y-95726767D01*
X132613140Y-95707158D01*
X132693784Y-95695711D01*
X132732749Y-95694500D01*
X132873750Y-95694500D01*
X132873750Y-95980250D01*
X132685124Y-95980250D01*
X132581133Y-95975289D01*
X132504738Y-95962432D01*
X132476875Y-95948500D01*
X132439090Y-95916362D01*
X132409463Y-95940106D01*
X132397500Y-96012000D01*
X132397500Y-96107250D01*
X132722938Y-96107221D01*
X133048375Y-96107192D01*
X133048375Y-95281717D01*
X132738813Y-95281733D01*
X132738813Y-95281733D01*
G37*
X132738813Y-95281733D02*
X132429250Y-95281750D01*
X132429250Y-95377000D01*
X132438447Y-95443878D01*
X132460605Y-95472242D01*
X132461000Y-95472250D01*
X132491828Y-95448089D01*
X132492750Y-95440500D01*
X132521704Y-95423631D01*
X132597493Y-95412180D01*
X132685359Y-95408750D01*
X132791387Y-95409966D01*
X132848015Y-95418111D01*
X132869344Y-95439928D01*
X132869476Y-95482161D01*
X132867922Y-95496062D01*
X132852672Y-95554561D01*
X132811781Y-95582377D01*
X132736597Y-95593361D01*
X132647137Y-95591646D01*
X132582128Y-95574614D01*
X132574926Y-95569824D01*
X132526519Y-95552191D01*
X132498463Y-95592417D01*
X132492750Y-95650292D01*
X132505992Y-95716128D01*
X132536492Y-95746803D01*
X132570416Y-95728935D01*
X132571805Y-95726767D01*
X132613140Y-95707158D01*
X132693784Y-95695711D01*
X132732749Y-95694500D01*
X132873750Y-95694500D01*
X132873750Y-95980250D01*
X132685124Y-95980250D01*
X132581133Y-95975289D01*
X132504738Y-95962432D01*
X132476875Y-95948500D01*
X132439090Y-95916362D01*
X132409463Y-95940106D01*
X132397500Y-96012000D01*
X132397500Y-96107250D01*
X132722938Y-96107221D01*
X133048375Y-96107192D01*
X133048375Y-95281717D01*
X132738813Y-95281733D01*
G36*
X132050160Y-95287034D02*
G01*
X131887952Y-95306985D01*
X131780029Y-95348299D01*
X131719405Y-95415659D01*
X131699094Y-95513751D01*
X131699000Y-95522491D01*
X131723313Y-95627351D01*
X131776707Y-95687515D01*
X131854414Y-95748639D01*
X131744957Y-95914840D01*
X131688003Y-96003248D01*
X131648417Y-96068376D01*
X131635500Y-96094146D01*
X131663109Y-96103422D01*
X131728971Y-96107250D01*
X131786235Y-96099047D01*
X131834429Y-96066078D01*
X131887768Y-95995799D01*
X131926888Y-95932625D01*
X132004740Y-95819638D01*
X132067920Y-95762842D01*
X132113637Y-95762875D01*
X132139103Y-95820375D01*
X132143500Y-95883126D01*
X132136120Y-95967667D01*
X132117789Y-96021857D01*
X132111750Y-96027875D01*
X132081212Y-96068466D01*
X132080000Y-96077373D01*
X132107253Y-96096484D01*
X132172565Y-96105694D01*
X132251269Y-96104976D01*
X132318694Y-96094299D01*
X132348520Y-96077693D01*
X132344538Y-96036916D01*
X132334518Y-96028195D01*
X132318524Y-95987792D01*
X132307973Y-95901036D01*
X132302746Y-95784830D01*
X132302723Y-95656076D01*
X132307784Y-95531677D01*
X132308753Y-95521700D01*
X132143500Y-95521700D01*
X132143500Y-95634651D01*
X132008563Y-95624888D01*
X131921091Y-95613125D01*
X131878582Y-95587411D01*
X131862910Y-95539340D01*
X131872680Y-95464803D01*
X131931168Y-95422605D01*
X132040313Y-95409236D01*
X132109140Y-95414212D01*
X132137669Y-95442816D01*
X132143489Y-95514219D01*
X132143500Y-95521700D01*
X132308753Y-95521700D01*
X132317809Y-95428535D01*
X132332678Y-95363554D01*
X132339310Y-95352640D01*
X132353240Y-95314997D01*
X132305374Y-95291765D01*
X132195761Y-95282955D01*
X132050160Y-95287034D01*
X132050160Y-95287034D01*
G37*
X132050160Y-95287034D02*
X131887952Y-95306985D01*
X131780029Y-95348299D01*
X131719405Y-95415659D01*
X131699094Y-95513751D01*
X131699000Y-95522491D01*
X131723313Y-95627351D01*
X131776707Y-95687515D01*
X131854414Y-95748639D01*
X131744957Y-95914840D01*
X131688003Y-96003248D01*
X131648417Y-96068376D01*
X131635500Y-96094146D01*
X131663109Y-96103422D01*
X131728971Y-96107250D01*
X131786235Y-96099047D01*
X131834429Y-96066078D01*
X131887768Y-95995799D01*
X131926888Y-95932625D01*
X132004740Y-95819638D01*
X132067920Y-95762842D01*
X132113637Y-95762875D01*
X132139103Y-95820375D01*
X132143500Y-95883126D01*
X132136120Y-95967667D01*
X132117789Y-96021857D01*
X132111750Y-96027875D01*
X132081212Y-96068466D01*
X132080000Y-96077373D01*
X132107253Y-96096484D01*
X132172565Y-96105694D01*
X132251269Y-96104976D01*
X132318694Y-96094299D01*
X132348520Y-96077693D01*
X132344538Y-96036916D01*
X132334518Y-96028195D01*
X132318524Y-95987792D01*
X132307973Y-95901036D01*
X132302746Y-95784830D01*
X132302723Y-95656076D01*
X132307784Y-95531677D01*
X132308753Y-95521700D01*
X132143500Y-95521700D01*
X132143500Y-95634651D01*
X132008563Y-95624888D01*
X131921091Y-95613125D01*
X131878582Y-95587411D01*
X131862910Y-95539340D01*
X131872680Y-95464803D01*
X131931168Y-95422605D01*
X132040313Y-95409236D01*
X132109140Y-95414212D01*
X132137669Y-95442816D01*
X132143489Y-95514219D01*
X132143500Y-95521700D01*
X132308753Y-95521700D01*
X132317809Y-95428535D01*
X132332678Y-95363554D01*
X132339310Y-95352640D01*
X132353240Y-95314997D01*
X132305374Y-95291765D01*
X132195761Y-95282955D01*
X132050160Y-95287034D01*
G36*
X131073967Y-95291679D02*
G01*
X130968171Y-95316749D01*
X130934268Y-95330788D01*
X130839439Y-95379826D01*
X130906257Y-95473663D01*
X130959169Y-95542955D01*
X130991063Y-95560778D01*
X131015802Y-95528722D01*
X131032250Y-95488125D01*
X131063662Y-95435089D01*
X131118103Y-95412544D01*
X131188414Y-95408750D01*
X131288569Y-95420942D01*
X131351727Y-95463636D01*
X131363825Y-95479314D01*
X131403059Y-95580549D01*
X131410175Y-95705878D01*
X131385236Y-95824653D01*
X131363025Y-95868638D01*
X131297522Y-95930760D01*
X131203748Y-95979839D01*
X131108043Y-96004932D01*
X131046816Y-96000015D01*
X131017844Y-95959754D01*
X131002272Y-95883738D01*
X131001386Y-95798544D01*
X131016475Y-95730753D01*
X131032768Y-95710054D01*
X131054822Y-95677170D01*
X131025091Y-95648302D01*
X130955120Y-95632097D01*
X130927189Y-95630996D01*
X130825875Y-95630993D01*
X130825875Y-96107167D01*
X131064000Y-96107090D01*
X131215757Y-96101228D01*
X131322958Y-96081621D01*
X131399917Y-96047379D01*
X131513147Y-95944776D01*
X131579064Y-95813466D01*
X131596209Y-95668667D01*
X131563128Y-95525597D01*
X131478365Y-95399472D01*
X131463301Y-95384956D01*
X131381322Y-95319756D01*
X131303015Y-95289443D01*
X131195906Y-95281760D01*
X131189890Y-95281750D01*
X131073967Y-95291679D01*
X131073967Y-95291679D01*
G37*
X131073967Y-95291679D02*
X130968171Y-95316749D01*
X130934268Y-95330788D01*
X130839439Y-95379826D01*
X130906257Y-95473663D01*
X130959169Y-95542955D01*
X130991063Y-95560778D01*
X131015802Y-95528722D01*
X131032250Y-95488125D01*
X131063662Y-95435089D01*
X131118103Y-95412544D01*
X131188414Y-95408750D01*
X131288569Y-95420942D01*
X131351727Y-95463636D01*
X131363825Y-95479314D01*
X131403059Y-95580549D01*
X131410175Y-95705878D01*
X131385236Y-95824653D01*
X131363025Y-95868638D01*
X131297522Y-95930760D01*
X131203748Y-95979839D01*
X131108043Y-96004932D01*
X131046816Y-96000015D01*
X131017844Y-95959754D01*
X131002272Y-95883738D01*
X131001386Y-95798544D01*
X131016475Y-95730753D01*
X131032768Y-95710054D01*
X131054822Y-95677170D01*
X131025091Y-95648302D01*
X130955120Y-95632097D01*
X130927189Y-95630996D01*
X130825875Y-95630993D01*
X130825875Y-96107167D01*
X131064000Y-96107090D01*
X131215757Y-96101228D01*
X131322958Y-96081621D01*
X131399917Y-96047379D01*
X131513147Y-95944776D01*
X131579064Y-95813466D01*
X131596209Y-95668667D01*
X131563128Y-95525597D01*
X131478365Y-95399472D01*
X131463301Y-95384956D01*
X131381322Y-95319756D01*
X131303015Y-95289443D01*
X131195906Y-95281760D01*
X131189890Y-95281750D01*
X131073967Y-95291679D01*
G36*
X130530291Y-95290804D02*
G01*
X130477613Y-95313861D01*
X130473424Y-95344758D01*
X130491983Y-95360804D01*
X130506242Y-95399916D01*
X130517111Y-95489192D01*
X130523304Y-95615332D01*
X130524250Y-95694500D01*
X130521134Y-95835078D01*
X130512644Y-95946010D01*
X130500064Y-96013996D01*
X130491983Y-96028195D01*
X130473667Y-96066245D01*
X130477981Y-96077693D01*
X130517016Y-96096725D01*
X130587969Y-96105773D01*
X130666170Y-96104868D01*
X130726952Y-96094038D01*
X130746500Y-96077373D01*
X130723421Y-96034373D01*
X130714750Y-96027875D01*
X130701044Y-95989355D01*
X130690379Y-95901481D01*
X130684102Y-95778373D01*
X130683000Y-95694500D01*
X130686041Y-95557170D01*
X130694267Y-95446699D01*
X130706332Y-95377210D01*
X130714750Y-95361125D01*
X130747518Y-95324453D01*
X130723210Y-95296424D01*
X130648168Y-95282425D01*
X130621374Y-95281750D01*
X130530291Y-95290804D01*
X130530291Y-95290804D01*
G37*
X130530291Y-95290804D02*
X130477613Y-95313861D01*
X130473424Y-95344758D01*
X130491983Y-95360804D01*
X130506242Y-95399916D01*
X130517111Y-95489192D01*
X130523304Y-95615332D01*
X130524250Y-95694500D01*
X130521134Y-95835078D01*
X130512644Y-95946010D01*
X130500064Y-96013996D01*
X130491983Y-96028195D01*
X130473667Y-96066245D01*
X130477981Y-96077693D01*
X130517016Y-96096725D01*
X130587969Y-96105773D01*
X130666170Y-96104868D01*
X130726952Y-96094038D01*
X130746500Y-96077373D01*
X130723421Y-96034373D01*
X130714750Y-96027875D01*
X130701044Y-95989355D01*
X130690379Y-95901481D01*
X130684102Y-95778373D01*
X130683000Y-95694500D01*
X130686041Y-95557170D01*
X130694267Y-95446699D01*
X130706332Y-95377210D01*
X130714750Y-95361125D01*
X130747518Y-95324453D01*
X130723210Y-95296424D01*
X130648168Y-95282425D01*
X130621374Y-95281750D01*
X130530291Y-95290804D01*
G36*
X129821878Y-95308598D02*
G01*
X129694189Y-95381410D01*
X129603361Y-95488816D01*
X129554560Y-95619329D01*
X129552953Y-95761460D01*
X129603709Y-95903722D01*
X129663983Y-95987224D01*
X129724100Y-96045439D01*
X129787239Y-96077208D01*
X129877601Y-96092076D01*
X129940093Y-96096133D01*
X130049763Y-96098202D01*
X130137738Y-96093645D01*
X130175000Y-96086522D01*
X130281262Y-96013718D01*
X130365306Y-95899132D01*
X130400109Y-95810885D01*
X130417330Y-95711049D01*
X130409661Y-95652869D01*
X130229927Y-95652869D01*
X130217650Y-95781938D01*
X130167027Y-95896207D01*
X130127568Y-95940512D01*
X130043532Y-95998075D01*
X129966037Y-96006926D01*
X129878371Y-95976748D01*
X129792541Y-95906404D01*
X129743334Y-95802239D01*
X129730356Y-95682026D01*
X129753212Y-95563541D01*
X129811508Y-95464555D01*
X129890997Y-95408026D01*
X130000891Y-95393851D01*
X130106794Y-95433631D01*
X130189902Y-95519571D01*
X130199128Y-95535750D01*
X130229927Y-95652869D01*
X130409661Y-95652869D01*
X130405043Y-95617837D01*
X130380224Y-95544192D01*
X130299363Y-95406576D01*
X130180814Y-95319812D01*
X130023582Y-95283247D01*
X129981258Y-95281868D01*
X129821878Y-95308598D01*
X129821878Y-95308598D01*
G37*
X129821878Y-95308598D02*
X129694189Y-95381410D01*
X129603361Y-95488816D01*
X129554560Y-95619329D01*
X129552953Y-95761460D01*
X129603709Y-95903722D01*
X129663983Y-95987224D01*
X129724100Y-96045439D01*
X129787239Y-96077208D01*
X129877601Y-96092076D01*
X129940093Y-96096133D01*
X130049763Y-96098202D01*
X130137738Y-96093645D01*
X130175000Y-96086522D01*
X130281262Y-96013718D01*
X130365306Y-95899132D01*
X130400109Y-95810885D01*
X130417330Y-95711049D01*
X130409661Y-95652869D01*
X130229927Y-95652869D01*
X130217650Y-95781938D01*
X130167027Y-95896207D01*
X130127568Y-95940512D01*
X130043532Y-95998075D01*
X129966037Y-96006926D01*
X129878371Y-95976748D01*
X129792541Y-95906404D01*
X129743334Y-95802239D01*
X129730356Y-95682026D01*
X129753212Y-95563541D01*
X129811508Y-95464555D01*
X129890997Y-95408026D01*
X130000891Y-95393851D01*
X130106794Y-95433631D01*
X130189902Y-95519571D01*
X130199128Y-95535750D01*
X130229927Y-95652869D01*
X130409661Y-95652869D01*
X130405043Y-95617837D01*
X130380224Y-95544192D01*
X130299363Y-95406576D01*
X130180814Y-95319812D01*
X130023582Y-95283247D01*
X129981258Y-95281868D01*
X129821878Y-95308598D01*
G36*
X128879138Y-95287903D02*
G01*
X128840881Y-95298060D01*
X128807721Y-95325331D01*
X128773376Y-95380057D01*
X128731568Y-95472577D01*
X128676017Y-95613231D01*
X128666574Y-95637905D01*
X128613107Y-95774960D01*
X128566206Y-95889713D01*
X128531252Y-95969341D01*
X128514449Y-96000385D01*
X128487424Y-96052386D01*
X128517716Y-96089677D01*
X128599811Y-96106746D01*
X128621390Y-96107250D01*
X128702722Y-96103353D01*
X128734924Y-96086591D01*
X128732150Y-96049355D01*
X128731706Y-96047943D01*
X128728472Y-95974406D01*
X128744656Y-95905068D01*
X128775945Y-95849655D01*
X128827917Y-95825891D01*
X128903098Y-95821500D01*
X129013340Y-95842931D01*
X129076197Y-95904119D01*
X129087692Y-96000402D01*
X129081720Y-96030832D01*
X129075175Y-96081445D01*
X129100645Y-96102790D01*
X129173554Y-96107247D01*
X129176916Y-96107250D01*
X129248520Y-96101473D01*
X129280879Y-96087184D01*
X129280709Y-96083191D01*
X129265683Y-96046156D01*
X129232054Y-95961834D01*
X129184507Y-95842012D01*
X129127728Y-95698478D01*
X129115950Y-95668657D01*
X129114422Y-95664832D01*
X128982235Y-95664832D01*
X128967862Y-95690352D01*
X128919224Y-95694500D01*
X128860490Y-95686186D01*
X128841934Y-95670687D01*
X128852836Y-95604294D01*
X128876319Y-95539741D01*
X128901721Y-95504948D01*
X128905598Y-95504000D01*
X128932142Y-95530640D01*
X128962297Y-95595166D01*
X128963743Y-95599250D01*
X128982235Y-95664832D01*
X129114422Y-95664832D01*
X129052653Y-95510223D01*
X129006307Y-95401982D01*
X128971230Y-95334794D01*
X128941739Y-95299524D01*
X128912151Y-95287034D01*
X128879138Y-95287903D01*
X128879138Y-95287903D01*
G37*
X128879138Y-95287903D02*
X128840881Y-95298060D01*
X128807721Y-95325331D01*
X128773376Y-95380057D01*
X128731568Y-95472577D01*
X128676017Y-95613231D01*
X128666574Y-95637905D01*
X128613107Y-95774960D01*
X128566206Y-95889713D01*
X128531252Y-95969341D01*
X128514449Y-96000385D01*
X128487424Y-96052386D01*
X128517716Y-96089677D01*
X128599811Y-96106746D01*
X128621390Y-96107250D01*
X128702722Y-96103353D01*
X128734924Y-96086591D01*
X128732150Y-96049355D01*
X128731706Y-96047943D01*
X128728472Y-95974406D01*
X128744656Y-95905068D01*
X128775945Y-95849655D01*
X128827917Y-95825891D01*
X128903098Y-95821500D01*
X129013340Y-95842931D01*
X129076197Y-95904119D01*
X129087692Y-96000402D01*
X129081720Y-96030832D01*
X129075175Y-96081445D01*
X129100645Y-96102790D01*
X129173554Y-96107247D01*
X129176916Y-96107250D01*
X129248520Y-96101473D01*
X129280879Y-96087184D01*
X129280709Y-96083191D01*
X129265683Y-96046156D01*
X129232054Y-95961834D01*
X129184507Y-95842012D01*
X129127728Y-95698478D01*
X129115950Y-95668657D01*
X129114422Y-95664832D01*
X128982235Y-95664832D01*
X128967862Y-95690352D01*
X128919224Y-95694500D01*
X128860490Y-95686186D01*
X128841934Y-95670687D01*
X128852836Y-95604294D01*
X128876319Y-95539741D01*
X128901721Y-95504948D01*
X128905598Y-95504000D01*
X128932142Y-95530640D01*
X128962297Y-95595166D01*
X128963743Y-95599250D01*
X128982235Y-95664832D01*
X129114422Y-95664832D01*
X129052653Y-95510223D01*
X129006307Y-95401982D01*
X128971230Y-95334794D01*
X128941739Y-95299524D01*
X128912151Y-95287034D01*
X128879138Y-95287903D01*
G36*
X128201799Y-95286774D02*
G01*
X128058528Y-95297905D01*
X127963434Y-95317961D01*
X127901427Y-95350425D01*
X127892236Y-95358196D01*
X127835988Y-95446169D01*
X127826341Y-95549828D01*
X127862661Y-95645327D01*
X127900888Y-95684900D01*
X127976276Y-95741765D01*
X127869138Y-95909249D01*
X127813315Y-95998766D01*
X127774559Y-96065212D01*
X127762000Y-96091991D01*
X127789638Y-96102725D01*
X127856182Y-96107249D01*
X127856979Y-96107250D01*
X127914419Y-96099691D01*
X127960891Y-96068431D01*
X128010666Y-96000590D01*
X128050510Y-95932625D01*
X128125151Y-95819437D01*
X128188178Y-95760968D01*
X128235715Y-95758093D01*
X128263883Y-95811686D01*
X128270000Y-95883126D01*
X128262620Y-95967667D01*
X128244289Y-96021857D01*
X128238250Y-96027875D01*
X128205592Y-96064720D01*
X128229763Y-96093027D01*
X128304141Y-96106775D01*
X128325563Y-96107250D01*
X128444625Y-96107250D01*
X128444625Y-95634651D01*
X128270000Y-95634651D01*
X128135063Y-95624888D01*
X128050261Y-95615095D01*
X128011292Y-95592997D01*
X128000508Y-95544860D01*
X128000125Y-95519875D01*
X128005307Y-95459639D01*
X128032617Y-95430156D01*
X128099706Y-95417690D01*
X128135063Y-95414861D01*
X128270000Y-95405098D01*
X128270000Y-95634651D01*
X128444625Y-95634651D01*
X128444625Y-95275747D01*
X128201799Y-95286774D01*
X128201799Y-95286774D01*
G37*
X128201799Y-95286774D02*
X128058528Y-95297905D01*
X127963434Y-95317961D01*
X127901427Y-95350425D01*
X127892236Y-95358196D01*
X127835988Y-95446169D01*
X127826341Y-95549828D01*
X127862661Y-95645327D01*
X127900888Y-95684900D01*
X127976276Y-95741765D01*
X127869138Y-95909249D01*
X127813315Y-95998766D01*
X127774559Y-96065212D01*
X127762000Y-96091991D01*
X127789638Y-96102725D01*
X127856182Y-96107249D01*
X127856979Y-96107250D01*
X127914419Y-96099691D01*
X127960891Y-96068431D01*
X128010666Y-96000590D01*
X128050510Y-95932625D01*
X128125151Y-95819437D01*
X128188178Y-95760968D01*
X128235715Y-95758093D01*
X128263883Y-95811686D01*
X128270000Y-95883126D01*
X128262620Y-95967667D01*
X128244289Y-96021857D01*
X128238250Y-96027875D01*
X128205592Y-96064720D01*
X128229763Y-96093027D01*
X128304141Y-96106775D01*
X128325563Y-96107250D01*
X128444625Y-96107250D01*
X128444625Y-95634651D01*
X128270000Y-95634651D01*
X128135063Y-95624888D01*
X128050261Y-95615095D01*
X128011292Y-95592997D01*
X128000508Y-95544860D01*
X128000125Y-95519875D01*
X128005307Y-95459639D01*
X128032617Y-95430156D01*
X128099706Y-95417690D01*
X128135063Y-95414861D01*
X128270000Y-95405098D01*
X128270000Y-95634651D01*
X128444625Y-95634651D01*
X128444625Y-95275747D01*
X128201799Y-95286774D01*
G36*
X127411934Y-95286113D02*
G01*
X127393581Y-95287000D01*
X127260906Y-95297042D01*
X127176881Y-95313335D01*
X127126704Y-95339665D01*
X127108000Y-95360030D01*
X127068247Y-95453487D01*
X127075085Y-95545181D01*
X127113596Y-95601300D01*
X127144579Y-95636413D01*
X127127689Y-95668687D01*
X127098347Y-95692500D01*
X127030580Y-95779503D01*
X127010990Y-95886868D01*
X127042518Y-95991167D01*
X127058057Y-96013186D01*
X127094511Y-96051114D01*
X127139449Y-96075346D01*
X127208137Y-96089792D01*
X127315841Y-96098360D01*
X127406185Y-96102331D01*
X127550734Y-96104234D01*
X127654574Y-96097999D01*
X127707519Y-96084348D01*
X127711153Y-96080713D01*
X127709103Y-96037338D01*
X127699018Y-96028195D01*
X127683024Y-95987792D01*
X127672473Y-95901036D01*
X127667246Y-95784830D01*
X127667236Y-95726250D01*
X127508000Y-95726250D01*
X127508000Y-95980250D01*
X127366243Y-95980250D01*
X127267111Y-95972540D01*
X127210956Y-95944799D01*
X127190500Y-95916750D01*
X127169847Y-95831572D01*
X127205501Y-95768310D01*
X127292446Y-95732403D01*
X127366243Y-95726250D01*
X127508000Y-95726250D01*
X127667236Y-95726250D01*
X127667223Y-95656076D01*
X127672284Y-95531677D01*
X127674974Y-95504000D01*
X127508000Y-95504000D01*
X127504327Y-95565663D01*
X127481529Y-95592532D01*
X127421943Y-95596275D01*
X127373063Y-95593138D01*
X127287694Y-95582647D01*
X127248521Y-95560085D01*
X127238244Y-95514025D01*
X127238125Y-95504000D01*
X127245460Y-95453252D01*
X127278996Y-95427783D01*
X127356034Y-95416163D01*
X127373063Y-95414861D01*
X127457557Y-95411441D01*
X127496467Y-95425335D01*
X127507456Y-95468213D01*
X127508000Y-95504000D01*
X127674974Y-95504000D01*
X127682309Y-95428535D01*
X127697178Y-95363554D01*
X127703810Y-95352640D01*
X127718623Y-95316370D01*
X127675952Y-95293412D01*
X127574241Y-95283436D01*
X127411934Y-95286113D01*
X127411934Y-95286113D01*
G37*
X127411934Y-95286113D02*
X127393581Y-95287000D01*
X127260906Y-95297042D01*
X127176881Y-95313335D01*
X127126704Y-95339665D01*
X127108000Y-95360030D01*
X127068247Y-95453487D01*
X127075085Y-95545181D01*
X127113596Y-95601300D01*
X127144579Y-95636413D01*
X127127689Y-95668687D01*
X127098347Y-95692500D01*
X127030580Y-95779503D01*
X127010990Y-95886868D01*
X127042518Y-95991167D01*
X127058057Y-96013186D01*
X127094511Y-96051114D01*
X127139449Y-96075346D01*
X127208137Y-96089792D01*
X127315841Y-96098360D01*
X127406185Y-96102331D01*
X127550734Y-96104234D01*
X127654574Y-96097999D01*
X127707519Y-96084348D01*
X127711153Y-96080713D01*
X127709103Y-96037338D01*
X127699018Y-96028195D01*
X127683024Y-95987792D01*
X127672473Y-95901036D01*
X127667246Y-95784830D01*
X127667236Y-95726250D01*
X127508000Y-95726250D01*
X127508000Y-95980250D01*
X127366243Y-95980250D01*
X127267111Y-95972540D01*
X127210956Y-95944799D01*
X127190500Y-95916750D01*
X127169847Y-95831572D01*
X127205501Y-95768310D01*
X127292446Y-95732403D01*
X127366243Y-95726250D01*
X127508000Y-95726250D01*
X127667236Y-95726250D01*
X127667223Y-95656076D01*
X127672284Y-95531677D01*
X127674974Y-95504000D01*
X127508000Y-95504000D01*
X127504327Y-95565663D01*
X127481529Y-95592532D01*
X127421943Y-95596275D01*
X127373063Y-95593138D01*
X127287694Y-95582647D01*
X127248521Y-95560085D01*
X127238244Y-95514025D01*
X127238125Y-95504000D01*
X127245460Y-95453252D01*
X127278996Y-95427783D01*
X127356034Y-95416163D01*
X127373063Y-95414861D01*
X127457557Y-95411441D01*
X127496467Y-95425335D01*
X127507456Y-95468213D01*
X127508000Y-95504000D01*
X127674974Y-95504000D01*
X127682309Y-95428535D01*
X127697178Y-95363554D01*
X127703810Y-95352640D01*
X127718623Y-95316370D01*
X127675952Y-95293412D01*
X127574241Y-95283436D01*
X127411934Y-95286113D01*
G36*
X126320987Y-95302690D02*
G01*
X126197618Y-95369136D01*
X126104557Y-95486522D01*
X126094491Y-95505226D01*
X126051033Y-95653512D01*
X126065229Y-95804936D01*
X126133620Y-95945385D01*
X126225773Y-96040946D01*
X126325611Y-96086950D01*
X126457679Y-96106173D01*
X126596238Y-96097753D01*
X126715549Y-96060828D01*
X126721789Y-96057548D01*
X126823305Y-95967496D01*
X126885526Y-95832783D01*
X126898466Y-95727561D01*
X126730261Y-95727561D01*
X126696947Y-95849016D01*
X126625952Y-95945668D01*
X126525966Y-96002219D01*
X126482486Y-96009987D01*
X126438916Y-95998051D01*
X126369045Y-95966463D01*
X126367271Y-95965549D01*
X126295763Y-95917305D01*
X126256079Y-95853583D01*
X126239898Y-95755972D01*
X126238000Y-95679545D01*
X126259066Y-95539105D01*
X126320841Y-95444995D01*
X126421189Y-95399832D01*
X126469068Y-95396050D01*
X126583420Y-95413914D01*
X126661036Y-95473998D01*
X126713958Y-95586032D01*
X126717209Y-95596605D01*
X126730261Y-95727561D01*
X126898466Y-95727561D01*
X126904750Y-95676466D01*
X126898605Y-95581392D01*
X126871936Y-95510512D01*
X126812394Y-95436631D01*
X126781486Y-95405014D01*
X126702688Y-95332374D01*
X126636177Y-95295724D01*
X126552769Y-95282968D01*
X126484143Y-95281750D01*
X126320987Y-95302690D01*
X126320987Y-95302690D01*
G37*
X126320987Y-95302690D02*
X126197618Y-95369136D01*
X126104557Y-95486522D01*
X126094491Y-95505226D01*
X126051033Y-95653512D01*
X126065229Y-95804936D01*
X126133620Y-95945385D01*
X126225773Y-96040946D01*
X126325611Y-96086950D01*
X126457679Y-96106173D01*
X126596238Y-96097753D01*
X126715549Y-96060828D01*
X126721789Y-96057548D01*
X126823305Y-95967496D01*
X126885526Y-95832783D01*
X126898466Y-95727561D01*
X126730261Y-95727561D01*
X126696947Y-95849016D01*
X126625952Y-95945668D01*
X126525966Y-96002219D01*
X126482486Y-96009987D01*
X126438916Y-95998051D01*
X126369045Y-95966463D01*
X126367271Y-95965549D01*
X126295763Y-95917305D01*
X126256079Y-95853583D01*
X126239898Y-95755972D01*
X126238000Y-95679545D01*
X126259066Y-95539105D01*
X126320841Y-95444995D01*
X126421189Y-95399832D01*
X126469068Y-95396050D01*
X126583420Y-95413914D01*
X126661036Y-95473998D01*
X126713958Y-95586032D01*
X126717209Y-95596605D01*
X126730261Y-95727561D01*
X126898466Y-95727561D01*
X126904750Y-95676466D01*
X126898605Y-95581392D01*
X126871936Y-95510512D01*
X126812394Y-95436631D01*
X126781486Y-95405014D01*
X126702688Y-95332374D01*
X126636177Y-95295724D01*
X126552769Y-95282968D01*
X126484143Y-95281750D01*
X126320987Y-95302690D01*
G36*
X125768775Y-95980250D02*
G01*
X125606513Y-95980250D01*
X125514810Y-95974655D01*
X125455982Y-95960321D01*
X125444250Y-95948500D01*
X125420090Y-95917672D01*
X125412500Y-95916750D01*
X125390208Y-95944339D01*
X125380753Y-96010814D01*
X125380750Y-96012000D01*
X125380750Y-96107250D01*
X125968125Y-96107250D01*
X125968125Y-95281750D01*
X125744867Y-95281750D01*
X125768775Y-95980250D01*
X125768775Y-95980250D01*
G37*
X125768775Y-95980250D02*
X125606513Y-95980250D01*
X125514810Y-95974655D01*
X125455982Y-95960321D01*
X125444250Y-95948500D01*
X125420090Y-95917672D01*
X125412500Y-95916750D01*
X125390208Y-95944339D01*
X125380753Y-96010814D01*
X125380750Y-96012000D01*
X125380750Y-96107250D01*
X125968125Y-96107250D01*
X125968125Y-95281750D01*
X125744867Y-95281750D01*
X125768775Y-95980250D01*
G36*
X124682250Y-95383350D02*
G01*
X124687183Y-95448564D01*
X124705281Y-95459067D01*
X124720350Y-95446850D01*
X124772086Y-95425181D01*
X124862817Y-95411380D01*
X124926725Y-95408750D01*
X125024244Y-95410523D01*
X125074183Y-95421850D01*
X125092462Y-95451742D01*
X125095000Y-95504000D01*
X125089865Y-95565395D01*
X125062245Y-95592458D01*
X124993823Y-95599132D01*
X124969874Y-95599250D01*
X124885333Y-95591869D01*
X124831143Y-95573538D01*
X124825125Y-95567500D01*
X124787243Y-95535409D01*
X124757495Y-95559129D01*
X124745750Y-95629126D01*
X124756917Y-95705407D01*
X124783913Y-95745501D01*
X124816979Y-95737355D01*
X124824805Y-95726767D01*
X124866656Y-95706137D01*
X124945760Y-95695087D01*
X124969874Y-95694500D01*
X125095000Y-95694500D01*
X125095000Y-95980250D01*
X124922249Y-95980250D01*
X124822816Y-95974848D01*
X124751513Y-95960959D01*
X124729875Y-95948500D01*
X124692090Y-95916362D01*
X124662463Y-95940106D01*
X124650500Y-96012000D01*
X124650500Y-96107250D01*
X125301375Y-96107250D01*
X125301375Y-95281750D01*
X124682250Y-95281750D01*
X124682250Y-95383350D01*
X124682250Y-95383350D01*
G37*
X124682250Y-95383350D02*
X124687183Y-95448564D01*
X124705281Y-95459067D01*
X124720350Y-95446850D01*
X124772086Y-95425181D01*
X124862817Y-95411380D01*
X124926725Y-95408750D01*
X125024244Y-95410523D01*
X125074183Y-95421850D01*
X125092462Y-95451742D01*
X125095000Y-95504000D01*
X125089865Y-95565395D01*
X125062245Y-95592458D01*
X124993823Y-95599132D01*
X124969874Y-95599250D01*
X124885333Y-95591869D01*
X124831143Y-95573538D01*
X124825125Y-95567500D01*
X124787243Y-95535409D01*
X124757495Y-95559129D01*
X124745750Y-95629126D01*
X124756917Y-95705407D01*
X124783913Y-95745501D01*
X124816979Y-95737355D01*
X124824805Y-95726767D01*
X124866656Y-95706137D01*
X124945760Y-95695087D01*
X124969874Y-95694500D01*
X125095000Y-95694500D01*
X125095000Y-95980250D01*
X124922249Y-95980250D01*
X124822816Y-95974848D01*
X124751513Y-95960959D01*
X124729875Y-95948500D01*
X124692090Y-95916362D01*
X124662463Y-95940106D01*
X124650500Y-96012000D01*
X124650500Y-96107250D01*
X125301375Y-96107250D01*
X125301375Y-95281750D01*
X124682250Y-95281750D01*
X124682250Y-95383350D01*
G36*
X124380625Y-95282447D02*
G01*
X124173116Y-95303898D01*
X124012812Y-95365923D01*
X123900894Y-95467565D01*
X123838541Y-95607866D01*
X123825000Y-95733483D01*
X123847409Y-95879213D01*
X123916248Y-95987620D01*
X124033942Y-96060412D01*
X124202912Y-96099293D01*
X124355793Y-96107250D01*
X124571125Y-96107250D01*
X124571125Y-95694500D01*
X124364750Y-95694500D01*
X124364750Y-95980250D01*
X124252182Y-95980250D01*
X124130673Y-95953385D01*
X124061682Y-95902318D01*
X123999266Y-95801598D01*
X123988330Y-95689618D01*
X124022111Y-95580406D01*
X124093844Y-95487992D01*
X124196764Y-95426406D01*
X124299674Y-95408750D01*
X124330567Y-95413183D01*
X124349761Y-95434560D01*
X124360015Y-95484999D01*
X124364087Y-95576615D01*
X124364750Y-95694500D01*
X124571125Y-95694500D01*
X124571125Y-95281750D01*
X124380625Y-95282447D01*
X124380625Y-95282447D01*
G37*
X124380625Y-95282447D02*
X124173116Y-95303898D01*
X124012812Y-95365923D01*
X123900894Y-95467565D01*
X123838541Y-95607866D01*
X123825000Y-95733483D01*
X123847409Y-95879213D01*
X123916248Y-95987620D01*
X124033942Y-96060412D01*
X124202912Y-96099293D01*
X124355793Y-96107250D01*
X124571125Y-96107250D01*
X124571125Y-95694500D01*
X124364750Y-95694500D01*
X124364750Y-95980250D01*
X124252182Y-95980250D01*
X124130673Y-95953385D01*
X124061682Y-95902318D01*
X123999266Y-95801598D01*
X123988330Y-95689618D01*
X124022111Y-95580406D01*
X124093844Y-95487992D01*
X124196764Y-95426406D01*
X124299674Y-95408750D01*
X124330567Y-95413183D01*
X124349761Y-95434560D01*
X124360015Y-95484999D01*
X124364087Y-95576615D01*
X124364750Y-95694500D01*
X124571125Y-95694500D01*
X124571125Y-95281750D01*
X124380625Y-95282447D01*
G36*
X123387568Y-95301355D02*
G01*
X123355522Y-95319399D01*
X123324693Y-95362037D01*
X123288521Y-95439549D01*
X123240445Y-95562217D01*
X123214630Y-95631000D01*
X123161971Y-95767884D01*
X123114680Y-95883285D01*
X123078453Y-95963750D01*
X123060704Y-95994537D01*
X123028414Y-96050991D01*
X123054841Y-96089567D01*
X123136837Y-96106707D01*
X123160390Y-96107250D01*
X123241690Y-96103396D01*
X123273888Y-96086697D01*
X123271172Y-96049440D01*
X123270533Y-96047398D01*
X123269062Y-95974897D01*
X123289365Y-95904523D01*
X123324279Y-95850403D01*
X123378013Y-95826471D01*
X123461530Y-95821500D01*
X123548707Y-95826486D01*
X123593138Y-95848660D01*
X123615254Y-95898846D01*
X123616466Y-95903575D01*
X123625291Y-95989843D01*
X123617769Y-96046450D01*
X123613850Y-96087062D01*
X123646891Y-96104193D01*
X123711736Y-96107250D01*
X123786030Y-96099309D01*
X123823803Y-96079738D01*
X123825000Y-96075069D01*
X123810097Y-96022892D01*
X123792382Y-95987756D01*
X123767802Y-95936135D01*
X123727160Y-95840233D01*
X123676746Y-95715203D01*
X123664377Y-95683479D01*
X123532304Y-95683479D01*
X123503644Y-95693987D01*
X123459875Y-95694500D01*
X123400132Y-95690675D01*
X123380500Y-95683362D01*
X123389884Y-95648982D01*
X123412858Y-95579466D01*
X123416688Y-95568419D01*
X123452875Y-95464612D01*
X123496063Y-95567326D01*
X123528222Y-95646721D01*
X123532304Y-95683479D01*
X123664377Y-95683479D01*
X123637725Y-95615125D01*
X123582455Y-95474217D01*
X123541939Y-95382511D01*
X123509235Y-95329528D01*
X123477402Y-95304790D01*
X123439498Y-95297820D01*
X123427394Y-95297625D01*
X123387568Y-95301355D01*
X123387568Y-95301355D01*
G37*
X123387568Y-95301355D02*
X123355522Y-95319399D01*
X123324693Y-95362037D01*
X123288521Y-95439549D01*
X123240445Y-95562217D01*
X123214630Y-95631000D01*
X123161971Y-95767884D01*
X123114680Y-95883285D01*
X123078453Y-95963750D01*
X123060704Y-95994537D01*
X123028414Y-96050991D01*
X123054841Y-96089567D01*
X123136837Y-96106707D01*
X123160390Y-96107250D01*
X123241690Y-96103396D01*
X123273888Y-96086697D01*
X123271172Y-96049440D01*
X123270533Y-96047398D01*
X123269062Y-95974897D01*
X123289365Y-95904523D01*
X123324279Y-95850403D01*
X123378013Y-95826471D01*
X123461530Y-95821500D01*
X123548707Y-95826486D01*
X123593138Y-95848660D01*
X123615254Y-95898846D01*
X123616466Y-95903575D01*
X123625291Y-95989843D01*
X123617769Y-96046450D01*
X123613850Y-96087062D01*
X123646891Y-96104193D01*
X123711736Y-96107250D01*
X123786030Y-96099309D01*
X123823803Y-96079738D01*
X123825000Y-96075069D01*
X123810097Y-96022892D01*
X123792382Y-95987756D01*
X123767802Y-95936135D01*
X123727160Y-95840233D01*
X123676746Y-95715203D01*
X123664377Y-95683479D01*
X123532304Y-95683479D01*
X123503644Y-95693987D01*
X123459875Y-95694500D01*
X123400132Y-95690675D01*
X123380500Y-95683362D01*
X123389884Y-95648982D01*
X123412858Y-95579466D01*
X123416688Y-95568419D01*
X123452875Y-95464612D01*
X123496063Y-95567326D01*
X123528222Y-95646721D01*
X123532304Y-95683479D01*
X123664377Y-95683479D01*
X123637725Y-95615125D01*
X123582455Y-95474217D01*
X123541939Y-95382511D01*
X123509235Y-95329528D01*
X123477402Y-95304790D01*
X123439498Y-95297820D01*
X123427394Y-95297625D01*
X123387568Y-95301355D01*
G36*
X127613506Y-94144942D02*
G01*
X127606295Y-94147456D01*
X127504162Y-94198906D01*
X127456000Y-94257018D01*
X127465378Y-94315636D01*
X127492827Y-94343261D01*
X127562136Y-94385909D01*
X127596653Y-94379928D01*
X127603250Y-94346242D01*
X127629866Y-94286887D01*
X127694779Y-94249994D01*
X127775587Y-94239372D01*
X127849888Y-94258832D01*
X127889074Y-94297638D01*
X127904953Y-94349415D01*
X127870977Y-94380493D01*
X127850504Y-94388965D01*
X127778633Y-94416367D01*
X127676904Y-94455156D01*
X127619582Y-94477014D01*
X127493930Y-94544596D01*
X127427150Y-94631401D01*
X127416317Y-94742043D01*
X127424569Y-94784764D01*
X127477757Y-94876141D01*
X127575326Y-94941468D01*
X127701329Y-94974511D01*
X127839817Y-94969034D01*
X127874875Y-94960818D01*
X127965681Y-94917803D01*
X128048820Y-94851846D01*
X128049500Y-94851123D01*
X128127125Y-94768355D01*
X128052171Y-94707552D01*
X127977752Y-94656908D01*
X127936343Y-94656785D01*
X127921219Y-94708175D01*
X127920750Y-94726910D01*
X127893757Y-94800397D01*
X127824772Y-94844513D01*
X127731788Y-94850722D01*
X127685710Y-94838422D01*
X127600941Y-94790099D01*
X127576890Y-94736033D01*
X127611574Y-94680510D01*
X127703008Y-94627817D01*
X127798257Y-94595319D01*
X127948309Y-94537741D01*
X128040206Y-94463861D01*
X128078020Y-94370036D01*
X128079500Y-94343594D01*
X128050810Y-94255390D01*
X127974790Y-94185173D01*
X127866516Y-94139194D01*
X127741063Y-94123701D01*
X127613506Y-94144942D01*
X127613506Y-94144942D01*
G37*
X127613506Y-94144942D02*
X127606295Y-94147456D01*
X127504162Y-94198906D01*
X127456000Y-94257018D01*
X127465378Y-94315636D01*
X127492827Y-94343261D01*
X127562136Y-94385909D01*
X127596653Y-94379928D01*
X127603250Y-94346242D01*
X127629866Y-94286887D01*
X127694779Y-94249994D01*
X127775587Y-94239372D01*
X127849888Y-94258832D01*
X127889074Y-94297638D01*
X127904953Y-94349415D01*
X127870977Y-94380493D01*
X127850504Y-94388965D01*
X127778633Y-94416367D01*
X127676904Y-94455156D01*
X127619582Y-94477014D01*
X127493930Y-94544596D01*
X127427150Y-94631401D01*
X127416317Y-94742043D01*
X127424569Y-94784764D01*
X127477757Y-94876141D01*
X127575326Y-94941468D01*
X127701329Y-94974511D01*
X127839817Y-94969034D01*
X127874875Y-94960818D01*
X127965681Y-94917803D01*
X128048820Y-94851846D01*
X128049500Y-94851123D01*
X128127125Y-94768355D01*
X128052171Y-94707552D01*
X127977752Y-94656908D01*
X127936343Y-94656785D01*
X127921219Y-94708175D01*
X127920750Y-94726910D01*
X127893757Y-94800397D01*
X127824772Y-94844513D01*
X127731788Y-94850722D01*
X127685710Y-94838422D01*
X127600941Y-94790099D01*
X127576890Y-94736033D01*
X127611574Y-94680510D01*
X127703008Y-94627817D01*
X127798257Y-94595319D01*
X127948309Y-94537741D01*
X128040206Y-94463861D01*
X128078020Y-94370036D01*
X128079500Y-94343594D01*
X128050810Y-94255390D01*
X127974790Y-94185173D01*
X127866516Y-94139194D01*
X127741063Y-94123701D01*
X127613506Y-94144942D01*
G36*
X131927285Y-94145757D02*
G01*
X131894231Y-94169776D01*
X131918037Y-94215299D01*
X131953134Y-94249996D01*
X132003154Y-94318517D01*
X132044782Y-94413507D01*
X132050324Y-94432198D01*
X132069768Y-94586169D01*
X132040337Y-94708658D01*
X131965810Y-94793472D01*
X131849969Y-94834419D01*
X131803061Y-94837250D01*
X131699000Y-94837250D01*
X131699000Y-94519750D01*
X131702270Y-94360804D01*
X131711747Y-94254384D01*
X131726938Y-94205164D01*
X131732624Y-94202250D01*
X131751587Y-94182798D01*
X131746625Y-94170500D01*
X131707186Y-94150524D01*
X131636032Y-94140573D01*
X131557687Y-94140819D01*
X131496672Y-94151430D01*
X131476750Y-94168626D01*
X131499830Y-94211626D01*
X131508500Y-94218125D01*
X131522207Y-94256644D01*
X131532872Y-94344518D01*
X131539149Y-94467626D01*
X131540250Y-94551500D01*
X131537210Y-94688829D01*
X131528984Y-94799300D01*
X131516919Y-94868789D01*
X131508500Y-94884875D01*
X131477962Y-94925466D01*
X131476750Y-94934373D01*
X131505538Y-94948472D01*
X131580469Y-94957460D01*
X131684395Y-94961374D01*
X131800168Y-94960253D01*
X131910642Y-94954134D01*
X131998668Y-94943056D01*
X132035928Y-94933132D01*
X132145382Y-94857845D01*
X132211705Y-94744101D01*
X132232319Y-94602311D01*
X132204648Y-94442883D01*
X132175806Y-94368268D01*
X132142530Y-94277543D01*
X132129706Y-94205291D01*
X132132275Y-94185706D01*
X132130254Y-94155122D01*
X132085313Y-94141196D01*
X132019897Y-94138750D01*
X131927285Y-94145757D01*
X131927285Y-94145757D01*
G37*
X131927285Y-94145757D02*
X131894231Y-94169776D01*
X131918037Y-94215299D01*
X131953134Y-94249996D01*
X132003154Y-94318517D01*
X132044782Y-94413507D01*
X132050324Y-94432198D01*
X132069768Y-94586169D01*
X132040337Y-94708658D01*
X131965810Y-94793472D01*
X131849969Y-94834419D01*
X131803061Y-94837250D01*
X131699000Y-94837250D01*
X131699000Y-94519750D01*
X131702270Y-94360804D01*
X131711747Y-94254384D01*
X131726938Y-94205164D01*
X131732624Y-94202250D01*
X131751587Y-94182798D01*
X131746625Y-94170500D01*
X131707186Y-94150524D01*
X131636032Y-94140573D01*
X131557687Y-94140819D01*
X131496672Y-94151430D01*
X131476750Y-94168626D01*
X131499830Y-94211626D01*
X131508500Y-94218125D01*
X131522207Y-94256644D01*
X131532872Y-94344518D01*
X131539149Y-94467626D01*
X131540250Y-94551500D01*
X131537210Y-94688829D01*
X131528984Y-94799300D01*
X131516919Y-94868789D01*
X131508500Y-94884875D01*
X131477962Y-94925466D01*
X131476750Y-94934373D01*
X131505538Y-94948472D01*
X131580469Y-94957460D01*
X131684395Y-94961374D01*
X131800168Y-94960253D01*
X131910642Y-94954134D01*
X131998668Y-94943056D01*
X132035928Y-94933132D01*
X132145382Y-94857845D01*
X132211705Y-94744101D01*
X132232319Y-94602311D01*
X132204648Y-94442883D01*
X132175806Y-94368268D01*
X132142530Y-94277543D01*
X132129706Y-94205291D01*
X132132275Y-94185706D01*
X132130254Y-94155122D01*
X132085313Y-94141196D01*
X132019897Y-94138750D01*
X131927285Y-94145757D01*
G36*
X130698875Y-94964250D02*
G01*
X130802063Y-94964250D01*
X130878152Y-94953044D01*
X130905897Y-94924841D01*
X130877993Y-94887758D01*
X130873500Y-94884875D01*
X130838904Y-94832579D01*
X130859214Y-94751832D01*
X130934739Y-94641989D01*
X131048125Y-94519750D01*
X131254500Y-94315209D01*
X131254500Y-94590230D01*
X131250997Y-94717275D01*
X131241629Y-94818091D01*
X131228107Y-94877031D01*
X131222233Y-94885195D01*
X131201031Y-94918482D01*
X131230303Y-94948392D01*
X131297487Y-94963854D01*
X131311937Y-94964250D01*
X131397375Y-94964250D01*
X131397375Y-94138750D01*
X131286250Y-94138765D01*
X131217307Y-94146469D01*
X131157030Y-94177106D01*
X131087747Y-94241994D01*
X131038426Y-94297515D01*
X130964390Y-94378571D01*
X130904056Y-94435776D01*
X130871739Y-94456250D01*
X130851219Y-94429408D01*
X130842705Y-94366149D01*
X130846005Y-94292375D01*
X130860927Y-94233987D01*
X130873500Y-94218125D01*
X130905828Y-94180707D01*
X130881963Y-94151565D01*
X130809213Y-94138818D01*
X130802063Y-94138750D01*
X130698875Y-94138750D01*
X130698875Y-94964250D01*
X130698875Y-94964250D01*
G37*
X130698875Y-94964250D02*
X130802063Y-94964250D01*
X130878152Y-94953044D01*
X130905897Y-94924841D01*
X130877993Y-94887758D01*
X130873500Y-94884875D01*
X130838904Y-94832579D01*
X130859214Y-94751832D01*
X130934739Y-94641989D01*
X131048125Y-94519750D01*
X131254500Y-94315209D01*
X131254500Y-94590230D01*
X131250997Y-94717275D01*
X131241629Y-94818091D01*
X131228107Y-94877031D01*
X131222233Y-94885195D01*
X131201031Y-94918482D01*
X131230303Y-94948392D01*
X131297487Y-94963854D01*
X131311937Y-94964250D01*
X131397375Y-94964250D01*
X131397375Y-94138750D01*
X131286250Y-94138765D01*
X131217307Y-94146469D01*
X131157030Y-94177106D01*
X131087747Y-94241994D01*
X131038426Y-94297515D01*
X130964390Y-94378571D01*
X130904056Y-94435776D01*
X130871739Y-94456250D01*
X130851219Y-94429408D01*
X130842705Y-94366149D01*
X130846005Y-94292375D01*
X130860927Y-94233987D01*
X130873500Y-94218125D01*
X130905828Y-94180707D01*
X130881963Y-94151565D01*
X130809213Y-94138818D01*
X130802063Y-94138750D01*
X130698875Y-94138750D01*
X130698875Y-94964250D01*
G36*
X128936750Y-94234000D02*
G01*
X128945947Y-94300878D01*
X128968105Y-94329242D01*
X128968500Y-94329250D01*
X128999328Y-94305089D01*
X129000250Y-94297500D01*
X129029204Y-94280631D01*
X129104993Y-94269180D01*
X129192859Y-94265750D01*
X129298887Y-94266966D01*
X129355515Y-94275111D01*
X129376844Y-94296928D01*
X129376976Y-94339161D01*
X129375422Y-94353062D01*
X129357805Y-94414863D01*
X129310515Y-94442802D01*
X129258151Y-94450625D01*
X129175204Y-94448313D01*
X129119060Y-94428805D01*
X129116863Y-94426812D01*
X129057249Y-94392572D01*
X129015020Y-94416255D01*
X129000250Y-94486126D01*
X129011417Y-94562407D01*
X129038413Y-94602501D01*
X129071479Y-94594355D01*
X129079305Y-94583767D01*
X129120640Y-94564158D01*
X129201284Y-94552711D01*
X129240249Y-94551500D01*
X129381250Y-94551500D01*
X129381250Y-94837250D01*
X129192624Y-94837250D01*
X129088633Y-94832289D01*
X129012238Y-94819432D01*
X128984375Y-94805500D01*
X128946590Y-94773362D01*
X128916963Y-94797106D01*
X128905000Y-94869000D01*
X128905000Y-94964250D01*
X129236502Y-94964250D01*
X129415346Y-94959970D01*
X129534335Y-94947279D01*
X129592523Y-94926401D01*
X129588963Y-94897557D01*
X129572268Y-94885195D01*
X129558024Y-94846282D01*
X129547938Y-94760983D01*
X129542079Y-94646227D01*
X129540517Y-94518948D01*
X129543320Y-94396076D01*
X129550558Y-94294543D01*
X129562299Y-94231282D01*
X129569557Y-94219480D01*
X129591921Y-94214048D01*
X129614960Y-94232023D01*
X129642677Y-94281496D01*
X129679076Y-94370557D01*
X129728159Y-94507297D01*
X129764917Y-94614281D01*
X129815408Y-94759954D01*
X129852519Y-94855707D01*
X129882613Y-94911976D01*
X129912053Y-94939194D01*
X129947202Y-94947795D01*
X129968646Y-94948375D01*
X130007006Y-94945522D01*
X130037332Y-94930378D01*
X130065291Y-94893060D01*
X130096548Y-94823690D01*
X130136768Y-94712384D01*
X130183467Y-94573725D01*
X130239345Y-94415453D01*
X130287420Y-94297693D01*
X130324462Y-94227698D01*
X130344863Y-94211173D01*
X130362474Y-94246507D01*
X130376524Y-94328791D01*
X130386470Y-94441548D01*
X130391772Y-94568302D01*
X130391886Y-94692573D01*
X130386271Y-94797885D01*
X130374384Y-94867760D01*
X130366965Y-94883110D01*
X130349182Y-94928182D01*
X130355193Y-94943358D01*
X130402993Y-94959942D01*
X130479763Y-94963637D01*
X130555681Y-94955490D01*
X130600928Y-94936546D01*
X130602270Y-94934693D01*
X130598288Y-94893916D01*
X130588268Y-94885195D01*
X130574009Y-94846083D01*
X130563140Y-94756807D01*
X130556947Y-94630667D01*
X130556000Y-94551500D01*
X130559117Y-94410921D01*
X130567607Y-94299989D01*
X130580187Y-94232003D01*
X130588268Y-94217804D01*
X130614031Y-94185997D01*
X130580360Y-94161468D01*
X130491023Y-94145365D01*
X130349789Y-94138836D01*
X130328480Y-94138750D01*
X130201870Y-94140188D01*
X130127451Y-94146185D01*
X130093944Y-94159263D01*
X130090074Y-94181943D01*
X130093152Y-94191378D01*
X130092325Y-94241434D01*
X130075352Y-94331752D01*
X130047452Y-94442798D01*
X130013839Y-94555035D01*
X129979731Y-94648927D01*
X129959789Y-94690826D01*
X129942187Y-94680248D01*
X129913034Y-94623831D01*
X129877692Y-94536942D01*
X129841525Y-94434949D01*
X129809895Y-94333217D01*
X129788165Y-94247115D01*
X129781698Y-94192010D01*
X129783161Y-94184702D01*
X129781579Y-94166027D01*
X129754230Y-94153072D01*
X129692371Y-94144867D01*
X129587258Y-94140443D01*
X129430150Y-94138830D01*
X129368772Y-94138750D01*
X128936750Y-94138750D01*
X128936750Y-94234000D01*
X128936750Y-94234000D01*
G37*
X128936750Y-94234000D02*
X128945947Y-94300878D01*
X128968105Y-94329242D01*
X128968500Y-94329250D01*
X128999328Y-94305089D01*
X129000250Y-94297500D01*
X129029204Y-94280631D01*
X129104993Y-94269180D01*
X129192859Y-94265750D01*
X129298887Y-94266966D01*
X129355515Y-94275111D01*
X129376844Y-94296928D01*
X129376976Y-94339161D01*
X129375422Y-94353062D01*
X129357805Y-94414863D01*
X129310515Y-94442802D01*
X129258151Y-94450625D01*
X129175204Y-94448313D01*
X129119060Y-94428805D01*
X129116863Y-94426812D01*
X129057249Y-94392572D01*
X129015020Y-94416255D01*
X129000250Y-94486126D01*
X129011417Y-94562407D01*
X129038413Y-94602501D01*
X129071479Y-94594355D01*
X129079305Y-94583767D01*
X129120640Y-94564158D01*
X129201284Y-94552711D01*
X129240249Y-94551500D01*
X129381250Y-94551500D01*
X129381250Y-94837250D01*
X129192624Y-94837250D01*
X129088633Y-94832289D01*
X129012238Y-94819432D01*
X128984375Y-94805500D01*
X128946590Y-94773362D01*
X128916963Y-94797106D01*
X128905000Y-94869000D01*
X128905000Y-94964250D01*
X129236502Y-94964250D01*
X129415346Y-94959970D01*
X129534335Y-94947279D01*
X129592523Y-94926401D01*
X129588963Y-94897557D01*
X129572268Y-94885195D01*
X129558024Y-94846282D01*
X129547938Y-94760983D01*
X129542079Y-94646227D01*
X129540517Y-94518948D01*
X129543320Y-94396076D01*
X129550558Y-94294543D01*
X129562299Y-94231282D01*
X129569557Y-94219480D01*
X129591921Y-94214048D01*
X129614960Y-94232023D01*
X129642677Y-94281496D01*
X129679076Y-94370557D01*
X129728159Y-94507297D01*
X129764917Y-94614281D01*
X129815408Y-94759954D01*
X129852519Y-94855707D01*
X129882613Y-94911976D01*
X129912053Y-94939194D01*
X129947202Y-94947795D01*
X129968646Y-94948375D01*
X130007006Y-94945522D01*
X130037332Y-94930378D01*
X130065291Y-94893060D01*
X130096548Y-94823690D01*
X130136768Y-94712384D01*
X130183467Y-94573725D01*
X130239345Y-94415453D01*
X130287420Y-94297693D01*
X130324462Y-94227698D01*
X130344863Y-94211173D01*
X130362474Y-94246507D01*
X130376524Y-94328791D01*
X130386470Y-94441548D01*
X130391772Y-94568302D01*
X130391886Y-94692573D01*
X130386271Y-94797885D01*
X130374384Y-94867760D01*
X130366965Y-94883110D01*
X130349182Y-94928182D01*
X130355193Y-94943358D01*
X130402993Y-94959942D01*
X130479763Y-94963637D01*
X130555681Y-94955490D01*
X130600928Y-94936546D01*
X130602270Y-94934693D01*
X130598288Y-94893916D01*
X130588268Y-94885195D01*
X130574009Y-94846083D01*
X130563140Y-94756807D01*
X130556947Y-94630667D01*
X130556000Y-94551500D01*
X130559117Y-94410921D01*
X130567607Y-94299989D01*
X130580187Y-94232003D01*
X130588268Y-94217804D01*
X130614031Y-94185997D01*
X130580360Y-94161468D01*
X130491023Y-94145365D01*
X130349789Y-94138836D01*
X130328480Y-94138750D01*
X130201870Y-94140188D01*
X130127451Y-94146185D01*
X130093944Y-94159263D01*
X130090074Y-94181943D01*
X130093152Y-94191378D01*
X130092325Y-94241434D01*
X130075352Y-94331752D01*
X130047452Y-94442798D01*
X130013839Y-94555035D01*
X129979731Y-94648927D01*
X129959789Y-94690826D01*
X129942187Y-94680248D01*
X129913034Y-94623831D01*
X129877692Y-94536942D01*
X129841525Y-94434949D01*
X129809895Y-94333217D01*
X129788165Y-94247115D01*
X129781698Y-94192010D01*
X129783161Y-94184702D01*
X129781579Y-94166027D01*
X129754230Y-94153072D01*
X129692371Y-94144867D01*
X129587258Y-94140443D01*
X129430150Y-94138830D01*
X129368772Y-94138750D01*
X128936750Y-94138750D01*
X128936750Y-94234000D01*
G36*
X128564809Y-94143784D02*
G01*
X128411150Y-94154985D01*
X128308366Y-94177525D01*
X128244032Y-94217655D01*
X128205729Y-94281627D01*
X128190535Y-94332160D01*
X128189833Y-94407411D01*
X128232561Y-94486953D01*
X128254710Y-94514654D01*
X128339031Y-94614864D01*
X128241016Y-94774158D01*
X128188538Y-94861854D01*
X128152969Y-94925906D01*
X128143000Y-94948851D01*
X128170592Y-94959775D01*
X128235920Y-94964250D01*
X128292691Y-94956181D01*
X128339675Y-94923474D01*
X128390955Y-94853376D01*
X128428750Y-94789625D01*
X128501254Y-94678727D01*
X128561288Y-94623560D01*
X128593166Y-94615000D01*
X128634646Y-94623579D01*
X128648566Y-94660962D01*
X128643599Y-94734062D01*
X128627792Y-94828475D01*
X128607682Y-94902395D01*
X128605117Y-94908687D01*
X128598190Y-94944791D01*
X128628968Y-94960814D01*
X128703166Y-94964266D01*
X128825625Y-94964282D01*
X128825625Y-94491651D01*
X128651000Y-94491651D01*
X128516063Y-94481888D01*
X128431261Y-94472095D01*
X128392292Y-94449997D01*
X128381508Y-94401860D01*
X128381125Y-94376875D01*
X128386307Y-94316639D01*
X128413617Y-94287156D01*
X128480706Y-94274690D01*
X128516063Y-94271861D01*
X128651000Y-94262098D01*
X128651000Y-94491651D01*
X128825625Y-94491651D01*
X128825625Y-94132944D01*
X128564809Y-94143784D01*
X128564809Y-94143784D01*
G37*
X128564809Y-94143784D02*
X128411150Y-94154985D01*
X128308366Y-94177525D01*
X128244032Y-94217655D01*
X128205729Y-94281627D01*
X128190535Y-94332160D01*
X128189833Y-94407411D01*
X128232561Y-94486953D01*
X128254710Y-94514654D01*
X128339031Y-94614864D01*
X128241016Y-94774158D01*
X128188538Y-94861854D01*
X128152969Y-94925906D01*
X128143000Y-94948851D01*
X128170592Y-94959775D01*
X128235920Y-94964250D01*
X128292691Y-94956181D01*
X128339675Y-94923474D01*
X128390955Y-94853376D01*
X128428750Y-94789625D01*
X128501254Y-94678727D01*
X128561288Y-94623560D01*
X128593166Y-94615000D01*
X128634646Y-94623579D01*
X128648566Y-94660962D01*
X128643599Y-94734062D01*
X128627792Y-94828475D01*
X128607682Y-94902395D01*
X128605117Y-94908687D01*
X128598190Y-94944791D01*
X128628968Y-94960814D01*
X128703166Y-94964266D01*
X128825625Y-94964282D01*
X128825625Y-94491651D01*
X128651000Y-94491651D01*
X128516063Y-94481888D01*
X128431261Y-94472095D01*
X128392292Y-94449997D01*
X128381508Y-94401860D01*
X128381125Y-94376875D01*
X128386307Y-94316639D01*
X128413617Y-94287156D01*
X128480706Y-94274690D01*
X128516063Y-94271861D01*
X128651000Y-94262098D01*
X128651000Y-94491651D01*
X128825625Y-94491651D01*
X128825625Y-94132944D01*
X128564809Y-94143784D01*
G36*
X127101535Y-94148257D02*
G01*
X127063543Y-94173186D01*
X127080992Y-94208145D01*
X127095250Y-94218125D01*
X127108957Y-94256644D01*
X127119622Y-94344518D01*
X127125899Y-94467626D01*
X127127000Y-94551500D01*
X127123960Y-94688829D01*
X127115734Y-94799300D01*
X127103669Y-94868789D01*
X127095250Y-94884875D01*
X127064712Y-94925466D01*
X127063500Y-94934373D01*
X127090753Y-94953484D01*
X127156065Y-94962694D01*
X127234769Y-94961976D01*
X127302194Y-94951299D01*
X127332020Y-94934693D01*
X127328038Y-94893916D01*
X127318018Y-94885195D01*
X127303759Y-94846083D01*
X127292890Y-94756807D01*
X127286697Y-94630667D01*
X127285750Y-94551500D01*
X127288867Y-94410921D01*
X127297357Y-94299989D01*
X127309937Y-94232003D01*
X127318018Y-94217804D01*
X127341111Y-94185319D01*
X127310801Y-94157672D01*
X127237172Y-94141025D01*
X127188627Y-94138750D01*
X127101535Y-94148257D01*
X127101535Y-94148257D01*
G37*
X127101535Y-94148257D02*
X127063543Y-94173186D01*
X127080992Y-94208145D01*
X127095250Y-94218125D01*
X127108957Y-94256644D01*
X127119622Y-94344518D01*
X127125899Y-94467626D01*
X127127000Y-94551500D01*
X127123960Y-94688829D01*
X127115734Y-94799300D01*
X127103669Y-94868789D01*
X127095250Y-94884875D01*
X127064712Y-94925466D01*
X127063500Y-94934373D01*
X127090753Y-94953484D01*
X127156065Y-94962694D01*
X127234769Y-94961976D01*
X127302194Y-94951299D01*
X127332020Y-94934693D01*
X127328038Y-94893916D01*
X127318018Y-94885195D01*
X127303759Y-94846083D01*
X127292890Y-94756807D01*
X127286697Y-94630667D01*
X127285750Y-94551500D01*
X127288867Y-94410921D01*
X127297357Y-94299989D01*
X127309937Y-94232003D01*
X127318018Y-94217804D01*
X127341111Y-94185319D01*
X127310801Y-94157672D01*
X127237172Y-94141025D01*
X127188627Y-94138750D01*
X127101535Y-94148257D01*
G36*
X126583414Y-94156105D02*
G01*
X126429476Y-94209715D01*
X126316499Y-94301899D01*
X126307666Y-94312748D01*
X126232324Y-94453533D01*
X126219022Y-94601968D01*
X126258539Y-94732681D01*
X126337115Y-94843771D01*
X126449954Y-94916753D01*
X126605304Y-94955420D01*
X126761875Y-94964200D01*
X126984125Y-94964250D01*
X126984125Y-94265750D01*
X126777750Y-94265750D01*
X126777750Y-94837250D01*
X126665182Y-94837250D01*
X126543673Y-94810385D01*
X126474682Y-94759318D01*
X126413027Y-94658588D01*
X126401189Y-94544420D01*
X126432605Y-94432589D01*
X126500712Y-94338869D01*
X126598945Y-94279034D01*
X126680058Y-94265750D01*
X126777750Y-94265750D01*
X126984125Y-94265750D01*
X126984125Y-94138750D01*
X126784668Y-94138750D01*
X126583414Y-94156105D01*
X126583414Y-94156105D01*
G37*
X126583414Y-94156105D02*
X126429476Y-94209715D01*
X126316499Y-94301899D01*
X126307666Y-94312748D01*
X126232324Y-94453533D01*
X126219022Y-94601968D01*
X126258539Y-94732681D01*
X126337115Y-94843771D01*
X126449954Y-94916753D01*
X126605304Y-94955420D01*
X126761875Y-94964200D01*
X126984125Y-94964250D01*
X126984125Y-94265750D01*
X126777750Y-94265750D01*
X126777750Y-94837250D01*
X126665182Y-94837250D01*
X126543673Y-94810385D01*
X126474682Y-94759318D01*
X126413027Y-94658588D01*
X126401189Y-94544420D01*
X126432605Y-94432589D01*
X126500712Y-94338869D01*
X126598945Y-94279034D01*
X126680058Y-94265750D01*
X126777750Y-94265750D01*
X126984125Y-94265750D01*
X126984125Y-94138750D01*
X126784668Y-94138750D01*
X126583414Y-94156105D01*
G36*
X125794440Y-94142615D02*
G01*
X125763928Y-94160486D01*
X125733223Y-94201775D01*
X125696659Y-94275894D01*
X125648572Y-94392255D01*
X125594967Y-94529948D01*
X125539026Y-94676697D01*
X125492486Y-94801733D01*
X125459620Y-94893351D01*
X125444704Y-94939848D01*
X125444250Y-94942698D01*
X125472448Y-94956172D01*
X125542920Y-94963687D01*
X125571855Y-94964250D01*
X125652492Y-94961000D01*
X125684805Y-94944152D01*
X125683904Y-94903059D01*
X125680281Y-94887832D01*
X125677809Y-94783089D01*
X125727713Y-94712072D01*
X125825688Y-94679883D01*
X125857000Y-94678500D01*
X125966256Y-94700247D01*
X126028511Y-94762088D01*
X126039461Y-94858924D01*
X126033720Y-94887832D01*
X126027175Y-94938445D01*
X126052645Y-94959790D01*
X126125554Y-94964247D01*
X126128916Y-94964250D01*
X126200520Y-94958473D01*
X126232879Y-94944184D01*
X126232709Y-94940191D01*
X126217675Y-94903140D01*
X126184050Y-94818832D01*
X126136531Y-94699088D01*
X126079816Y-94555726D01*
X126068644Y-94527441D01*
X126066407Y-94521852D01*
X125934353Y-94521852D01*
X125918217Y-94547271D01*
X125857000Y-94551500D01*
X125795211Y-94547088D01*
X125779701Y-94521192D01*
X125798258Y-94456250D01*
X125828381Y-94390335D01*
X125855883Y-94361085D01*
X125857000Y-94361000D01*
X125883964Y-94387650D01*
X125914306Y-94452195D01*
X125915743Y-94456250D01*
X125934353Y-94521852D01*
X126066407Y-94521852D01*
X126005193Y-94368942D01*
X125958399Y-94260461D01*
X125922502Y-94192603D01*
X125891747Y-94155974D01*
X125860374Y-94141179D01*
X125830423Y-94138750D01*
X125794440Y-94142615D01*
X125794440Y-94142615D01*
G37*
X125794440Y-94142615D02*
X125763928Y-94160486D01*
X125733223Y-94201775D01*
X125696659Y-94275894D01*
X125648572Y-94392255D01*
X125594967Y-94529948D01*
X125539026Y-94676697D01*
X125492486Y-94801733D01*
X125459620Y-94893351D01*
X125444704Y-94939848D01*
X125444250Y-94942698D01*
X125472448Y-94956172D01*
X125542920Y-94963687D01*
X125571855Y-94964250D01*
X125652492Y-94961000D01*
X125684805Y-94944152D01*
X125683904Y-94903059D01*
X125680281Y-94887832D01*
X125677809Y-94783089D01*
X125727713Y-94712072D01*
X125825688Y-94679883D01*
X125857000Y-94678500D01*
X125966256Y-94700247D01*
X126028511Y-94762088D01*
X126039461Y-94858924D01*
X126033720Y-94887832D01*
X126027175Y-94938445D01*
X126052645Y-94959790D01*
X126125554Y-94964247D01*
X126128916Y-94964250D01*
X126200520Y-94958473D01*
X126232879Y-94944184D01*
X126232709Y-94940191D01*
X126217675Y-94903140D01*
X126184050Y-94818832D01*
X126136531Y-94699088D01*
X126079816Y-94555726D01*
X126068644Y-94527441D01*
X126066407Y-94521852D01*
X125934353Y-94521852D01*
X125918217Y-94547271D01*
X125857000Y-94551500D01*
X125795211Y-94547088D01*
X125779701Y-94521192D01*
X125798258Y-94456250D01*
X125828381Y-94390335D01*
X125855883Y-94361085D01*
X125857000Y-94361000D01*
X125883964Y-94387650D01*
X125914306Y-94452195D01*
X125915743Y-94456250D01*
X125934353Y-94521852D01*
X126066407Y-94521852D01*
X126005193Y-94368942D01*
X125958399Y-94260461D01*
X125922502Y-94192603D01*
X125891747Y-94155974D01*
X125860374Y-94141179D01*
X125830423Y-94138750D01*
X125794440Y-94142615D01*
G36*
X125190250Y-94138799D02*
G01*
X124984742Y-94159882D01*
X124824409Y-94221837D01*
X124711484Y-94322880D01*
X124648200Y-94461232D01*
X124634625Y-94582244D01*
X124658188Y-94729864D01*
X124730003Y-94840559D01*
X124851761Y-94915511D01*
X125025153Y-94955903D01*
X125181293Y-94964250D01*
X125396625Y-94964250D01*
X125396625Y-94265750D01*
X125190250Y-94265750D01*
X125190250Y-94837250D01*
X125083407Y-94837250D01*
X124976723Y-94815882D01*
X124892907Y-94771445D01*
X124826837Y-94684561D01*
X124807931Y-94578323D01*
X124830148Y-94468037D01*
X124887445Y-94369006D01*
X124973779Y-94296535D01*
X125083108Y-94265931D01*
X125092558Y-94265750D01*
X125190250Y-94265750D01*
X125396625Y-94265750D01*
X125396625Y-94138750D01*
X125190250Y-94138799D01*
X125190250Y-94138799D01*
G37*
X125190250Y-94138799D02*
X124984742Y-94159882D01*
X124824409Y-94221837D01*
X124711484Y-94322880D01*
X124648200Y-94461232D01*
X124634625Y-94582244D01*
X124658188Y-94729864D01*
X124730003Y-94840559D01*
X124851761Y-94915511D01*
X125025153Y-94955903D01*
X125181293Y-94964250D01*
X125396625Y-94964250D01*
X125396625Y-94265750D01*
X125190250Y-94265750D01*
X125190250Y-94837250D01*
X125083407Y-94837250D01*
X124976723Y-94815882D01*
X124892907Y-94771445D01*
X124826837Y-94684561D01*
X124807931Y-94578323D01*
X124830148Y-94468037D01*
X124887445Y-94369006D01*
X124973779Y-94296535D01*
X125083108Y-94265931D01*
X125092558Y-94265750D01*
X125190250Y-94265750D01*
X125396625Y-94265750D01*
X125396625Y-94138750D01*
X125190250Y-94138799D01*
G36*
X126841250Y-91409269D02*
G01*
X126841487Y-91735573D01*
X126842658Y-92004692D01*
X126845458Y-92222944D01*
X126850580Y-92396642D01*
X126858717Y-92532102D01*
X126870563Y-92635641D01*
X126886811Y-92713573D01*
X126908154Y-92772215D01*
X126935286Y-92817881D01*
X126968900Y-92856887D01*
X127003846Y-92890217D01*
X127074505Y-92944182D01*
X127189397Y-93019913D01*
X127336267Y-93110172D01*
X127502859Y-93207720D01*
X127676918Y-93305319D01*
X127846189Y-93395729D01*
X127941971Y-93444314D01*
X128077123Y-93516445D01*
X128206672Y-93594553D01*
X128307720Y-93664596D01*
X128328018Y-93681048D01*
X128400992Y-93741674D01*
X128451782Y-93780435D01*
X128465548Y-93788178D01*
X128493425Y-93768263D01*
X128552725Y-93718841D01*
X128595919Y-93681210D01*
X128700803Y-93600588D01*
X128822674Y-93523216D01*
X128865794Y-93499969D01*
X129031933Y-93413903D01*
X129210880Y-93316943D01*
X129391330Y-93215662D01*
X129561977Y-93116635D01*
X129711514Y-93026436D01*
X129828637Y-92951639D01*
X129902038Y-92898818D01*
X129907180Y-92894436D01*
X129983275Y-92807241D01*
X130038773Y-92707861D01*
X130047052Y-92683575D01*
X130055417Y-92621056D01*
X130062779Y-92500891D01*
X130068180Y-92351368D01*
X129862339Y-92351368D01*
X129860628Y-92477943D01*
X129854689Y-92565252D01*
X129843332Y-92625400D01*
X129825365Y-92670490D01*
X129809417Y-92697708D01*
X129767984Y-92735726D01*
X129681186Y-92797774D01*
X129559421Y-92877508D01*
X129413088Y-92968582D01*
X129252585Y-93064650D01*
X129088309Y-93159366D01*
X128930658Y-93246386D01*
X128793875Y-93317453D01*
X128635125Y-93396478D01*
X128626331Y-92920745D01*
X128624822Y-92753034D01*
X128626527Y-92608363D01*
X128631077Y-92498361D01*
X128638099Y-92434659D01*
X128642206Y-92423970D01*
X128681647Y-92409492D01*
X128769759Y-92386304D01*
X128892875Y-92357783D01*
X129016125Y-92331606D01*
X129252378Y-92278268D01*
X129434825Y-92224225D01*
X129573064Y-92165247D01*
X129676692Y-92097106D01*
X129755306Y-92015573D01*
X129766076Y-92001180D01*
X129857500Y-91874972D01*
X129861015Y-92173423D01*
X129862339Y-92351368D01*
X130068180Y-92351368D01*
X130068991Y-92328927D01*
X130073907Y-92111014D01*
X130077381Y-91852999D01*
X130079266Y-91560730D01*
X130079573Y-91384437D01*
X130079726Y-90360500D01*
X129857500Y-90360500D01*
X129857500Y-91608197D01*
X129711142Y-91786036D01*
X129599109Y-91911167D01*
X129495783Y-92006184D01*
X129411127Y-92062674D01*
X129369133Y-92074790D01*
X129355821Y-92047051D01*
X129355309Y-91976992D01*
X129359089Y-91941176D01*
X129368296Y-91892970D01*
X129174245Y-91892970D01*
X129169786Y-91968539D01*
X129166662Y-92001218D01*
X129152778Y-92133812D01*
X128925702Y-92170091D01*
X128809696Y-92189423D01*
X128717693Y-92206222D01*
X128668361Y-92217066D01*
X128666875Y-92217553D01*
X128629781Y-92230394D01*
X128627188Y-92231243D01*
X128621525Y-92205625D01*
X128620727Y-92183553D01*
X128301750Y-92183553D01*
X128301750Y-93409298D01*
X128072696Y-93293948D01*
X127950357Y-93229474D01*
X127795522Y-93143739D01*
X127629731Y-93048842D01*
X127500576Y-92972593D01*
X127364908Y-92888115D01*
X127246514Y-92808813D01*
X127157829Y-92743393D01*
X127111289Y-92700563D01*
X127110506Y-92699480D01*
X127090744Y-92655693D01*
X127077025Y-92583850D01*
X127068503Y-92474435D01*
X127064333Y-92317937D01*
X127063550Y-92171122D01*
X127063769Y-91992102D01*
X127065155Y-91869285D01*
X127068865Y-91795374D01*
X127076057Y-91763073D01*
X127087889Y-91765084D01*
X127105519Y-91794112D01*
X127119112Y-91820963D01*
X127177632Y-91905284D01*
X127248395Y-91966515D01*
X127258258Y-91971744D01*
X127318291Y-91991176D01*
X127427610Y-92018116D01*
X127572872Y-92049587D01*
X127740735Y-92082611D01*
X127821821Y-92097495D01*
X128301750Y-92183553D01*
X128620727Y-92183553D01*
X128619250Y-92142714D01*
X128623375Y-92098101D01*
X128643337Y-92063746D01*
X128690517Y-92031544D01*
X128720038Y-92018413D01*
X128296662Y-92018413D01*
X128275923Y-92038285D01*
X128262352Y-92034925D01*
X128211210Y-92021979D01*
X128116211Y-92003186D01*
X127996275Y-91982241D01*
X127974271Y-91978652D01*
X127730250Y-91939287D01*
X127730250Y-91909498D01*
X127571500Y-91909498D01*
X127442681Y-91876800D01*
X127378048Y-91856606D01*
X127329475Y-91826292D01*
X127285349Y-91772982D01*
X127234059Y-91683797D01*
X127188681Y-91595130D01*
X127063500Y-91346159D01*
X127063500Y-90360500D01*
X127316035Y-90360500D01*
X127333375Y-91487568D01*
X127452352Y-91551096D01*
X127525660Y-91595631D01*
X127560398Y-91642135D01*
X127570840Y-91715900D01*
X127571415Y-91762061D01*
X127571500Y-91909498D01*
X127730250Y-91909498D01*
X127730250Y-91816643D01*
X127736117Y-91738722D01*
X127750715Y-91696489D01*
X127755842Y-91694000D01*
X127796300Y-91702495D01*
X127881432Y-91725095D01*
X127995147Y-91757465D01*
X128033654Y-91768798D01*
X128157483Y-91806776D01*
X128232985Y-91836217D01*
X128272945Y-91865834D01*
X128290147Y-91904342D01*
X128296145Y-91947714D01*
X128296662Y-92018413D01*
X128720038Y-92018413D01*
X128776297Y-91993389D01*
X128891230Y-91949027D01*
X129011131Y-91905234D01*
X129106062Y-91873321D01*
X129162397Y-91857732D01*
X129171878Y-91857500D01*
X129174245Y-91892970D01*
X129368296Y-91892970D01*
X129374828Y-91858778D01*
X129404549Y-91801058D01*
X129462420Y-91750925D01*
X129562610Y-91691292D01*
X129569373Y-91687539D01*
X129667000Y-91633453D01*
X129667000Y-90461274D01*
X129536433Y-90461274D01*
X129535341Y-90577840D01*
X129532175Y-90723156D01*
X129527342Y-90885667D01*
X129521252Y-91053820D01*
X129514313Y-91216058D01*
X129506934Y-91360827D01*
X129499524Y-91476574D01*
X129492491Y-91551742D01*
X129487816Y-91574377D01*
X129452253Y-91600136D01*
X129423040Y-91573108D01*
X129413000Y-91515362D01*
X129416072Y-91441527D01*
X129424452Y-91325828D01*
X129436890Y-91180525D01*
X129452137Y-91017878D01*
X129468943Y-90850147D01*
X129486056Y-90689592D01*
X129502227Y-90548474D01*
X129514607Y-90451561D01*
X129377870Y-90451561D01*
X129372986Y-90536868D01*
X129359122Y-90663552D01*
X129336456Y-90839794D01*
X129317597Y-90981002D01*
X129287759Y-91203948D01*
X129264555Y-91372302D01*
X129245709Y-91494341D01*
X129228944Y-91578343D01*
X129211985Y-91632587D01*
X129192556Y-91665352D01*
X129168380Y-91684915D01*
X129137182Y-91699556D01*
X129117774Y-91707822D01*
X129036341Y-91741175D01*
X128983933Y-91749612D01*
X128954155Y-91724503D01*
X128940612Y-91657218D01*
X128936910Y-91539126D01*
X128936877Y-91523156D01*
X128809750Y-91523156D01*
X128808738Y-91663538D01*
X128803799Y-91753538D01*
X128792085Y-91806261D01*
X128770747Y-91834817D01*
X128738313Y-91851760D01*
X128673643Y-91874912D01*
X128643063Y-91882487D01*
X128632729Y-91853983D01*
X128624658Y-91775813D01*
X128619975Y-91661798D01*
X128619250Y-91589835D01*
X128619250Y-91360625D01*
X128301750Y-91360625D01*
X128301077Y-91509112D01*
X128297520Y-91605382D01*
X128288775Y-91660716D01*
X128272539Y-91686394D01*
X128246507Y-91693696D01*
X128233659Y-91694000D01*
X128198011Y-91690044D01*
X128179614Y-91668891D01*
X128175358Y-91616614D01*
X128182134Y-91519285D01*
X128185809Y-91479687D01*
X128196559Y-91348046D01*
X128203986Y-91223141D01*
X128206275Y-91146312D01*
X128210519Y-91106819D01*
X128047750Y-91106819D01*
X128044028Y-91216908D01*
X128034284Y-91337179D01*
X128020656Y-91451029D01*
X128005278Y-91541855D01*
X127990288Y-91593053D01*
X127984465Y-91598750D01*
X127941331Y-91589191D01*
X127868382Y-91566120D01*
X127866218Y-91565368D01*
X127808471Y-91538451D01*
X127776078Y-91496376D01*
X127757614Y-91419528D01*
X127750631Y-91366930D01*
X127743004Y-91271080D01*
X127736690Y-91130281D01*
X127732323Y-90963080D01*
X127730537Y-90788024D01*
X127730526Y-90778859D01*
X127731074Y-90607620D01*
X127733835Y-90490279D01*
X127740097Y-90417242D01*
X127751146Y-90378915D01*
X127768269Y-90365701D01*
X127785813Y-90366489D01*
X127814565Y-90383495D01*
X127836315Y-90429311D01*
X127854457Y-90515325D01*
X127872383Y-90652921D01*
X127873125Y-90659494D01*
X127890428Y-90797248D01*
X127907689Y-90885127D01*
X127929334Y-90936597D01*
X127959787Y-90965127D01*
X127976313Y-90973529D01*
X128031131Y-91019708D01*
X128047731Y-91102740D01*
X128047750Y-91106819D01*
X128210519Y-91106819D01*
X128215449Y-91060951D01*
X128244844Y-91028237D01*
X128254125Y-91027250D01*
X128275874Y-91037470D01*
X128290021Y-91074965D01*
X128298033Y-91149986D01*
X128301374Y-91272784D01*
X128301750Y-91360625D01*
X128619250Y-91360625D01*
X128619250Y-91295171D01*
X128809750Y-91223265D01*
X128809750Y-91523156D01*
X128936877Y-91523156D01*
X128936750Y-91463512D01*
X128938375Y-91321692D01*
X128944884Y-91229879D01*
X128958732Y-91174628D01*
X128982370Y-91142492D01*
X128997283Y-91131721D01*
X129034588Y-91086884D01*
X129071684Y-90995489D01*
X129111183Y-90850494D01*
X129126726Y-90782771D01*
X129164232Y-90613977D01*
X129191689Y-90497434D01*
X129213155Y-90423477D01*
X129220571Y-90407896D01*
X129086299Y-90407896D01*
X129084288Y-90416062D01*
X129070089Y-90472518D01*
X129046584Y-90571444D01*
X129018391Y-90693352D01*
X129012844Y-90717687D01*
X128985589Y-90832403D01*
X128962886Y-90918588D01*
X128948693Y-90961497D01*
X128946820Y-90963750D01*
X128942493Y-90934299D01*
X128939097Y-90855140D01*
X128937094Y-90740065D01*
X128936750Y-90662125D01*
X128936750Y-90360500D01*
X128809750Y-90360500D01*
X128809750Y-90722979D01*
X128808576Y-90886266D01*
X128802655Y-90996643D01*
X128788391Y-91064688D01*
X128762191Y-91100979D01*
X128720457Y-91116096D01*
X128674813Y-91119993D01*
X128651244Y-91115336D01*
X128635420Y-91091999D01*
X128625832Y-91039717D01*
X128620975Y-90948222D01*
X128619340Y-90807249D01*
X128619250Y-90741500D01*
X128619250Y-90606562D01*
X128298191Y-90606562D01*
X128297942Y-90738823D01*
X128291522Y-90819029D01*
X128277031Y-90858479D01*
X128254125Y-90868500D01*
X128213090Y-90847349D01*
X128208452Y-90828812D01*
X128215047Y-90779376D01*
X128230523Y-90687181D01*
X128251586Y-90571792D01*
X128252517Y-90566875D01*
X128291622Y-90360500D01*
X128128253Y-90360500D01*
X128098168Y-90614500D01*
X128081462Y-90732218D01*
X128063609Y-90820969D01*
X128047789Y-90865830D01*
X128043987Y-90868500D01*
X128026341Y-90840113D01*
X128008449Y-90767874D01*
X128000674Y-90717687D01*
X127985216Y-90601134D01*
X127969772Y-90491842D01*
X127965540Y-90463687D01*
X127959729Y-90393220D01*
X127981782Y-90365290D01*
X128038938Y-90360500D01*
X127571500Y-90360500D01*
X127571500Y-90900250D01*
X127570501Y-91077376D01*
X127567732Y-91230083D01*
X127563535Y-91348060D01*
X127558255Y-91421000D01*
X127553538Y-91440000D01*
X127514200Y-91426665D01*
X127474163Y-91407132D01*
X127451060Y-91390406D01*
X127434586Y-91362403D01*
X127423631Y-91313378D01*
X127417089Y-91233588D01*
X127413849Y-91113288D01*
X127412803Y-90942734D01*
X127412750Y-90867382D01*
X127412750Y-90360500D01*
X127571500Y-90360500D01*
X128038938Y-90360500D01*
X128128253Y-90360500D01*
X128291622Y-90360500D01*
X128294631Y-90344625D01*
X128298191Y-90606562D01*
X128619250Y-90606562D01*
X128619250Y-90360500D01*
X128809750Y-90360500D01*
X128936750Y-90360500D01*
X129018265Y-90360500D01*
X129076931Y-90370683D01*
X129086299Y-90407896D01*
X129220571Y-90407896D01*
X129232687Y-90382444D01*
X129254341Y-90364672D01*
X129282175Y-90360497D01*
X129304015Y-90360500D01*
X129336845Y-90362101D01*
X129359978Y-90372358D01*
X129373594Y-90399451D01*
X129377870Y-90451561D01*
X129514607Y-90451561D01*
X129516206Y-90439051D01*
X129526741Y-90373585D01*
X129530756Y-90360610D01*
X129535041Y-90385012D01*
X129536433Y-90461274D01*
X129667000Y-90461274D01*
X129667000Y-90360500D01*
X129857500Y-90360500D01*
X130079726Y-90360500D01*
X130079750Y-90201750D01*
X126841250Y-90201750D01*
X126841250Y-91409269D01*
X126841250Y-91409269D01*
G37*
X126841250Y-91409269D02*
X126841487Y-91735573D01*
X126842658Y-92004692D01*
X126845458Y-92222944D01*
X126850580Y-92396642D01*
X126858717Y-92532102D01*
X126870563Y-92635641D01*
X126886811Y-92713573D01*
X126908154Y-92772215D01*
X126935286Y-92817881D01*
X126968900Y-92856887D01*
X127003846Y-92890217D01*
X127074505Y-92944182D01*
X127189397Y-93019913D01*
X127336267Y-93110172D01*
X127502859Y-93207720D01*
X127676918Y-93305319D01*
X127846189Y-93395729D01*
X127941971Y-93444314D01*
X128077123Y-93516445D01*
X128206672Y-93594553D01*
X128307720Y-93664596D01*
X128328018Y-93681048D01*
X128400992Y-93741674D01*
X128451782Y-93780435D01*
X128465548Y-93788178D01*
X128493425Y-93768263D01*
X128552725Y-93718841D01*
X128595919Y-93681210D01*
X128700803Y-93600588D01*
X128822674Y-93523216D01*
X128865794Y-93499969D01*
X129031933Y-93413903D01*
X129210880Y-93316943D01*
X129391330Y-93215662D01*
X129561977Y-93116635D01*
X129711514Y-93026436D01*
X129828637Y-92951639D01*
X129902038Y-92898818D01*
X129907180Y-92894436D01*
X129983275Y-92807241D01*
X130038773Y-92707861D01*
X130047052Y-92683575D01*
X130055417Y-92621056D01*
X130062779Y-92500891D01*
X130068180Y-92351368D01*
X129862339Y-92351368D01*
X129860628Y-92477943D01*
X129854689Y-92565252D01*
X129843332Y-92625400D01*
X129825365Y-92670490D01*
X129809417Y-92697708D01*
X129767984Y-92735726D01*
X129681186Y-92797774D01*
X129559421Y-92877508D01*
X129413088Y-92968582D01*
X129252585Y-93064650D01*
X129088309Y-93159366D01*
X128930658Y-93246386D01*
X128793875Y-93317453D01*
X128635125Y-93396478D01*
X128626331Y-92920745D01*
X128624822Y-92753034D01*
X128626527Y-92608363D01*
X128631077Y-92498361D01*
X128638099Y-92434659D01*
X128642206Y-92423970D01*
X128681647Y-92409492D01*
X128769759Y-92386304D01*
X128892875Y-92357783D01*
X129016125Y-92331606D01*
X129252378Y-92278268D01*
X129434825Y-92224225D01*
X129573064Y-92165247D01*
X129676692Y-92097106D01*
X129755306Y-92015573D01*
X129766076Y-92001180D01*
X129857500Y-91874972D01*
X129861015Y-92173423D01*
X129862339Y-92351368D01*
X130068180Y-92351368D01*
X130068991Y-92328927D01*
X130073907Y-92111014D01*
X130077381Y-91852999D01*
X130079266Y-91560730D01*
X130079573Y-91384437D01*
X130079726Y-90360500D01*
X129857500Y-90360500D01*
X129857500Y-91608197D01*
X129711142Y-91786036D01*
X129599109Y-91911167D01*
X129495783Y-92006184D01*
X129411127Y-92062674D01*
X129369133Y-92074790D01*
X129355821Y-92047051D01*
X129355309Y-91976992D01*
X129359089Y-91941176D01*
X129368296Y-91892970D01*
X129174245Y-91892970D01*
X129169786Y-91968539D01*
X129166662Y-92001218D01*
X129152778Y-92133812D01*
X128925702Y-92170091D01*
X128809696Y-92189423D01*
X128717693Y-92206222D01*
X128668361Y-92217066D01*
X128666875Y-92217553D01*
X128629781Y-92230394D01*
X128627188Y-92231243D01*
X128621525Y-92205625D01*
X128620727Y-92183553D01*
X128301750Y-92183553D01*
X128301750Y-93409298D01*
X128072696Y-93293948D01*
X127950357Y-93229474D01*
X127795522Y-93143739D01*
X127629731Y-93048842D01*
X127500576Y-92972593D01*
X127364908Y-92888115D01*
X127246514Y-92808813D01*
X127157829Y-92743393D01*
X127111289Y-92700563D01*
X127110506Y-92699480D01*
X127090744Y-92655693D01*
X127077025Y-92583850D01*
X127068503Y-92474435D01*
X127064333Y-92317937D01*
X127063550Y-92171122D01*
X127063769Y-91992102D01*
X127065155Y-91869285D01*
X127068865Y-91795374D01*
X127076057Y-91763073D01*
X127087889Y-91765084D01*
X127105519Y-91794112D01*
X127119112Y-91820963D01*
X127177632Y-91905284D01*
X127248395Y-91966515D01*
X127258258Y-91971744D01*
X127318291Y-91991176D01*
X127427610Y-92018116D01*
X127572872Y-92049587D01*
X127740735Y-92082611D01*
X127821821Y-92097495D01*
X128301750Y-92183553D01*
X128620727Y-92183553D01*
X128619250Y-92142714D01*
X128623375Y-92098101D01*
X128643337Y-92063746D01*
X128690517Y-92031544D01*
X128720038Y-92018413D01*
X128296662Y-92018413D01*
X128275923Y-92038285D01*
X128262352Y-92034925D01*
X128211210Y-92021979D01*
X128116211Y-92003186D01*
X127996275Y-91982241D01*
X127974271Y-91978652D01*
X127730250Y-91939287D01*
X127730250Y-91909498D01*
X127571500Y-91909498D01*
X127442681Y-91876800D01*
X127378048Y-91856606D01*
X127329475Y-91826292D01*
X127285349Y-91772982D01*
X127234059Y-91683797D01*
X127188681Y-91595130D01*
X127063500Y-91346159D01*
X127063500Y-90360500D01*
X127316035Y-90360500D01*
X127333375Y-91487568D01*
X127452352Y-91551096D01*
X127525660Y-91595631D01*
X127560398Y-91642135D01*
X127570840Y-91715900D01*
X127571415Y-91762061D01*
X127571500Y-91909498D01*
X127730250Y-91909498D01*
X127730250Y-91816643D01*
X127736117Y-91738722D01*
X127750715Y-91696489D01*
X127755842Y-91694000D01*
X127796300Y-91702495D01*
X127881432Y-91725095D01*
X127995147Y-91757465D01*
X128033654Y-91768798D01*
X128157483Y-91806776D01*
X128232985Y-91836217D01*
X128272945Y-91865834D01*
X128290147Y-91904342D01*
X128296145Y-91947714D01*
X128296662Y-92018413D01*
X128720038Y-92018413D01*
X128776297Y-91993389D01*
X128891230Y-91949027D01*
X129011131Y-91905234D01*
X129106062Y-91873321D01*
X129162397Y-91857732D01*
X129171878Y-91857500D01*
X129174245Y-91892970D01*
X129368296Y-91892970D01*
X129374828Y-91858778D01*
X129404549Y-91801058D01*
X129462420Y-91750925D01*
X129562610Y-91691292D01*
X129569373Y-91687539D01*
X129667000Y-91633453D01*
X129667000Y-90461274D01*
X129536433Y-90461274D01*
X129535341Y-90577840D01*
X129532175Y-90723156D01*
X129527342Y-90885667D01*
X129521252Y-91053820D01*
X129514313Y-91216058D01*
X129506934Y-91360827D01*
X129499524Y-91476574D01*
X129492491Y-91551742D01*
X129487816Y-91574377D01*
X129452253Y-91600136D01*
X129423040Y-91573108D01*
X129413000Y-91515362D01*
X129416072Y-91441527D01*
X129424452Y-91325828D01*
X129436890Y-91180525D01*
X129452137Y-91017878D01*
X129468943Y-90850147D01*
X129486056Y-90689592D01*
X129502227Y-90548474D01*
X129514607Y-90451561D01*
X129377870Y-90451561D01*
X129372986Y-90536868D01*
X129359122Y-90663552D01*
X129336456Y-90839794D01*
X129317597Y-90981002D01*
X129287759Y-91203948D01*
X129264555Y-91372302D01*
X129245709Y-91494341D01*
X129228944Y-91578343D01*
X129211985Y-91632587D01*
X129192556Y-91665352D01*
X129168380Y-91684915D01*
X129137182Y-91699556D01*
X129117774Y-91707822D01*
X129036341Y-91741175D01*
X128983933Y-91749612D01*
X128954155Y-91724503D01*
X128940612Y-91657218D01*
X128936910Y-91539126D01*
X128936877Y-91523156D01*
X128809750Y-91523156D01*
X128808738Y-91663538D01*
X128803799Y-91753538D01*
X128792085Y-91806261D01*
X128770747Y-91834817D01*
X128738313Y-91851760D01*
X128673643Y-91874912D01*
X128643063Y-91882487D01*
X128632729Y-91853983D01*
X128624658Y-91775813D01*
X128619975Y-91661798D01*
X128619250Y-91589835D01*
X128619250Y-91360625D01*
X128301750Y-91360625D01*
X128301077Y-91509112D01*
X128297520Y-91605382D01*
X128288775Y-91660716D01*
X128272539Y-91686394D01*
X128246507Y-91693696D01*
X128233659Y-91694000D01*
X128198011Y-91690044D01*
X128179614Y-91668891D01*
X128175358Y-91616614D01*
X128182134Y-91519285D01*
X128185809Y-91479687D01*
X128196559Y-91348046D01*
X128203986Y-91223141D01*
X128206275Y-91146312D01*
X128210519Y-91106819D01*
X128047750Y-91106819D01*
X128044028Y-91216908D01*
X128034284Y-91337179D01*
X128020656Y-91451029D01*
X128005278Y-91541855D01*
X127990288Y-91593053D01*
X127984465Y-91598750D01*
X127941331Y-91589191D01*
X127868382Y-91566120D01*
X127866218Y-91565368D01*
X127808471Y-91538451D01*
X127776078Y-91496376D01*
X127757614Y-91419528D01*
X127750631Y-91366930D01*
X127743004Y-91271080D01*
X127736690Y-91130281D01*
X127732323Y-90963080D01*
X127730537Y-90788024D01*
X127730526Y-90778859D01*
X127731074Y-90607620D01*
X127733835Y-90490279D01*
X127740097Y-90417242D01*
X127751146Y-90378915D01*
X127768269Y-90365701D01*
X127785813Y-90366489D01*
X127814565Y-90383495D01*
X127836315Y-90429311D01*
X127854457Y-90515325D01*
X127872383Y-90652921D01*
X127873125Y-90659494D01*
X127890428Y-90797248D01*
X127907689Y-90885127D01*
X127929334Y-90936597D01*
X127959787Y-90965127D01*
X127976313Y-90973529D01*
X128031131Y-91019708D01*
X128047731Y-91102740D01*
X128047750Y-91106819D01*
X128210519Y-91106819D01*
X128215449Y-91060951D01*
X128244844Y-91028237D01*
X128254125Y-91027250D01*
X128275874Y-91037470D01*
X128290021Y-91074965D01*
X128298033Y-91149986D01*
X128301374Y-91272784D01*
X128301750Y-91360625D01*
X128619250Y-91360625D01*
X128619250Y-91295171D01*
X128809750Y-91223265D01*
X128809750Y-91523156D01*
X128936877Y-91523156D01*
X128936750Y-91463512D01*
X128938375Y-91321692D01*
X128944884Y-91229879D01*
X128958732Y-91174628D01*
X128982370Y-91142492D01*
X128997283Y-91131721D01*
X129034588Y-91086884D01*
X129071684Y-90995489D01*
X129111183Y-90850494D01*
X129126726Y-90782771D01*
X129164232Y-90613977D01*
X129191689Y-90497434D01*
X129213155Y-90423477D01*
X129220571Y-90407896D01*
X129086299Y-90407896D01*
X129084288Y-90416062D01*
X129070089Y-90472518D01*
X129046584Y-90571444D01*
X129018391Y-90693352D01*
X129012844Y-90717687D01*
X128985589Y-90832403D01*
X128962886Y-90918588D01*
X128948693Y-90961497D01*
X128946820Y-90963750D01*
X128942493Y-90934299D01*
X128939097Y-90855140D01*
X128937094Y-90740065D01*
X128936750Y-90662125D01*
X128936750Y-90360500D01*
X128809750Y-90360500D01*
X128809750Y-90722979D01*
X128808576Y-90886266D01*
X128802655Y-90996643D01*
X128788391Y-91064688D01*
X128762191Y-91100979D01*
X128720457Y-91116096D01*
X128674813Y-91119993D01*
X128651244Y-91115336D01*
X128635420Y-91091999D01*
X128625832Y-91039717D01*
X128620975Y-90948222D01*
X128619340Y-90807249D01*
X128619250Y-90741500D01*
X128619250Y-90606562D01*
X128298191Y-90606562D01*
X128297942Y-90738823D01*
X128291522Y-90819029D01*
X128277031Y-90858479D01*
X128254125Y-90868500D01*
X128213090Y-90847349D01*
X128208452Y-90828812D01*
X128215047Y-90779376D01*
X128230523Y-90687181D01*
X128251586Y-90571792D01*
X128252517Y-90566875D01*
X128291622Y-90360500D01*
X128128253Y-90360500D01*
X128098168Y-90614500D01*
X128081462Y-90732218D01*
X128063609Y-90820969D01*
X128047789Y-90865830D01*
X128043987Y-90868500D01*
X128026341Y-90840113D01*
X128008449Y-90767874D01*
X128000674Y-90717687D01*
X127985216Y-90601134D01*
X127969772Y-90491842D01*
X127965540Y-90463687D01*
X127959729Y-90393220D01*
X127981782Y-90365290D01*
X128038938Y-90360500D01*
X127571500Y-90360500D01*
X127571500Y-90900250D01*
X127570501Y-91077376D01*
X127567732Y-91230083D01*
X127563535Y-91348060D01*
X127558255Y-91421000D01*
X127553538Y-91440000D01*
X127514200Y-91426665D01*
X127474163Y-91407132D01*
X127451060Y-91390406D01*
X127434586Y-91362403D01*
X127423631Y-91313378D01*
X127417089Y-91233588D01*
X127413849Y-91113288D01*
X127412803Y-90942734D01*
X127412750Y-90867382D01*
X127412750Y-90360500D01*
X127571500Y-90360500D01*
X128038938Y-90360500D01*
X128128253Y-90360500D01*
X128291622Y-90360500D01*
X128294631Y-90344625D01*
X128298191Y-90606562D01*
X128619250Y-90606562D01*
X128619250Y-90360500D01*
X128809750Y-90360500D01*
X128936750Y-90360500D01*
X129018265Y-90360500D01*
X129076931Y-90370683D01*
X129086299Y-90407896D01*
X129220571Y-90407896D01*
X129232687Y-90382444D01*
X129254341Y-90364672D01*
X129282175Y-90360497D01*
X129304015Y-90360500D01*
X129336845Y-90362101D01*
X129359978Y-90372358D01*
X129373594Y-90399451D01*
X129377870Y-90451561D01*
X129514607Y-90451561D01*
X129516206Y-90439051D01*
X129526741Y-90373585D01*
X129530756Y-90360610D01*
X129535041Y-90385012D01*
X129536433Y-90461274D01*
X129667000Y-90461274D01*
X129667000Y-90360500D01*
X129857500Y-90360500D01*
X130079726Y-90360500D01*
X130079750Y-90201750D01*
X126841250Y-90201750D01*
X126841250Y-91409269D01*
G36*
X132516563Y-85570473D02*
G01*
X131994919Y-85571328D01*
X131510469Y-85572587D01*
X131065656Y-85574227D01*
X130662920Y-85576226D01*
X130304707Y-85578559D01*
X129993456Y-85581205D01*
X129731612Y-85584140D01*
X129521617Y-85587341D01*
X129365913Y-85590785D01*
X129266942Y-85594449D01*
X129227147Y-85598309D01*
X129238375Y-85601403D01*
X129909150Y-85703841D01*
X130571430Y-85869203D01*
X131225179Y-86097478D01*
X131778375Y-86343040D01*
X132387944Y-86675483D01*
X132959421Y-87058699D01*
X133492417Y-87492365D01*
X133986539Y-87976157D01*
X134441394Y-88509749D01*
X134521473Y-88614250D01*
X134909873Y-89181594D01*
X135241700Y-89777696D01*
X135516847Y-90402255D01*
X135735204Y-91054974D01*
X135896663Y-91735554D01*
X136001115Y-92443697D01*
X136027423Y-92741750D01*
X136028796Y-92729444D01*
X136030209Y-92657394D01*
X136031644Y-92529356D01*
X136033085Y-92349085D01*
X136034515Y-92120339D01*
X136035917Y-91846872D01*
X136037274Y-91532441D01*
X136038569Y-91180801D01*
X136039786Y-90795708D01*
X136040908Y-90380919D01*
X136041917Y-89940189D01*
X136042797Y-89477274D01*
X136043204Y-89225437D01*
X136048750Y-85566250D01*
X132516563Y-85570473D01*
X132516563Y-85570473D01*
G37*
X132516563Y-85570473D02*
X131994919Y-85571328D01*
X131510469Y-85572587D01*
X131065656Y-85574227D01*
X130662920Y-85576226D01*
X130304707Y-85578559D01*
X129993456Y-85581205D01*
X129731612Y-85584140D01*
X129521617Y-85587341D01*
X129365913Y-85590785D01*
X129266942Y-85594449D01*
X129227147Y-85598309D01*
X129238375Y-85601403D01*
X129909150Y-85703841D01*
X130571430Y-85869203D01*
X131225179Y-86097478D01*
X131778375Y-86343040D01*
X132387944Y-86675483D01*
X132959421Y-87058699D01*
X133492417Y-87492365D01*
X133986539Y-87976157D01*
X134441394Y-88509749D01*
X134521473Y-88614250D01*
X134909873Y-89181594D01*
X135241700Y-89777696D01*
X135516847Y-90402255D01*
X135735204Y-91054974D01*
X135896663Y-91735554D01*
X136001115Y-92443697D01*
X136027423Y-92741750D01*
X136028796Y-92729444D01*
X136030209Y-92657394D01*
X136031644Y-92529356D01*
X136033085Y-92349085D01*
X136034515Y-92120339D01*
X136035917Y-91846872D01*
X136037274Y-91532441D01*
X136038569Y-91180801D01*
X136039786Y-90795708D01*
X136040908Y-90380919D01*
X136041917Y-89940189D01*
X136042797Y-89477274D01*
X136043204Y-89225437D01*
X136048750Y-85566250D01*
X132516563Y-85570473D01*
G36*
X120840500Y-89201625D02*
G01*
X120840636Y-89676369D01*
X120841032Y-90133030D01*
X120841670Y-90567636D01*
X120842534Y-90976212D01*
X120843605Y-91354788D01*
X120844867Y-91699390D01*
X120846302Y-92006047D01*
X120847894Y-92270785D01*
X120849623Y-92489632D01*
X120851474Y-92658616D01*
X120853429Y-92773765D01*
X120855470Y-92831105D01*
X120856375Y-92837000D01*
X120864929Y-92808209D01*
X120870751Y-92733651D01*
X120872397Y-92654437D01*
X120877238Y-92551120D01*
X120890312Y-92404603D01*
X120909628Y-92234357D01*
X120933193Y-92059853D01*
X120933301Y-92059125D01*
X121065134Y-91379066D01*
X121256896Y-90718097D01*
X121507049Y-90079367D01*
X121814055Y-89466025D01*
X122176377Y-88881219D01*
X122592476Y-88328098D01*
X122955410Y-87918546D01*
X123446469Y-87447738D01*
X123978203Y-87023710D01*
X124545920Y-86648817D01*
X125144926Y-86325411D01*
X125770528Y-86055845D01*
X126418034Y-85842471D01*
X127082750Y-85687642D01*
X127547935Y-85616301D01*
X127598529Y-85609568D01*
X127631027Y-85603549D01*
X127642453Y-85598200D01*
X127629831Y-85593479D01*
X127590186Y-85589340D01*
X127520540Y-85585741D01*
X127417918Y-85582638D01*
X127279343Y-85579986D01*
X127101840Y-85577743D01*
X126882433Y-85575864D01*
X126618145Y-85574307D01*
X126305999Y-85573026D01*
X125943022Y-85571979D01*
X125526235Y-85571121D01*
X125052662Y-85570409D01*
X124519329Y-85569800D01*
X124372688Y-85569654D01*
X120840500Y-85566250D01*
X120840500Y-89201625D01*
X120840500Y-89201625D01*
G37*
X120840500Y-89201625D02*
X120840636Y-89676369D01*
X120841032Y-90133030D01*
X120841670Y-90567636D01*
X120842534Y-90976212D01*
X120843605Y-91354788D01*
X120844867Y-91699390D01*
X120846302Y-92006047D01*
X120847894Y-92270785D01*
X120849623Y-92489632D01*
X120851474Y-92658616D01*
X120853429Y-92773765D01*
X120855470Y-92831105D01*
X120856375Y-92837000D01*
X120864929Y-92808209D01*
X120870751Y-92733651D01*
X120872397Y-92654437D01*
X120877238Y-92551120D01*
X120890312Y-92404603D01*
X120909628Y-92234357D01*
X120933193Y-92059853D01*
X120933301Y-92059125D01*
X121065134Y-91379066D01*
X121256896Y-90718097D01*
X121507049Y-90079367D01*
X121814055Y-89466025D01*
X122176377Y-88881219D01*
X122592476Y-88328098D01*
X122955410Y-87918546D01*
X123446469Y-87447738D01*
X123978203Y-87023710D01*
X124545920Y-86648817D01*
X125144926Y-86325411D01*
X125770528Y-86055845D01*
X126418034Y-85842471D01*
X127082750Y-85687642D01*
X127547935Y-85616301D01*
X127598529Y-85609568D01*
X127631027Y-85603549D01*
X127642453Y-85598200D01*
X127629831Y-85593479D01*
X127590186Y-85589340D01*
X127520540Y-85585741D01*
X127417918Y-85582638D01*
X127279343Y-85579986D01*
X127101840Y-85577743D01*
X126882433Y-85575864D01*
X126618145Y-85574307D01*
X126305999Y-85573026D01*
X125943022Y-85571979D01*
X125526235Y-85571121D01*
X125052662Y-85570409D01*
X124519329Y-85569800D01*
X124372688Y-85569654D01*
X120840500Y-85566250D01*
X120840500Y-89201625D01*
D11*
X121218000Y-96206000D02*
X119888000Y-96206000D01*
X121218000Y-97536000D02*
X121218000Y-96206000D01*
X121218000Y-98806000D02*
X118558000Y-98806000D01*
X118558000Y-98806000D02*
X118558000Y-106486000D01*
X121218000Y-98806000D02*
X121218000Y-106486000D01*
X121218000Y-106486000D02*
X118558000Y-106486000D01*
X138998000Y-106486000D02*
X136338000Y-106486000D01*
X138998000Y-98806000D02*
X138998000Y-106486000D01*
X136338000Y-98806000D02*
X136338000Y-106486000D01*
X138998000Y-98806000D02*
X136338000Y-98806000D01*
X138998000Y-97536000D02*
X138998000Y-96206000D01*
X138998000Y-96206000D02*
X137668000Y-96206000D01*
D12*
X120221333Y-94658380D02*
X120221333Y-95372666D01*
X120268952Y-95515523D01*
X120364190Y-95610761D01*
X120507047Y-95658380D01*
X120602285Y-95658380D01*
X119792761Y-94753619D02*
X119745142Y-94706000D01*
X119649904Y-94658380D01*
X119411809Y-94658380D01*
X119316571Y-94706000D01*
X119268952Y-94753619D01*
X119221333Y-94848857D01*
X119221333Y-94944095D01*
X119268952Y-95086952D01*
X119840380Y-95658380D01*
X119221333Y-95658380D01*
X138001333Y-94658380D02*
X138001333Y-95372666D01*
X138048952Y-95515523D01*
X138144190Y-95610761D01*
X138287047Y-95658380D01*
X138382285Y-95658380D01*
X137620380Y-94658380D02*
X137001333Y-94658380D01*
X137334666Y-95039333D01*
X137191809Y-95039333D01*
X137096571Y-95086952D01*
X137048952Y-95134571D01*
X137001333Y-95229809D01*
X137001333Y-95467904D01*
X137048952Y-95563142D01*
X137096571Y-95610761D01*
X137191809Y-95658380D01*
X137477523Y-95658380D01*
X137572761Y-95610761D01*
X137620380Y-95563142D01*
M02*
