G04 #@! TF.GenerationSoftware,KiCad,Pcbnew,(5.1.2)-2*
G04 #@! TF.CreationDate,2023-04-24T21:20:06-05:00*
G04 #@! TF.ProjectId,nrf24l01breakout,6e726632-346c-4303-9162-7265616b6f75,V0.1*
G04 #@! TF.SameCoordinates,Original*
G04 #@! TF.FileFunction,Soldermask,Top*
G04 #@! TF.FilePolarity,Negative*
%FSLAX46Y46*%
G04 Gerber Fmt 4.6, Leading zero omitted, Abs format (unit mm)*
G04 Created by KiCad (PCBNEW (5.1.2)-2) date 2023-04-24 21:20:06*
%MOMM*%
%LPD*%
G04 APERTURE LIST*
%ADD10C,0.100000*%
G04 APERTURE END LIST*
D10*
G36*
X137778442Y-104261518D02*
G01*
X137844627Y-104268037D01*
X138014466Y-104319557D01*
X138170991Y-104403222D01*
X138206729Y-104432552D01*
X138308186Y-104515814D01*
X138391448Y-104617271D01*
X138420778Y-104653009D01*
X138504443Y-104809534D01*
X138555963Y-104979373D01*
X138573359Y-105156000D01*
X138555963Y-105332627D01*
X138504443Y-105502466D01*
X138420778Y-105658991D01*
X138391448Y-105694729D01*
X138308186Y-105796186D01*
X138206729Y-105879448D01*
X138170991Y-105908778D01*
X138014466Y-105992443D01*
X137844627Y-106043963D01*
X137778442Y-106050482D01*
X137712260Y-106057000D01*
X137623740Y-106057000D01*
X137557558Y-106050482D01*
X137491373Y-106043963D01*
X137321534Y-105992443D01*
X137165009Y-105908778D01*
X137129271Y-105879448D01*
X137027814Y-105796186D01*
X136944552Y-105694729D01*
X136915222Y-105658991D01*
X136831557Y-105502466D01*
X136780037Y-105332627D01*
X136762641Y-105156000D01*
X136780037Y-104979373D01*
X136831557Y-104809534D01*
X136915222Y-104653009D01*
X136944552Y-104617271D01*
X137027814Y-104515814D01*
X137129271Y-104432552D01*
X137165009Y-104403222D01*
X137321534Y-104319557D01*
X137491373Y-104268037D01*
X137557558Y-104261518D01*
X137623740Y-104255000D01*
X137712260Y-104255000D01*
X137778442Y-104261518D01*
X137778442Y-104261518D01*
G37*
G36*
X119998442Y-104261518D02*
G01*
X120064627Y-104268037D01*
X120234466Y-104319557D01*
X120390991Y-104403222D01*
X120426729Y-104432552D01*
X120528186Y-104515814D01*
X120611448Y-104617271D01*
X120640778Y-104653009D01*
X120724443Y-104809534D01*
X120775963Y-104979373D01*
X120793359Y-105156000D01*
X120775963Y-105332627D01*
X120724443Y-105502466D01*
X120640778Y-105658991D01*
X120611448Y-105694729D01*
X120528186Y-105796186D01*
X120426729Y-105879448D01*
X120390991Y-105908778D01*
X120234466Y-105992443D01*
X120064627Y-106043963D01*
X119998442Y-106050482D01*
X119932260Y-106057000D01*
X119843740Y-106057000D01*
X119777558Y-106050482D01*
X119711373Y-106043963D01*
X119541534Y-105992443D01*
X119385009Y-105908778D01*
X119349271Y-105879448D01*
X119247814Y-105796186D01*
X119164552Y-105694729D01*
X119135222Y-105658991D01*
X119051557Y-105502466D01*
X119000037Y-105332627D01*
X118982641Y-105156000D01*
X119000037Y-104979373D01*
X119051557Y-104809534D01*
X119135222Y-104653009D01*
X119164552Y-104617271D01*
X119247814Y-104515814D01*
X119349271Y-104432552D01*
X119385009Y-104403222D01*
X119541534Y-104319557D01*
X119711373Y-104268037D01*
X119777558Y-104261518D01*
X119843740Y-104255000D01*
X119932260Y-104255000D01*
X119998442Y-104261518D01*
X119998442Y-104261518D01*
G37*
G36*
X124638000Y-105588000D02*
G01*
X123012000Y-105588000D01*
X123012000Y-103962000D01*
X124638000Y-103962000D01*
X124638000Y-105588000D01*
X124638000Y-105588000D01*
G37*
G36*
X129142142Y-103993242D02*
G01*
X129290101Y-104054529D01*
X129423255Y-104143499D01*
X129536501Y-104256745D01*
X129625471Y-104389899D01*
X129686758Y-104537858D01*
X129718000Y-104694925D01*
X129718000Y-104855075D01*
X129686758Y-105012142D01*
X129625471Y-105160101D01*
X129536501Y-105293255D01*
X129423255Y-105406501D01*
X129290101Y-105495471D01*
X129142142Y-105556758D01*
X128985075Y-105588000D01*
X128824925Y-105588000D01*
X128667858Y-105556758D01*
X128519899Y-105495471D01*
X128386745Y-105406501D01*
X128273499Y-105293255D01*
X128184529Y-105160101D01*
X128123242Y-105012142D01*
X128092000Y-104855075D01*
X128092000Y-104694925D01*
X128123242Y-104537858D01*
X128184529Y-104389899D01*
X128273499Y-104256745D01*
X128386745Y-104143499D01*
X128519899Y-104054529D01*
X128667858Y-103993242D01*
X128824925Y-103962000D01*
X128985075Y-103962000D01*
X129142142Y-103993242D01*
X129142142Y-103993242D01*
G37*
G36*
X131682142Y-103993242D02*
G01*
X131830101Y-104054529D01*
X131963255Y-104143499D01*
X132076501Y-104256745D01*
X132165471Y-104389899D01*
X132226758Y-104537858D01*
X132258000Y-104694925D01*
X132258000Y-104855075D01*
X132226758Y-105012142D01*
X132165471Y-105160101D01*
X132076501Y-105293255D01*
X131963255Y-105406501D01*
X131830101Y-105495471D01*
X131682142Y-105556758D01*
X131525075Y-105588000D01*
X131364925Y-105588000D01*
X131207858Y-105556758D01*
X131059899Y-105495471D01*
X130926745Y-105406501D01*
X130813499Y-105293255D01*
X130724529Y-105160101D01*
X130663242Y-105012142D01*
X130632000Y-104855075D01*
X130632000Y-104694925D01*
X130663242Y-104537858D01*
X130724529Y-104389899D01*
X130813499Y-104256745D01*
X130926745Y-104143499D01*
X131059899Y-104054529D01*
X131207858Y-103993242D01*
X131364925Y-103962000D01*
X131525075Y-103962000D01*
X131682142Y-103993242D01*
X131682142Y-103993242D01*
G37*
G36*
X126602142Y-103993242D02*
G01*
X126750101Y-104054529D01*
X126883255Y-104143499D01*
X126996501Y-104256745D01*
X127085471Y-104389899D01*
X127146758Y-104537858D01*
X127178000Y-104694925D01*
X127178000Y-104855075D01*
X127146758Y-105012142D01*
X127085471Y-105160101D01*
X126996501Y-105293255D01*
X126883255Y-105406501D01*
X126750101Y-105495471D01*
X126602142Y-105556758D01*
X126445075Y-105588000D01*
X126284925Y-105588000D01*
X126127858Y-105556758D01*
X125979899Y-105495471D01*
X125846745Y-105406501D01*
X125733499Y-105293255D01*
X125644529Y-105160101D01*
X125583242Y-105012142D01*
X125552000Y-104855075D01*
X125552000Y-104694925D01*
X125583242Y-104537858D01*
X125644529Y-104389899D01*
X125733499Y-104256745D01*
X125846745Y-104143499D01*
X125979899Y-104054529D01*
X126127858Y-103993242D01*
X126284925Y-103962000D01*
X126445075Y-103962000D01*
X126602142Y-103993242D01*
X126602142Y-103993242D01*
G37*
G36*
X137778443Y-101721519D02*
G01*
X137844627Y-101728037D01*
X138014466Y-101779557D01*
X138170991Y-101863222D01*
X138206729Y-101892552D01*
X138308186Y-101975814D01*
X138391448Y-102077271D01*
X138420778Y-102113009D01*
X138504443Y-102269534D01*
X138555963Y-102439373D01*
X138573359Y-102616000D01*
X138555963Y-102792627D01*
X138504443Y-102962466D01*
X138420778Y-103118991D01*
X138391448Y-103154729D01*
X138308186Y-103256186D01*
X138206729Y-103339448D01*
X138170991Y-103368778D01*
X138014466Y-103452443D01*
X137844627Y-103503963D01*
X137778443Y-103510481D01*
X137712260Y-103517000D01*
X137623740Y-103517000D01*
X137557558Y-103510482D01*
X137491373Y-103503963D01*
X137321534Y-103452443D01*
X137165009Y-103368778D01*
X137129271Y-103339448D01*
X137027814Y-103256186D01*
X136944552Y-103154729D01*
X136915222Y-103118991D01*
X136831557Y-102962466D01*
X136780037Y-102792627D01*
X136762641Y-102616000D01*
X136780037Y-102439373D01*
X136831557Y-102269534D01*
X136915222Y-102113009D01*
X136944552Y-102077271D01*
X137027814Y-101975814D01*
X137129271Y-101892552D01*
X137165009Y-101863222D01*
X137321534Y-101779557D01*
X137491373Y-101728037D01*
X137557558Y-101721518D01*
X137623740Y-101715000D01*
X137712260Y-101715000D01*
X137778443Y-101721519D01*
X137778443Y-101721519D01*
G37*
G36*
X119998443Y-101721519D02*
G01*
X120064627Y-101728037D01*
X120234466Y-101779557D01*
X120390991Y-101863222D01*
X120426729Y-101892552D01*
X120528186Y-101975814D01*
X120611448Y-102077271D01*
X120640778Y-102113009D01*
X120724443Y-102269534D01*
X120775963Y-102439373D01*
X120793359Y-102616000D01*
X120775963Y-102792627D01*
X120724443Y-102962466D01*
X120640778Y-103118991D01*
X120611448Y-103154729D01*
X120528186Y-103256186D01*
X120426729Y-103339448D01*
X120390991Y-103368778D01*
X120234466Y-103452443D01*
X120064627Y-103503963D01*
X119998443Y-103510481D01*
X119932260Y-103517000D01*
X119843740Y-103517000D01*
X119777558Y-103510482D01*
X119711373Y-103503963D01*
X119541534Y-103452443D01*
X119385009Y-103368778D01*
X119349271Y-103339448D01*
X119247814Y-103256186D01*
X119164552Y-103154729D01*
X119135222Y-103118991D01*
X119051557Y-102962466D01*
X119000037Y-102792627D01*
X118982641Y-102616000D01*
X119000037Y-102439373D01*
X119051557Y-102269534D01*
X119135222Y-102113009D01*
X119164552Y-102077271D01*
X119247814Y-101975814D01*
X119349271Y-101892552D01*
X119385009Y-101863222D01*
X119541534Y-101779557D01*
X119711373Y-101728037D01*
X119777558Y-101721518D01*
X119843740Y-101715000D01*
X119932260Y-101715000D01*
X119998443Y-101721519D01*
X119998443Y-101721519D01*
G37*
G36*
X131682142Y-101453242D02*
G01*
X131830101Y-101514529D01*
X131963255Y-101603499D01*
X132076501Y-101716745D01*
X132165471Y-101849899D01*
X132226758Y-101997858D01*
X132258000Y-102154925D01*
X132258000Y-102315075D01*
X132226758Y-102472142D01*
X132165471Y-102620101D01*
X132076501Y-102753255D01*
X131963255Y-102866501D01*
X131830101Y-102955471D01*
X131682142Y-103016758D01*
X131525075Y-103048000D01*
X131364925Y-103048000D01*
X131207858Y-103016758D01*
X131059899Y-102955471D01*
X130926745Y-102866501D01*
X130813499Y-102753255D01*
X130724529Y-102620101D01*
X130663242Y-102472142D01*
X130632000Y-102315075D01*
X130632000Y-102154925D01*
X130663242Y-101997858D01*
X130724529Y-101849899D01*
X130813499Y-101716745D01*
X130926745Y-101603499D01*
X131059899Y-101514529D01*
X131207858Y-101453242D01*
X131364925Y-101422000D01*
X131525075Y-101422000D01*
X131682142Y-101453242D01*
X131682142Y-101453242D01*
G37*
G36*
X124062142Y-101453242D02*
G01*
X124210101Y-101514529D01*
X124343255Y-101603499D01*
X124456501Y-101716745D01*
X124545471Y-101849899D01*
X124606758Y-101997858D01*
X124638000Y-102154925D01*
X124638000Y-102315075D01*
X124606758Y-102472142D01*
X124545471Y-102620101D01*
X124456501Y-102753255D01*
X124343255Y-102866501D01*
X124210101Y-102955471D01*
X124062142Y-103016758D01*
X123905075Y-103048000D01*
X123744925Y-103048000D01*
X123587858Y-103016758D01*
X123439899Y-102955471D01*
X123306745Y-102866501D01*
X123193499Y-102753255D01*
X123104529Y-102620101D01*
X123043242Y-102472142D01*
X123012000Y-102315075D01*
X123012000Y-102154925D01*
X123043242Y-101997858D01*
X123104529Y-101849899D01*
X123193499Y-101716745D01*
X123306745Y-101603499D01*
X123439899Y-101514529D01*
X123587858Y-101453242D01*
X123744925Y-101422000D01*
X123905075Y-101422000D01*
X124062142Y-101453242D01*
X124062142Y-101453242D01*
G37*
G36*
X126602142Y-101453242D02*
G01*
X126750101Y-101514529D01*
X126883255Y-101603499D01*
X126996501Y-101716745D01*
X127085471Y-101849899D01*
X127146758Y-101997858D01*
X127178000Y-102154925D01*
X127178000Y-102315075D01*
X127146758Y-102472142D01*
X127085471Y-102620101D01*
X126996501Y-102753255D01*
X126883255Y-102866501D01*
X126750101Y-102955471D01*
X126602142Y-103016758D01*
X126445075Y-103048000D01*
X126284925Y-103048000D01*
X126127858Y-103016758D01*
X125979899Y-102955471D01*
X125846745Y-102866501D01*
X125733499Y-102753255D01*
X125644529Y-102620101D01*
X125583242Y-102472142D01*
X125552000Y-102315075D01*
X125552000Y-102154925D01*
X125583242Y-101997858D01*
X125644529Y-101849899D01*
X125733499Y-101716745D01*
X125846745Y-101603499D01*
X125979899Y-101514529D01*
X126127858Y-101453242D01*
X126284925Y-101422000D01*
X126445075Y-101422000D01*
X126602142Y-101453242D01*
X126602142Y-101453242D01*
G37*
G36*
X129142142Y-101453242D02*
G01*
X129290101Y-101514529D01*
X129423255Y-101603499D01*
X129536501Y-101716745D01*
X129625471Y-101849899D01*
X129686758Y-101997858D01*
X129718000Y-102154925D01*
X129718000Y-102315075D01*
X129686758Y-102472142D01*
X129625471Y-102620101D01*
X129536501Y-102753255D01*
X129423255Y-102866501D01*
X129290101Y-102955471D01*
X129142142Y-103016758D01*
X128985075Y-103048000D01*
X128824925Y-103048000D01*
X128667858Y-103016758D01*
X128519899Y-102955471D01*
X128386745Y-102866501D01*
X128273499Y-102753255D01*
X128184529Y-102620101D01*
X128123242Y-102472142D01*
X128092000Y-102315075D01*
X128092000Y-102154925D01*
X128123242Y-101997858D01*
X128184529Y-101849899D01*
X128273499Y-101716745D01*
X128386745Y-101603499D01*
X128519899Y-101514529D01*
X128667858Y-101453242D01*
X128824925Y-101422000D01*
X128985075Y-101422000D01*
X129142142Y-101453242D01*
X129142142Y-101453242D01*
G37*
G36*
X137778442Y-99181518D02*
G01*
X137844627Y-99188037D01*
X138014466Y-99239557D01*
X138170991Y-99323222D01*
X138206729Y-99352552D01*
X138308186Y-99435814D01*
X138391448Y-99537271D01*
X138420778Y-99573009D01*
X138504443Y-99729534D01*
X138555963Y-99899373D01*
X138573359Y-100076000D01*
X138555963Y-100252627D01*
X138504443Y-100422466D01*
X138420778Y-100578991D01*
X138391448Y-100614729D01*
X138308186Y-100716186D01*
X138206729Y-100799448D01*
X138170991Y-100828778D01*
X138014466Y-100912443D01*
X137844627Y-100963963D01*
X137778442Y-100970482D01*
X137712260Y-100977000D01*
X137623740Y-100977000D01*
X137557558Y-100970482D01*
X137491373Y-100963963D01*
X137321534Y-100912443D01*
X137165009Y-100828778D01*
X137129271Y-100799448D01*
X137027814Y-100716186D01*
X136944552Y-100614729D01*
X136915222Y-100578991D01*
X136831557Y-100422466D01*
X136780037Y-100252627D01*
X136762641Y-100076000D01*
X136780037Y-99899373D01*
X136831557Y-99729534D01*
X136915222Y-99573009D01*
X136944552Y-99537271D01*
X137027814Y-99435814D01*
X137129271Y-99352552D01*
X137165009Y-99323222D01*
X137321534Y-99239557D01*
X137491373Y-99188037D01*
X137557558Y-99181518D01*
X137623740Y-99175000D01*
X137712260Y-99175000D01*
X137778442Y-99181518D01*
X137778442Y-99181518D01*
G37*
G36*
X119998442Y-99181518D02*
G01*
X120064627Y-99188037D01*
X120234466Y-99239557D01*
X120390991Y-99323222D01*
X120426729Y-99352552D01*
X120528186Y-99435814D01*
X120611448Y-99537271D01*
X120640778Y-99573009D01*
X120724443Y-99729534D01*
X120775963Y-99899373D01*
X120793359Y-100076000D01*
X120775963Y-100252627D01*
X120724443Y-100422466D01*
X120640778Y-100578991D01*
X120611448Y-100614729D01*
X120528186Y-100716186D01*
X120426729Y-100799448D01*
X120390991Y-100828778D01*
X120234466Y-100912443D01*
X120064627Y-100963963D01*
X119998442Y-100970482D01*
X119932260Y-100977000D01*
X119843740Y-100977000D01*
X119777558Y-100970482D01*
X119711373Y-100963963D01*
X119541534Y-100912443D01*
X119385009Y-100828778D01*
X119349271Y-100799448D01*
X119247814Y-100716186D01*
X119164552Y-100614729D01*
X119135222Y-100578991D01*
X119051557Y-100422466D01*
X119000037Y-100252627D01*
X118982641Y-100076000D01*
X119000037Y-99899373D01*
X119051557Y-99729534D01*
X119135222Y-99573009D01*
X119164552Y-99537271D01*
X119247814Y-99435814D01*
X119349271Y-99352552D01*
X119385009Y-99323222D01*
X119541534Y-99239557D01*
X119711373Y-99188037D01*
X119777558Y-99181518D01*
X119843740Y-99175000D01*
X119932260Y-99175000D01*
X119998442Y-99181518D01*
X119998442Y-99181518D01*
G37*
G36*
X138569000Y-98437000D02*
G01*
X136767000Y-98437000D01*
X136767000Y-96635000D01*
X138569000Y-96635000D01*
X138569000Y-98437000D01*
X138569000Y-98437000D01*
G37*
G36*
X120789000Y-98437000D02*
G01*
X118987000Y-98437000D01*
X118987000Y-96635000D01*
X120789000Y-96635000D01*
X120789000Y-98437000D01*
X120789000Y-98437000D01*
G37*
G36*
X140201000Y-95561000D02*
G01*
X139199000Y-95561000D01*
X139199000Y-94259000D01*
X140201000Y-94259000D01*
X140201000Y-95561000D01*
X140201000Y-95561000D01*
G37*
G36*
X135502000Y-95139000D02*
G01*
X134500000Y-95139000D01*
X134500000Y-93837000D01*
X135502000Y-93837000D01*
X135502000Y-95139000D01*
X135502000Y-95139000D01*
G37*
G36*
X122595000Y-94531000D02*
G01*
X119983000Y-94531000D01*
X119983000Y-93429000D01*
X122595000Y-93429000D01*
X122595000Y-94531000D01*
X122595000Y-94531000D01*
G37*
G36*
X140201000Y-93361000D02*
G01*
X139199000Y-93361000D01*
X139199000Y-92059000D01*
X140201000Y-92059000D01*
X140201000Y-93361000D01*
X140201000Y-93361000D01*
G37*
G36*
X135502000Y-92939000D02*
G01*
X134500000Y-92939000D01*
X134500000Y-91637000D01*
X135502000Y-91637000D01*
X135502000Y-92939000D01*
X135502000Y-92939000D01*
G37*
G36*
X119285000Y-91991000D02*
G01*
X116673000Y-91991000D01*
X116673000Y-90889000D01*
X119285000Y-90889000D01*
X119285000Y-91991000D01*
X119285000Y-91991000D01*
G37*
G36*
X140201000Y-91286000D02*
G01*
X139199000Y-91286000D01*
X139199000Y-89984000D01*
X140201000Y-89984000D01*
X140201000Y-91286000D01*
X140201000Y-91286000D01*
G37*
G36*
X137641000Y-90671000D02*
G01*
X136339000Y-90671000D01*
X136339000Y-89669000D01*
X137641000Y-89669000D01*
X137641000Y-90671000D01*
X137641000Y-90671000D01*
G37*
G36*
X135441000Y-90671000D02*
G01*
X134139000Y-90671000D01*
X134139000Y-89669000D01*
X135441000Y-89669000D01*
X135441000Y-90671000D01*
X135441000Y-90671000D01*
G37*
G36*
X124791000Y-89326000D02*
G01*
X123489000Y-89326000D01*
X123489000Y-88474000D01*
X124791000Y-88474000D01*
X124791000Y-89326000D01*
X124791000Y-89326000D01*
G37*
G36*
X122891000Y-89326000D02*
G01*
X121589000Y-89326000D01*
X121589000Y-88474000D01*
X122891000Y-88474000D01*
X122891000Y-89326000D01*
X122891000Y-89326000D01*
G37*
G36*
X140201000Y-89086000D02*
G01*
X139199000Y-89086000D01*
X139199000Y-87784000D01*
X140201000Y-87784000D01*
X140201000Y-89086000D01*
X140201000Y-89086000D01*
G37*
G36*
X137491000Y-88691000D02*
G01*
X136189000Y-88691000D01*
X136189000Y-87839000D01*
X137491000Y-87839000D01*
X137491000Y-88691000D01*
X137491000Y-88691000D01*
G37*
G36*
X135591000Y-88691000D02*
G01*
X134289000Y-88691000D01*
X134289000Y-87839000D01*
X135591000Y-87839000D01*
X135591000Y-88691000D01*
X135591000Y-88691000D01*
G37*
G36*
X127441000Y-87276000D02*
G01*
X125339000Y-87276000D01*
X125339000Y-85674000D01*
X127441000Y-85674000D01*
X127441000Y-87276000D01*
X127441000Y-87276000D01*
G37*
G36*
X122136000Y-87076000D02*
G01*
X120434000Y-87076000D01*
X120434000Y-84374000D01*
X122136000Y-84374000D01*
X122136000Y-87076000D01*
X122136000Y-87076000D01*
G37*
G36*
X138011000Y-86971000D02*
G01*
X136309000Y-86971000D01*
X136309000Y-84269000D01*
X138011000Y-84269000D01*
X138011000Y-86971000D01*
X138011000Y-86971000D01*
G37*
G36*
X133741000Y-86126000D02*
G01*
X131639000Y-86126000D01*
X131639000Y-82224000D01*
X133741000Y-82224000D01*
X133741000Y-86126000D01*
X133741000Y-86126000D01*
G37*
G36*
X127441000Y-84976000D02*
G01*
X125339000Y-84976000D01*
X125339000Y-83374000D01*
X127441000Y-83374000D01*
X127441000Y-84976000D01*
X127441000Y-84976000D01*
G37*
G36*
X122136000Y-83476000D02*
G01*
X120434000Y-83476000D01*
X120434000Y-80774000D01*
X122136000Y-80774000D01*
X122136000Y-83476000D01*
X122136000Y-83476000D01*
G37*
G36*
X138011000Y-83371000D02*
G01*
X136309000Y-83371000D01*
X136309000Y-80669000D01*
X138011000Y-80669000D01*
X138011000Y-83371000D01*
X138011000Y-83371000D01*
G37*
G36*
X127441000Y-82676000D02*
G01*
X125339000Y-82676000D01*
X125339000Y-81074000D01*
X127441000Y-81074000D01*
X127441000Y-82676000D01*
X127441000Y-82676000D01*
G37*
M02*
