G04 #@! TF.GenerationSoftware,KiCad,Pcbnew,(5.1.2)-2*
G04 #@! TF.CreationDate,2022-10-24T21:46:32-05:00*
G04 #@! TF.ProjectId,nrf24l01_breakout,6e726632-346c-4303-915f-627265616b6f,v1.0*
G04 #@! TF.SameCoordinates,Original*
G04 #@! TF.FileFunction,Legend,Bot*
G04 #@! TF.FilePolarity,Positive*
%FSLAX46Y46*%
G04 Gerber Fmt 4.6, Leading zero omitted, Abs format (unit mm)*
G04 Created by KiCad (PCBNEW (5.1.2)-2) date 2022-10-24 21:46:32*
%MOMM*%
%LPD*%
G04 APERTURE LIST*
%ADD10C,0.010000*%
%ADD11C,0.120000*%
%ADD12C,0.150000*%
G04 APERTURE END LIST*
D10*
G36*
X125285500Y-149834600D02*
G01*
X129349500Y-149834600D01*
X129349500Y-148216620D01*
X127846277Y-148216620D01*
X127844779Y-148366480D01*
X127844332Y-148409416D01*
X127843881Y-148443439D01*
X127843321Y-148469794D01*
X127842551Y-148489729D01*
X127841468Y-148504488D01*
X127839970Y-148515318D01*
X127837954Y-148523465D01*
X127835318Y-148530176D01*
X127831959Y-148536695D01*
X127830573Y-148539200D01*
X127815760Y-148559007D01*
X127793179Y-148578145D01*
X127784853Y-148583864D01*
X127759228Y-148600225D01*
X127726640Y-148620172D01*
X127689107Y-148642540D01*
X127648647Y-148666165D01*
X127607280Y-148689884D01*
X127567023Y-148712533D01*
X127529894Y-148732947D01*
X127497914Y-148749963D01*
X127487680Y-148755220D01*
X127461629Y-148768564D01*
X127437404Y-148781214D01*
X127417099Y-148792060D01*
X127402808Y-148799990D01*
X127398780Y-148802384D01*
X127386773Y-148809353D01*
X127378470Y-148813222D01*
X127377190Y-148813501D01*
X127376327Y-148808611D01*
X127375533Y-148794681D01*
X127374829Y-148772826D01*
X127374240Y-148744167D01*
X127373787Y-148709820D01*
X127373493Y-148670905D01*
X127373381Y-148628539D01*
X127373380Y-148625656D01*
X127373380Y-148582803D01*
X127266700Y-148582803D01*
X127266619Y-148630139D01*
X127266387Y-148674149D01*
X127266019Y-148713836D01*
X127265534Y-148748202D01*
X127264947Y-148776250D01*
X127264275Y-148796981D01*
X127263535Y-148809399D01*
X127262864Y-148812673D01*
X127257283Y-148809916D01*
X127244200Y-148803327D01*
X127225163Y-148793690D01*
X127201721Y-148781788D01*
X127180314Y-148770896D01*
X127141698Y-148750829D01*
X127100862Y-148728887D01*
X127058938Y-148705739D01*
X127017057Y-148682056D01*
X126976352Y-148658507D01*
X126937955Y-148635761D01*
X126902997Y-148614489D01*
X126872611Y-148595360D01*
X126847928Y-148579044D01*
X126830081Y-148566210D01*
X126820831Y-148558225D01*
X126814249Y-148550666D01*
X126808850Y-148542650D01*
X126804520Y-148533137D01*
X126801147Y-148521087D01*
X126798616Y-148505461D01*
X126796813Y-148485220D01*
X126795626Y-148459323D01*
X126794939Y-148426732D01*
X126794640Y-148386406D01*
X126794615Y-148337307D01*
X126794648Y-148318851D01*
X126795035Y-148135340D01*
X126809728Y-148179617D01*
X126821842Y-148212553D01*
X126833817Y-148236999D01*
X126846651Y-148254564D01*
X126861343Y-148266853D01*
X126865380Y-148269266D01*
X126876734Y-148273889D01*
X126895722Y-148279770D01*
X126920000Y-148286255D01*
X126947225Y-148292691D01*
X126956820Y-148294769D01*
X126977504Y-148299007D01*
X127004099Y-148304256D01*
X127035093Y-148310236D01*
X127068977Y-148316670D01*
X127104241Y-148323278D01*
X127139374Y-148329782D01*
X127172867Y-148335903D01*
X127203209Y-148341363D01*
X127228891Y-148345882D01*
X127248401Y-148349183D01*
X127260231Y-148350986D01*
X127262846Y-148351240D01*
X127263635Y-148356152D01*
X127264370Y-148370216D01*
X127265034Y-148392426D01*
X127265610Y-148421774D01*
X127266081Y-148457252D01*
X127266430Y-148497854D01*
X127266642Y-148542572D01*
X127266700Y-148582803D01*
X127373380Y-148582803D01*
X127373380Y-148437793D01*
X127384810Y-148435400D01*
X127393124Y-148433696D01*
X127409705Y-148430327D01*
X127432862Y-148425634D01*
X127460903Y-148419962D01*
X127492136Y-148413653D01*
X127499131Y-148412241D01*
X127561259Y-148399115D01*
X127614133Y-148386595D01*
X127658618Y-148374374D01*
X127695581Y-148362144D01*
X127725884Y-148349600D01*
X127750395Y-148336432D01*
X127769977Y-148322336D01*
X127780679Y-148312315D01*
X127792343Y-148298506D01*
X127806387Y-148279518D01*
X127820150Y-148258987D01*
X127822817Y-148254720D01*
X127846277Y-148216620D01*
X129349500Y-148216620D01*
X129349500Y-147675600D01*
X127845820Y-147675600D01*
X127845820Y-148137577D01*
X127794520Y-148199958D01*
X127775643Y-148222585D01*
X127757707Y-148243495D01*
X127742266Y-148260918D01*
X127730875Y-148273082D01*
X127727210Y-148276617D01*
X127717826Y-148283868D01*
X127703664Y-148293594D01*
X127687245Y-148304212D01*
X127671089Y-148314140D01*
X127657719Y-148321796D01*
X127649656Y-148325600D01*
X127648868Y-148325761D01*
X127648567Y-148321089D01*
X127648865Y-148308445D01*
X127649692Y-148289996D01*
X127650457Y-148276310D01*
X127651940Y-148253823D01*
X127653479Y-148234323D01*
X127653793Y-148231158D01*
X127590063Y-148231158D01*
X127589297Y-148244340D01*
X127587639Y-148262408D01*
X127585389Y-148282783D01*
X127582845Y-148302881D01*
X127580305Y-148320122D01*
X127578068Y-148331924D01*
X127576920Y-148335450D01*
X127571476Y-148337400D01*
X127557878Y-148340623D01*
X127538004Y-148344776D01*
X127513730Y-148349516D01*
X127486934Y-148354500D01*
X127459493Y-148359385D01*
X127433284Y-148363830D01*
X127410185Y-148367490D01*
X127392071Y-148370024D01*
X127382038Y-148371033D01*
X127377219Y-148370191D01*
X127374671Y-148365535D01*
X127373913Y-148354931D01*
X127374418Y-148337270D01*
X127375920Y-148302980D01*
X127428430Y-148283164D01*
X127266161Y-148283164D01*
X127265429Y-148294080D01*
X127262995Y-148299126D01*
X127258400Y-148300433D01*
X127257821Y-148300440D01*
X127250085Y-148299579D01*
X127234062Y-148297181D01*
X127211458Y-148293523D01*
X127183982Y-148288883D01*
X127153343Y-148283537D01*
X127150433Y-148283021D01*
X127120229Y-148277589D01*
X127093659Y-148272681D01*
X127072263Y-148268593D01*
X127057585Y-148265620D01*
X127051166Y-148264058D01*
X127051016Y-148263971D01*
X127049593Y-148257865D01*
X127048755Y-148249717D01*
X126997145Y-148249717D01*
X126996717Y-148254688D01*
X126996588Y-148254720D01*
X126991019Y-148253705D01*
X126977802Y-148250978D01*
X126959213Y-148247014D01*
X126946833Y-148244328D01*
X126925819Y-148239568D01*
X126908547Y-148235331D01*
X126897440Y-148232229D01*
X126894821Y-148231217D01*
X126891329Y-148226047D01*
X126884075Y-148213145D01*
X126873790Y-148193890D01*
X126861206Y-148169660D01*
X126847057Y-148141834D01*
X126842340Y-148132439D01*
X126794260Y-148036381D01*
X126794260Y-147675600D01*
X126895860Y-147675600D01*
X126895860Y-147791625D01*
X126896029Y-147832592D01*
X126896499Y-147877216D01*
X126897214Y-147922073D01*
X126898120Y-147963744D01*
X126899163Y-147998808D01*
X126899204Y-147999967D01*
X126902548Y-148092284D01*
X126947464Y-148116284D01*
X126992380Y-148140285D01*
X126992380Y-148181627D01*
X126992772Y-148203414D01*
X126993807Y-148223226D01*
X126995277Y-148237293D01*
X126995555Y-148238845D01*
X126997145Y-148249717D01*
X127048755Y-148249717D01*
X127048239Y-148244713D01*
X127047060Y-148227134D01*
X127046164Y-148207745D01*
X127045659Y-148189166D01*
X127045651Y-148174016D01*
X127046249Y-148164911D01*
X127046888Y-148163430D01*
X127052696Y-148164884D01*
X127066766Y-148168869D01*
X127087641Y-148174959D01*
X127113863Y-148182727D01*
X127143976Y-148191745D01*
X127157480Y-148195818D01*
X127264160Y-148228056D01*
X127265653Y-148264248D01*
X127266161Y-148283164D01*
X127428430Y-148283164D01*
X127481648Y-148263081D01*
X127512336Y-148251634D01*
X127539726Y-148241672D01*
X127562435Y-148233678D01*
X127579081Y-148228134D01*
X127588280Y-148225521D01*
X127589639Y-148225445D01*
X127590063Y-148231158D01*
X127653793Y-148231158D01*
X127654840Y-148220620D01*
X127655425Y-148216589D01*
X127661103Y-148208809D01*
X127675805Y-148198014D01*
X127699774Y-148184035D01*
X127707634Y-148179815D01*
X127757837Y-148153230D01*
X127761189Y-148038054D01*
X127762269Y-147995065D01*
X127763213Y-147946392D01*
X127763959Y-147896099D01*
X127764445Y-147848245D01*
X127764610Y-147810669D01*
X127764765Y-147777274D01*
X127765161Y-147746781D01*
X127765756Y-147720839D01*
X127766507Y-147701100D01*
X127767374Y-147689212D01*
X127767679Y-147687399D01*
X127728433Y-147687399D01*
X127727976Y-147701966D01*
X127726953Y-147717510D01*
X127726050Y-147733145D01*
X127724903Y-147757286D01*
X127723579Y-147788279D01*
X127722146Y-147824475D01*
X127720670Y-147864222D01*
X127719218Y-147905869D01*
X127718682Y-147921980D01*
X127717003Y-147972901D01*
X127715549Y-148014629D01*
X127714200Y-148048126D01*
X127712833Y-148074355D01*
X127711329Y-148094275D01*
X127709565Y-148108849D01*
X127707420Y-148119038D01*
X127704774Y-148125804D01*
X127701505Y-148130109D01*
X127697493Y-148132913D01*
X127692615Y-148135180D01*
X127691779Y-148135542D01*
X127677866Y-148141102D01*
X127670792Y-148141789D01*
X127668281Y-148137218D01*
X127668019Y-148131530D01*
X127668464Y-148123709D01*
X127669720Y-148107100D01*
X127671669Y-148083036D01*
X127674195Y-148052844D01*
X127677179Y-148017857D01*
X127680505Y-147979403D01*
X127684055Y-147938815D01*
X127687711Y-147897421D01*
X127691356Y-147856552D01*
X127694873Y-147817539D01*
X127698143Y-147781712D01*
X127701051Y-147750401D01*
X127703477Y-147724936D01*
X127705305Y-147706648D01*
X127706372Y-147697190D01*
X127709246Y-147683152D01*
X127712865Y-147678140D01*
X127671055Y-147678140D01*
X127639785Y-147911820D01*
X127633368Y-147959666D01*
X127627309Y-148004631D01*
X127621751Y-148045668D01*
X127616837Y-148081732D01*
X127612710Y-148111779D01*
X127609512Y-148134762D01*
X127607387Y-148149638D01*
X127606518Y-148155189D01*
X127602265Y-148161205D01*
X127591133Y-148168230D01*
X127572027Y-148176860D01*
X127553720Y-148184027D01*
X127532871Y-148191876D01*
X127515918Y-148198241D01*
X127504874Y-148202367D01*
X127501650Y-148203547D01*
X127501289Y-148198813D01*
X127500967Y-148185333D01*
X127500701Y-148164522D01*
X127500506Y-148137792D01*
X127500400Y-148107132D01*
X127459740Y-148107132D01*
X127459740Y-148223705D01*
X127420370Y-148236155D01*
X127401591Y-148242011D01*
X127386608Y-148246528D01*
X127378004Y-148248933D01*
X127377093Y-148249122D01*
X127376021Y-148244439D01*
X127375184Y-148231033D01*
X127374612Y-148210340D01*
X127374341Y-148183797D01*
X127374343Y-148182520D01*
X127266700Y-148182520D01*
X127245553Y-148177768D01*
X127231232Y-148174116D01*
X127221097Y-148170753D01*
X127219407Y-148169927D01*
X127218501Y-148164479D01*
X127217893Y-148150596D01*
X127217561Y-148129997D01*
X127217479Y-148104403D01*
X127217624Y-148075532D01*
X127217974Y-148045104D01*
X127218503Y-148014839D01*
X127219188Y-147986456D01*
X127220006Y-147961676D01*
X127220933Y-147942217D01*
X127221945Y-147929800D01*
X127222765Y-147926121D01*
X127227994Y-147924699D01*
X127239776Y-147922478D01*
X127245301Y-147921563D01*
X127266700Y-147918141D01*
X127266700Y-148182520D01*
X127374343Y-148182520D01*
X127374400Y-148152839D01*
X127374553Y-148137106D01*
X127375920Y-148024572D01*
X127415781Y-148007566D01*
X127434069Y-147999859D01*
X127448460Y-147993974D01*
X127456670Y-147990838D01*
X127457691Y-147990560D01*
X127458275Y-147995403D01*
X127458793Y-148008986D01*
X127459223Y-148029890D01*
X127459537Y-148056695D01*
X127459713Y-148087980D01*
X127459740Y-148107132D01*
X127500400Y-148107132D01*
X127500398Y-148106559D01*
X127500380Y-148087405D01*
X127500380Y-147970890D01*
X127538480Y-147949472D01*
X127568611Y-147817696D01*
X127576765Y-147782371D01*
X127584332Y-147750215D01*
X127590983Y-147722589D01*
X127596385Y-147700849D01*
X127600207Y-147686354D01*
X127602086Y-147680509D01*
X127608881Y-147677711D01*
X127623414Y-147676426D01*
X127638242Y-147676619D01*
X127671055Y-147678140D01*
X127712865Y-147678140D01*
X127713831Y-147676803D01*
X127719588Y-147675600D01*
X127724594Y-147676237D01*
X127727424Y-147679496D01*
X127728433Y-147687399D01*
X127767679Y-147687399D01*
X127767742Y-147687030D01*
X127770149Y-147681141D01*
X127774989Y-147677715D01*
X127784596Y-147676092D01*
X127801300Y-147675617D01*
X127808313Y-147675600D01*
X127845820Y-147675600D01*
X129349500Y-147675600D01*
X129349500Y-147675145D01*
X127560154Y-147675145D01*
X127543510Y-147745222D01*
X127536188Y-147776198D01*
X127528494Y-147808980D01*
X127521336Y-147839696D01*
X127515619Y-147864472D01*
X127515537Y-147864830D01*
X127510348Y-147885661D01*
X127505428Y-147902172D01*
X127501452Y-147912253D01*
X127499661Y-147914360D01*
X127498374Y-147909491D01*
X127497362Y-147895730D01*
X127496660Y-147874337D01*
X127496301Y-147846578D01*
X127496321Y-147813715D01*
X127496477Y-147796250D01*
X127497840Y-147678140D01*
X127528997Y-147676642D01*
X127550684Y-147675600D01*
X127449580Y-147675600D01*
X127449580Y-147948618D01*
X127422910Y-147956479D01*
X127405616Y-147961043D01*
X127390691Y-147964077D01*
X127384810Y-147964750D01*
X127373380Y-147965160D01*
X127373380Y-147915787D01*
X127171282Y-147915787D01*
X127168268Y-147962063D01*
X127166797Y-147986069D01*
X127165087Y-148016188D01*
X127163361Y-148048382D01*
X127161985Y-148075650D01*
X127160038Y-148106981D01*
X127157716Y-148128692D01*
X127155048Y-148140584D01*
X127153031Y-148142960D01*
X127145990Y-148141434D01*
X127131766Y-148137336D01*
X127112790Y-148131388D01*
X127101148Y-148127569D01*
X127054949Y-148112178D01*
X127051617Y-148001839D01*
X127050523Y-147959603D01*
X127049579Y-147911693D01*
X127048847Y-147862284D01*
X127048393Y-147815550D01*
X127048273Y-147783257D01*
X127048261Y-147675600D01*
X126997460Y-147675600D01*
X126997460Y-147758597D01*
X126997305Y-147789226D01*
X126996872Y-147827043D01*
X126996208Y-147869078D01*
X126995363Y-147912364D01*
X126994385Y-147953933D01*
X126994117Y-147964004D01*
X126990774Y-148086415D01*
X126931420Y-148056453D01*
X126931420Y-147675600D01*
X126997460Y-147675600D01*
X127048261Y-147675600D01*
X127048260Y-147675015D01*
X127069850Y-147676577D01*
X127091440Y-147678140D01*
X127099700Y-147752710D01*
X127102982Y-147782418D01*
X127106189Y-147811580D01*
X127108998Y-147837252D01*
X127111086Y-147856487D01*
X127111449Y-147859857D01*
X127114937Y-147892434D01*
X127143109Y-147904111D01*
X127171282Y-147915787D01*
X127373380Y-147915787D01*
X127373380Y-147772769D01*
X127266700Y-147772769D01*
X127266700Y-147869938D01*
X127245301Y-147866516D01*
X127231999Y-147864200D01*
X127223969Y-147862441D01*
X127223012Y-147862057D01*
X127223525Y-147856969D01*
X127225489Y-147843446D01*
X127228658Y-147823069D01*
X127232785Y-147797421D01*
X127237587Y-147768310D01*
X127243810Y-147732496D01*
X127249006Y-147706047D01*
X127253349Y-147688236D01*
X127257013Y-147678339D01*
X127258548Y-147676870D01*
X127200634Y-147676870D01*
X127199981Y-147682057D01*
X127198181Y-147695726D01*
X127195446Y-147716286D01*
X127191986Y-147742151D01*
X127188013Y-147771732D01*
X127187960Y-147772120D01*
X127183982Y-147801737D01*
X127180515Y-147827658D01*
X127177769Y-147848295D01*
X127175956Y-147862060D01*
X127175287Y-147867363D01*
X127175287Y-147867370D01*
X127170927Y-147868349D01*
X127163381Y-147868640D01*
X127159002Y-147868293D01*
X127155668Y-147866307D01*
X127153036Y-147861259D01*
X127150761Y-147851728D01*
X127148500Y-147836291D01*
X127145909Y-147813526D01*
X127142800Y-147783550D01*
X127139753Y-147754431D01*
X127136876Y-147728187D01*
X127134395Y-147706776D01*
X127132533Y-147692155D01*
X127131723Y-147687030D01*
X127131060Y-147681068D01*
X127133543Y-147677649D01*
X127141226Y-147676068D01*
X127156161Y-147675620D01*
X127165004Y-147675600D01*
X127182555Y-147675765D01*
X127195276Y-147676201D01*
X127200604Y-147676816D01*
X127200634Y-147676870D01*
X127258548Y-147676870D01*
X127259876Y-147675600D01*
X127262321Y-147677454D01*
X127264135Y-147683792D01*
X127265398Y-147695774D01*
X127266192Y-147714559D01*
X127266598Y-147741308D01*
X127266700Y-147772769D01*
X127373380Y-147772769D01*
X127373380Y-147675600D01*
X127449580Y-147675600D01*
X127550684Y-147675600D01*
X127560154Y-147675145D01*
X129349500Y-147675145D01*
X129349500Y-147599400D01*
X125285500Y-147599400D01*
X125285500Y-149834600D01*
X125285500Y-149834600D01*
G37*
X125285500Y-149834600D02*
X129349500Y-149834600D01*
X129349500Y-148216620D01*
X127846277Y-148216620D01*
X127844779Y-148366480D01*
X127844332Y-148409416D01*
X127843881Y-148443439D01*
X127843321Y-148469794D01*
X127842551Y-148489729D01*
X127841468Y-148504488D01*
X127839970Y-148515318D01*
X127837954Y-148523465D01*
X127835318Y-148530176D01*
X127831959Y-148536695D01*
X127830573Y-148539200D01*
X127815760Y-148559007D01*
X127793179Y-148578145D01*
X127784853Y-148583864D01*
X127759228Y-148600225D01*
X127726640Y-148620172D01*
X127689107Y-148642540D01*
X127648647Y-148666165D01*
X127607280Y-148689884D01*
X127567023Y-148712533D01*
X127529894Y-148732947D01*
X127497914Y-148749963D01*
X127487680Y-148755220D01*
X127461629Y-148768564D01*
X127437404Y-148781214D01*
X127417099Y-148792060D01*
X127402808Y-148799990D01*
X127398780Y-148802384D01*
X127386773Y-148809353D01*
X127378470Y-148813222D01*
X127377190Y-148813501D01*
X127376327Y-148808611D01*
X127375533Y-148794681D01*
X127374829Y-148772826D01*
X127374240Y-148744167D01*
X127373787Y-148709820D01*
X127373493Y-148670905D01*
X127373381Y-148628539D01*
X127373380Y-148625656D01*
X127373380Y-148582803D01*
X127266700Y-148582803D01*
X127266619Y-148630139D01*
X127266387Y-148674149D01*
X127266019Y-148713836D01*
X127265534Y-148748202D01*
X127264947Y-148776250D01*
X127264275Y-148796981D01*
X127263535Y-148809399D01*
X127262864Y-148812673D01*
X127257283Y-148809916D01*
X127244200Y-148803327D01*
X127225163Y-148793690D01*
X127201721Y-148781788D01*
X127180314Y-148770896D01*
X127141698Y-148750829D01*
X127100862Y-148728887D01*
X127058938Y-148705739D01*
X127017057Y-148682056D01*
X126976352Y-148658507D01*
X126937955Y-148635761D01*
X126902997Y-148614489D01*
X126872611Y-148595360D01*
X126847928Y-148579044D01*
X126830081Y-148566210D01*
X126820831Y-148558225D01*
X126814249Y-148550666D01*
X126808850Y-148542650D01*
X126804520Y-148533137D01*
X126801147Y-148521087D01*
X126798616Y-148505461D01*
X126796813Y-148485220D01*
X126795626Y-148459323D01*
X126794939Y-148426732D01*
X126794640Y-148386406D01*
X126794615Y-148337307D01*
X126794648Y-148318851D01*
X126795035Y-148135340D01*
X126809728Y-148179617D01*
X126821842Y-148212553D01*
X126833817Y-148236999D01*
X126846651Y-148254564D01*
X126861343Y-148266853D01*
X126865380Y-148269266D01*
X126876734Y-148273889D01*
X126895722Y-148279770D01*
X126920000Y-148286255D01*
X126947225Y-148292691D01*
X126956820Y-148294769D01*
X126977504Y-148299007D01*
X127004099Y-148304256D01*
X127035093Y-148310236D01*
X127068977Y-148316670D01*
X127104241Y-148323278D01*
X127139374Y-148329782D01*
X127172867Y-148335903D01*
X127203209Y-148341363D01*
X127228891Y-148345882D01*
X127248401Y-148349183D01*
X127260231Y-148350986D01*
X127262846Y-148351240D01*
X127263635Y-148356152D01*
X127264370Y-148370216D01*
X127265034Y-148392426D01*
X127265610Y-148421774D01*
X127266081Y-148457252D01*
X127266430Y-148497854D01*
X127266642Y-148542572D01*
X127266700Y-148582803D01*
X127373380Y-148582803D01*
X127373380Y-148437793D01*
X127384810Y-148435400D01*
X127393124Y-148433696D01*
X127409705Y-148430327D01*
X127432862Y-148425634D01*
X127460903Y-148419962D01*
X127492136Y-148413653D01*
X127499131Y-148412241D01*
X127561259Y-148399115D01*
X127614133Y-148386595D01*
X127658618Y-148374374D01*
X127695581Y-148362144D01*
X127725884Y-148349600D01*
X127750395Y-148336432D01*
X127769977Y-148322336D01*
X127780679Y-148312315D01*
X127792343Y-148298506D01*
X127806387Y-148279518D01*
X127820150Y-148258987D01*
X127822817Y-148254720D01*
X127846277Y-148216620D01*
X129349500Y-148216620D01*
X129349500Y-147675600D01*
X127845820Y-147675600D01*
X127845820Y-148137577D01*
X127794520Y-148199958D01*
X127775643Y-148222585D01*
X127757707Y-148243495D01*
X127742266Y-148260918D01*
X127730875Y-148273082D01*
X127727210Y-148276617D01*
X127717826Y-148283868D01*
X127703664Y-148293594D01*
X127687245Y-148304212D01*
X127671089Y-148314140D01*
X127657719Y-148321796D01*
X127649656Y-148325600D01*
X127648868Y-148325761D01*
X127648567Y-148321089D01*
X127648865Y-148308445D01*
X127649692Y-148289996D01*
X127650457Y-148276310D01*
X127651940Y-148253823D01*
X127653479Y-148234323D01*
X127653793Y-148231158D01*
X127590063Y-148231158D01*
X127589297Y-148244340D01*
X127587639Y-148262408D01*
X127585389Y-148282783D01*
X127582845Y-148302881D01*
X127580305Y-148320122D01*
X127578068Y-148331924D01*
X127576920Y-148335450D01*
X127571476Y-148337400D01*
X127557878Y-148340623D01*
X127538004Y-148344776D01*
X127513730Y-148349516D01*
X127486934Y-148354500D01*
X127459493Y-148359385D01*
X127433284Y-148363830D01*
X127410185Y-148367490D01*
X127392071Y-148370024D01*
X127382038Y-148371033D01*
X127377219Y-148370191D01*
X127374671Y-148365535D01*
X127373913Y-148354931D01*
X127374418Y-148337270D01*
X127375920Y-148302980D01*
X127428430Y-148283164D01*
X127266161Y-148283164D01*
X127265429Y-148294080D01*
X127262995Y-148299126D01*
X127258400Y-148300433D01*
X127257821Y-148300440D01*
X127250085Y-148299579D01*
X127234062Y-148297181D01*
X127211458Y-148293523D01*
X127183982Y-148288883D01*
X127153343Y-148283537D01*
X127150433Y-148283021D01*
X127120229Y-148277589D01*
X127093659Y-148272681D01*
X127072263Y-148268593D01*
X127057585Y-148265620D01*
X127051166Y-148264058D01*
X127051016Y-148263971D01*
X127049593Y-148257865D01*
X127048755Y-148249717D01*
X126997145Y-148249717D01*
X126996717Y-148254688D01*
X126996588Y-148254720D01*
X126991019Y-148253705D01*
X126977802Y-148250978D01*
X126959213Y-148247014D01*
X126946833Y-148244328D01*
X126925819Y-148239568D01*
X126908547Y-148235331D01*
X126897440Y-148232229D01*
X126894821Y-148231217D01*
X126891329Y-148226047D01*
X126884075Y-148213145D01*
X126873790Y-148193890D01*
X126861206Y-148169660D01*
X126847057Y-148141834D01*
X126842340Y-148132439D01*
X126794260Y-148036381D01*
X126794260Y-147675600D01*
X126895860Y-147675600D01*
X126895860Y-147791625D01*
X126896029Y-147832592D01*
X126896499Y-147877216D01*
X126897214Y-147922073D01*
X126898120Y-147963744D01*
X126899163Y-147998808D01*
X126899204Y-147999967D01*
X126902548Y-148092284D01*
X126947464Y-148116284D01*
X126992380Y-148140285D01*
X126992380Y-148181627D01*
X126992772Y-148203414D01*
X126993807Y-148223226D01*
X126995277Y-148237293D01*
X126995555Y-148238845D01*
X126997145Y-148249717D01*
X127048755Y-148249717D01*
X127048239Y-148244713D01*
X127047060Y-148227134D01*
X127046164Y-148207745D01*
X127045659Y-148189166D01*
X127045651Y-148174016D01*
X127046249Y-148164911D01*
X127046888Y-148163430D01*
X127052696Y-148164884D01*
X127066766Y-148168869D01*
X127087641Y-148174959D01*
X127113863Y-148182727D01*
X127143976Y-148191745D01*
X127157480Y-148195818D01*
X127264160Y-148228056D01*
X127265653Y-148264248D01*
X127266161Y-148283164D01*
X127428430Y-148283164D01*
X127481648Y-148263081D01*
X127512336Y-148251634D01*
X127539726Y-148241672D01*
X127562435Y-148233678D01*
X127579081Y-148228134D01*
X127588280Y-148225521D01*
X127589639Y-148225445D01*
X127590063Y-148231158D01*
X127653793Y-148231158D01*
X127654840Y-148220620D01*
X127655425Y-148216589D01*
X127661103Y-148208809D01*
X127675805Y-148198014D01*
X127699774Y-148184035D01*
X127707634Y-148179815D01*
X127757837Y-148153230D01*
X127761189Y-148038054D01*
X127762269Y-147995065D01*
X127763213Y-147946392D01*
X127763959Y-147896099D01*
X127764445Y-147848245D01*
X127764610Y-147810669D01*
X127764765Y-147777274D01*
X127765161Y-147746781D01*
X127765756Y-147720839D01*
X127766507Y-147701100D01*
X127767374Y-147689212D01*
X127767679Y-147687399D01*
X127728433Y-147687399D01*
X127727976Y-147701966D01*
X127726953Y-147717510D01*
X127726050Y-147733145D01*
X127724903Y-147757286D01*
X127723579Y-147788279D01*
X127722146Y-147824475D01*
X127720670Y-147864222D01*
X127719218Y-147905869D01*
X127718682Y-147921980D01*
X127717003Y-147972901D01*
X127715549Y-148014629D01*
X127714200Y-148048126D01*
X127712833Y-148074355D01*
X127711329Y-148094275D01*
X127709565Y-148108849D01*
X127707420Y-148119038D01*
X127704774Y-148125804D01*
X127701505Y-148130109D01*
X127697493Y-148132913D01*
X127692615Y-148135180D01*
X127691779Y-148135542D01*
X127677866Y-148141102D01*
X127670792Y-148141789D01*
X127668281Y-148137218D01*
X127668019Y-148131530D01*
X127668464Y-148123709D01*
X127669720Y-148107100D01*
X127671669Y-148083036D01*
X127674195Y-148052844D01*
X127677179Y-148017857D01*
X127680505Y-147979403D01*
X127684055Y-147938815D01*
X127687711Y-147897421D01*
X127691356Y-147856552D01*
X127694873Y-147817539D01*
X127698143Y-147781712D01*
X127701051Y-147750401D01*
X127703477Y-147724936D01*
X127705305Y-147706648D01*
X127706372Y-147697190D01*
X127709246Y-147683152D01*
X127712865Y-147678140D01*
X127671055Y-147678140D01*
X127639785Y-147911820D01*
X127633368Y-147959666D01*
X127627309Y-148004631D01*
X127621751Y-148045668D01*
X127616837Y-148081732D01*
X127612710Y-148111779D01*
X127609512Y-148134762D01*
X127607387Y-148149638D01*
X127606518Y-148155189D01*
X127602265Y-148161205D01*
X127591133Y-148168230D01*
X127572027Y-148176860D01*
X127553720Y-148184027D01*
X127532871Y-148191876D01*
X127515918Y-148198241D01*
X127504874Y-148202367D01*
X127501650Y-148203547D01*
X127501289Y-148198813D01*
X127500967Y-148185333D01*
X127500701Y-148164522D01*
X127500506Y-148137792D01*
X127500400Y-148107132D01*
X127459740Y-148107132D01*
X127459740Y-148223705D01*
X127420370Y-148236155D01*
X127401591Y-148242011D01*
X127386608Y-148246528D01*
X127378004Y-148248933D01*
X127377093Y-148249122D01*
X127376021Y-148244439D01*
X127375184Y-148231033D01*
X127374612Y-148210340D01*
X127374341Y-148183797D01*
X127374343Y-148182520D01*
X127266700Y-148182520D01*
X127245553Y-148177768D01*
X127231232Y-148174116D01*
X127221097Y-148170753D01*
X127219407Y-148169927D01*
X127218501Y-148164479D01*
X127217893Y-148150596D01*
X127217561Y-148129997D01*
X127217479Y-148104403D01*
X127217624Y-148075532D01*
X127217974Y-148045104D01*
X127218503Y-148014839D01*
X127219188Y-147986456D01*
X127220006Y-147961676D01*
X127220933Y-147942217D01*
X127221945Y-147929800D01*
X127222765Y-147926121D01*
X127227994Y-147924699D01*
X127239776Y-147922478D01*
X127245301Y-147921563D01*
X127266700Y-147918141D01*
X127266700Y-148182520D01*
X127374343Y-148182520D01*
X127374400Y-148152839D01*
X127374553Y-148137106D01*
X127375920Y-148024572D01*
X127415781Y-148007566D01*
X127434069Y-147999859D01*
X127448460Y-147993974D01*
X127456670Y-147990838D01*
X127457691Y-147990560D01*
X127458275Y-147995403D01*
X127458793Y-148008986D01*
X127459223Y-148029890D01*
X127459537Y-148056695D01*
X127459713Y-148087980D01*
X127459740Y-148107132D01*
X127500400Y-148107132D01*
X127500398Y-148106559D01*
X127500380Y-148087405D01*
X127500380Y-147970890D01*
X127538480Y-147949472D01*
X127568611Y-147817696D01*
X127576765Y-147782371D01*
X127584332Y-147750215D01*
X127590983Y-147722589D01*
X127596385Y-147700849D01*
X127600207Y-147686354D01*
X127602086Y-147680509D01*
X127608881Y-147677711D01*
X127623414Y-147676426D01*
X127638242Y-147676619D01*
X127671055Y-147678140D01*
X127712865Y-147678140D01*
X127713831Y-147676803D01*
X127719588Y-147675600D01*
X127724594Y-147676237D01*
X127727424Y-147679496D01*
X127728433Y-147687399D01*
X127767679Y-147687399D01*
X127767742Y-147687030D01*
X127770149Y-147681141D01*
X127774989Y-147677715D01*
X127784596Y-147676092D01*
X127801300Y-147675617D01*
X127808313Y-147675600D01*
X127845820Y-147675600D01*
X129349500Y-147675600D01*
X129349500Y-147675145D01*
X127560154Y-147675145D01*
X127543510Y-147745222D01*
X127536188Y-147776198D01*
X127528494Y-147808980D01*
X127521336Y-147839696D01*
X127515619Y-147864472D01*
X127515537Y-147864830D01*
X127510348Y-147885661D01*
X127505428Y-147902172D01*
X127501452Y-147912253D01*
X127499661Y-147914360D01*
X127498374Y-147909491D01*
X127497362Y-147895730D01*
X127496660Y-147874337D01*
X127496301Y-147846578D01*
X127496321Y-147813715D01*
X127496477Y-147796250D01*
X127497840Y-147678140D01*
X127528997Y-147676642D01*
X127550684Y-147675600D01*
X127449580Y-147675600D01*
X127449580Y-147948618D01*
X127422910Y-147956479D01*
X127405616Y-147961043D01*
X127390691Y-147964077D01*
X127384810Y-147964750D01*
X127373380Y-147965160D01*
X127373380Y-147915787D01*
X127171282Y-147915787D01*
X127168268Y-147962063D01*
X127166797Y-147986069D01*
X127165087Y-148016188D01*
X127163361Y-148048382D01*
X127161985Y-148075650D01*
X127160038Y-148106981D01*
X127157716Y-148128692D01*
X127155048Y-148140584D01*
X127153031Y-148142960D01*
X127145990Y-148141434D01*
X127131766Y-148137336D01*
X127112790Y-148131388D01*
X127101148Y-148127569D01*
X127054949Y-148112178D01*
X127051617Y-148001839D01*
X127050523Y-147959603D01*
X127049579Y-147911693D01*
X127048847Y-147862284D01*
X127048393Y-147815550D01*
X127048273Y-147783257D01*
X127048261Y-147675600D01*
X126997460Y-147675600D01*
X126997460Y-147758597D01*
X126997305Y-147789226D01*
X126996872Y-147827043D01*
X126996208Y-147869078D01*
X126995363Y-147912364D01*
X126994385Y-147953933D01*
X126994117Y-147964004D01*
X126990774Y-148086415D01*
X126931420Y-148056453D01*
X126931420Y-147675600D01*
X126997460Y-147675600D01*
X127048261Y-147675600D01*
X127048260Y-147675015D01*
X127069850Y-147676577D01*
X127091440Y-147678140D01*
X127099700Y-147752710D01*
X127102982Y-147782418D01*
X127106189Y-147811580D01*
X127108998Y-147837252D01*
X127111086Y-147856487D01*
X127111449Y-147859857D01*
X127114937Y-147892434D01*
X127143109Y-147904111D01*
X127171282Y-147915787D01*
X127373380Y-147915787D01*
X127373380Y-147772769D01*
X127266700Y-147772769D01*
X127266700Y-147869938D01*
X127245301Y-147866516D01*
X127231999Y-147864200D01*
X127223969Y-147862441D01*
X127223012Y-147862057D01*
X127223525Y-147856969D01*
X127225489Y-147843446D01*
X127228658Y-147823069D01*
X127232785Y-147797421D01*
X127237587Y-147768310D01*
X127243810Y-147732496D01*
X127249006Y-147706047D01*
X127253349Y-147688236D01*
X127257013Y-147678339D01*
X127258548Y-147676870D01*
X127200634Y-147676870D01*
X127199981Y-147682057D01*
X127198181Y-147695726D01*
X127195446Y-147716286D01*
X127191986Y-147742151D01*
X127188013Y-147771732D01*
X127187960Y-147772120D01*
X127183982Y-147801737D01*
X127180515Y-147827658D01*
X127177769Y-147848295D01*
X127175956Y-147862060D01*
X127175287Y-147867363D01*
X127175287Y-147867370D01*
X127170927Y-147868349D01*
X127163381Y-147868640D01*
X127159002Y-147868293D01*
X127155668Y-147866307D01*
X127153036Y-147861259D01*
X127150761Y-147851728D01*
X127148500Y-147836291D01*
X127145909Y-147813526D01*
X127142800Y-147783550D01*
X127139753Y-147754431D01*
X127136876Y-147728187D01*
X127134395Y-147706776D01*
X127132533Y-147692155D01*
X127131723Y-147687030D01*
X127131060Y-147681068D01*
X127133543Y-147677649D01*
X127141226Y-147676068D01*
X127156161Y-147675620D01*
X127165004Y-147675600D01*
X127182555Y-147675765D01*
X127195276Y-147676201D01*
X127200604Y-147676816D01*
X127200634Y-147676870D01*
X127258548Y-147676870D01*
X127259876Y-147675600D01*
X127262321Y-147677454D01*
X127264135Y-147683792D01*
X127265398Y-147695774D01*
X127266192Y-147714559D01*
X127266598Y-147741308D01*
X127266700Y-147772769D01*
X127373380Y-147772769D01*
X127373380Y-147675600D01*
X127449580Y-147675600D01*
X127550684Y-147675600D01*
X127560154Y-147675145D01*
X129349500Y-147675145D01*
X129349500Y-147599400D01*
X125285500Y-147599400D01*
X125285500Y-149834600D01*
D11*
X128210000Y-135830000D02*
X128210000Y-137160000D01*
X129540000Y-135830000D02*
X128210000Y-135830000D01*
X130810000Y-135830000D02*
X130810000Y-138490000D01*
X130810000Y-138490000D02*
X138490000Y-138490000D01*
X130810000Y-135830000D02*
X138490000Y-135830000D01*
X138490000Y-135830000D02*
X138490000Y-138490000D01*
X138490000Y-144720000D02*
X138490000Y-147380000D01*
X130810000Y-144720000D02*
X138490000Y-144720000D01*
X130810000Y-147380000D02*
X138490000Y-147380000D01*
X130810000Y-144720000D02*
X130810000Y-147380000D01*
X129540000Y-144720000D02*
X128210000Y-144720000D01*
X128210000Y-144720000D02*
X128210000Y-146050000D01*
D12*
X126662380Y-136826666D02*
X127376666Y-136826666D01*
X127519523Y-136779047D01*
X127614761Y-136683809D01*
X127662380Y-136540952D01*
X127662380Y-136445714D01*
X126757619Y-137255238D02*
X126710000Y-137302857D01*
X126662380Y-137398095D01*
X126662380Y-137636190D01*
X126710000Y-137731428D01*
X126757619Y-137779047D01*
X126852857Y-137826666D01*
X126948095Y-137826666D01*
X127090952Y-137779047D01*
X127662380Y-137207619D01*
X127662380Y-137826666D01*
X126662380Y-145716666D02*
X127376666Y-145716666D01*
X127519523Y-145669047D01*
X127614761Y-145573809D01*
X127662380Y-145430952D01*
X127662380Y-145335714D01*
X126662380Y-146097619D02*
X126662380Y-146716666D01*
X127043333Y-146383333D01*
X127043333Y-146526190D01*
X127090952Y-146621428D01*
X127138571Y-146669047D01*
X127233809Y-146716666D01*
X127471904Y-146716666D01*
X127567142Y-146669047D01*
X127614761Y-146621428D01*
X127662380Y-146526190D01*
X127662380Y-146240476D01*
X127614761Y-146145238D01*
X127567142Y-146097619D01*
M02*
