G04 #@! TF.GenerationSoftware,KiCad,Pcbnew,(5.1.2)-2*
G04 #@! TF.CreationDate,2022-10-24T21:46:32-05:00*
G04 #@! TF.ProjectId,nrf24l01_breakout,6e726632-346c-4303-915f-627265616b6f,v1.0*
G04 #@! TF.SameCoordinates,Original*
G04 #@! TF.FileFunction,Legend,Top*
G04 #@! TF.FilePolarity,Positive*
%FSLAX46Y46*%
G04 Gerber Fmt 4.6, Leading zero omitted, Abs format (unit mm)*
G04 Created by KiCad (PCBNEW (5.1.2)-2) date 2022-10-24 21:46:32*
%MOMM*%
%LPD*%
G04 APERTURE LIST*
%ADD10C,0.120000*%
%ADD11C,0.250000*%
%ADD12C,0.010000*%
%ADD13C,0.125000*%
%ADD14C,0.150000*%
G04 APERTURE END LIST*
D10*
X125730000Y-138684000D02*
X125730000Y-138938000D01*
X144272000Y-138684000D02*
X125730000Y-138684000D01*
X144272000Y-140716000D02*
X144272000Y-138684000D01*
X141986000Y-140716000D02*
X144272000Y-140716000D01*
X141986000Y-141986000D02*
X141986000Y-140716000D01*
X147574000Y-141986000D02*
X141986000Y-141986000D01*
X147574000Y-144272000D02*
X147574000Y-141986000D01*
X125730000Y-144272000D02*
X147574000Y-144272000D01*
X125730000Y-138938000D02*
X125730000Y-144272000D01*
D11*
X129723428Y-139513714D02*
X129723428Y-140180380D01*
X129723428Y-139608952D02*
X129771047Y-139561333D01*
X129866285Y-139513714D01*
X130009142Y-139513714D01*
X130104380Y-139561333D01*
X130152000Y-139656571D01*
X130152000Y-140180380D01*
X131199619Y-140180380D02*
X130866285Y-139704190D01*
X130628190Y-140180380D02*
X130628190Y-139180380D01*
X131009142Y-139180380D01*
X131104380Y-139228000D01*
X131152000Y-139275619D01*
X131199619Y-139370857D01*
X131199619Y-139513714D01*
X131152000Y-139608952D01*
X131104380Y-139656571D01*
X131009142Y-139704190D01*
X130628190Y-139704190D01*
X131961523Y-139656571D02*
X131628190Y-139656571D01*
X131628190Y-140180380D02*
X131628190Y-139180380D01*
X132104380Y-139180380D01*
X132437714Y-139275619D02*
X132485333Y-139228000D01*
X132580571Y-139180380D01*
X132818666Y-139180380D01*
X132913904Y-139228000D01*
X132961523Y-139275619D01*
X133009142Y-139370857D01*
X133009142Y-139466095D01*
X132961523Y-139608952D01*
X132390095Y-140180380D01*
X133009142Y-140180380D01*
X133866285Y-139513714D02*
X133866285Y-140180380D01*
X133628190Y-139132761D02*
X133390095Y-139847047D01*
X134009142Y-139847047D01*
X134532952Y-140180380D02*
X134437714Y-140132761D01*
X134390095Y-140037523D01*
X134390095Y-139180380D01*
X135104380Y-139180380D02*
X135199619Y-139180380D01*
X135294857Y-139228000D01*
X135342476Y-139275619D01*
X135390095Y-139370857D01*
X135437714Y-139561333D01*
X135437714Y-139799428D01*
X135390095Y-139989904D01*
X135342476Y-140085142D01*
X135294857Y-140132761D01*
X135199619Y-140180380D01*
X135104380Y-140180380D01*
X135009142Y-140132761D01*
X134961523Y-140085142D01*
X134913904Y-139989904D01*
X134866285Y-139799428D01*
X134866285Y-139561333D01*
X134913904Y-139370857D01*
X134961523Y-139275619D01*
X135009142Y-139228000D01*
X135104380Y-139180380D01*
X136390095Y-140180380D02*
X135818666Y-140180380D01*
X136104380Y-140180380D02*
X136104380Y-139180380D01*
X136009142Y-139323238D01*
X135913904Y-139418476D01*
X135818666Y-139466095D01*
X137580571Y-140180380D02*
X137580571Y-139180380D01*
X137580571Y-139561333D02*
X137675809Y-139513714D01*
X137866285Y-139513714D01*
X137961523Y-139561333D01*
X138009142Y-139608952D01*
X138056761Y-139704190D01*
X138056761Y-139989904D01*
X138009142Y-140085142D01*
X137961523Y-140132761D01*
X137866285Y-140180380D01*
X137675809Y-140180380D01*
X137580571Y-140132761D01*
X138485333Y-140180380D02*
X138485333Y-139513714D01*
X138485333Y-139704190D02*
X138532952Y-139608952D01*
X138580571Y-139561333D01*
X138675809Y-139513714D01*
X138771047Y-139513714D01*
X139485333Y-140132761D02*
X139390095Y-140180380D01*
X139199619Y-140180380D01*
X139104380Y-140132761D01*
X139056761Y-140037523D01*
X139056761Y-139656571D01*
X139104380Y-139561333D01*
X139199619Y-139513714D01*
X139390095Y-139513714D01*
X139485333Y-139561333D01*
X139532952Y-139656571D01*
X139532952Y-139751809D01*
X139056761Y-139847047D01*
X140390095Y-140180380D02*
X140390095Y-139656571D01*
X140342476Y-139561333D01*
X140247238Y-139513714D01*
X140056761Y-139513714D01*
X139961523Y-139561333D01*
X140390095Y-140132761D02*
X140294857Y-140180380D01*
X140056761Y-140180380D01*
X139961523Y-140132761D01*
X139913904Y-140037523D01*
X139913904Y-139942285D01*
X139961523Y-139847047D01*
X140056761Y-139799428D01*
X140294857Y-139799428D01*
X140390095Y-139751809D01*
X140866285Y-140180380D02*
X140866285Y-139180380D01*
X140961523Y-139799428D02*
X141247238Y-140180380D01*
X141247238Y-139513714D02*
X140866285Y-139894666D01*
X141818666Y-140180380D02*
X141723428Y-140132761D01*
X141675809Y-140085142D01*
X141628190Y-139989904D01*
X141628190Y-139704190D01*
X141675809Y-139608952D01*
X141723428Y-139561333D01*
X141818666Y-139513714D01*
X141961523Y-139513714D01*
X142056761Y-139561333D01*
X142104380Y-139608952D01*
X142152000Y-139704190D01*
X142152000Y-139989904D01*
X142104380Y-140085142D01*
X142056761Y-140132761D01*
X141961523Y-140180380D01*
X141818666Y-140180380D01*
X143009142Y-139513714D02*
X143009142Y-140180380D01*
X142580571Y-139513714D02*
X142580571Y-140037523D01*
X142628190Y-140132761D01*
X142723428Y-140180380D01*
X142866285Y-140180380D01*
X142961523Y-140132761D01*
X143009142Y-140085142D01*
X143342476Y-139513714D02*
X143723428Y-139513714D01*
X143485333Y-139180380D02*
X143485333Y-140037523D01*
X143532952Y-140132761D01*
X143628190Y-140180380D01*
X143723428Y-140180380D01*
X135128190Y-140930380D02*
X135461523Y-141930380D01*
X135794857Y-140930380D01*
X136652000Y-141930380D02*
X136080571Y-141930380D01*
X136366285Y-141930380D02*
X136366285Y-140930380D01*
X136271047Y-141073238D01*
X136175809Y-141168476D01*
X136080571Y-141216095D01*
X137080571Y-141835142D02*
X137128190Y-141882761D01*
X137080571Y-141930380D01*
X137032952Y-141882761D01*
X137080571Y-141835142D01*
X137080571Y-141930380D01*
X137747238Y-140930380D02*
X137842476Y-140930380D01*
X137937714Y-140978000D01*
X137985333Y-141025619D01*
X138032952Y-141120857D01*
X138080571Y-141311333D01*
X138080571Y-141549428D01*
X138032952Y-141739904D01*
X137985333Y-141835142D01*
X137937714Y-141882761D01*
X137842476Y-141930380D01*
X137747238Y-141930380D01*
X137652000Y-141882761D01*
X137604380Y-141835142D01*
X137556761Y-141739904D01*
X137509142Y-141549428D01*
X137509142Y-141311333D01*
X137556761Y-141120857D01*
X137604380Y-141025619D01*
X137652000Y-140978000D01*
X137747238Y-140930380D01*
X126199619Y-142680380D02*
X126199619Y-143489904D01*
X126247238Y-143585142D01*
X126294857Y-143632761D01*
X126390095Y-143680380D01*
X126580571Y-143680380D01*
X126675809Y-143632761D01*
X126723428Y-143585142D01*
X126771047Y-143489904D01*
X126771047Y-142680380D01*
X127247238Y-143013714D02*
X127247238Y-143680380D01*
X127247238Y-143108952D02*
X127294857Y-143061333D01*
X127390095Y-143013714D01*
X127532952Y-143013714D01*
X127628190Y-143061333D01*
X127675809Y-143156571D01*
X127675809Y-143680380D01*
X128152000Y-143680380D02*
X128152000Y-143013714D01*
X128152000Y-142680380D02*
X128104380Y-142728000D01*
X128152000Y-142775619D01*
X128199619Y-142728000D01*
X128152000Y-142680380D01*
X128152000Y-142775619D01*
X128532952Y-143013714D02*
X128771047Y-143680380D01*
X129009142Y-143013714D01*
X129771047Y-143632761D02*
X129675809Y-143680380D01*
X129485333Y-143680380D01*
X129390095Y-143632761D01*
X129342476Y-143537523D01*
X129342476Y-143156571D01*
X129390095Y-143061333D01*
X129485333Y-143013714D01*
X129675809Y-143013714D01*
X129771047Y-143061333D01*
X129818666Y-143156571D01*
X129818666Y-143251809D01*
X129342476Y-143347047D01*
X130247238Y-143680380D02*
X130247238Y-143013714D01*
X130247238Y-143204190D02*
X130294857Y-143108952D01*
X130342476Y-143061333D01*
X130437714Y-143013714D01*
X130532952Y-143013714D01*
X130818666Y-143632761D02*
X130913904Y-143680380D01*
X131104380Y-143680380D01*
X131199619Y-143632761D01*
X131247238Y-143537523D01*
X131247238Y-143489904D01*
X131199619Y-143394666D01*
X131104380Y-143347047D01*
X130961523Y-143347047D01*
X130866285Y-143299428D01*
X130818666Y-143204190D01*
X130818666Y-143156571D01*
X130866285Y-143061333D01*
X130961523Y-143013714D01*
X131104380Y-143013714D01*
X131199619Y-143061333D01*
X131675809Y-143680380D02*
X131675809Y-143013714D01*
X131675809Y-142680380D02*
X131628190Y-142728000D01*
X131675809Y-142775619D01*
X131723428Y-142728000D01*
X131675809Y-142680380D01*
X131675809Y-142775619D01*
X132580571Y-143680380D02*
X132580571Y-142680380D01*
X132580571Y-143632761D02*
X132485333Y-143680380D01*
X132294857Y-143680380D01*
X132199619Y-143632761D01*
X132152000Y-143585142D01*
X132104380Y-143489904D01*
X132104380Y-143204190D01*
X132152000Y-143108952D01*
X132199619Y-143061333D01*
X132294857Y-143013714D01*
X132485333Y-143013714D01*
X132580571Y-143061333D01*
X133485333Y-143680380D02*
X133485333Y-143156571D01*
X133437714Y-143061333D01*
X133342476Y-143013714D01*
X133152000Y-143013714D01*
X133056761Y-143061333D01*
X133485333Y-143632761D02*
X133390095Y-143680380D01*
X133152000Y-143680380D01*
X133056761Y-143632761D01*
X133009142Y-143537523D01*
X133009142Y-143442285D01*
X133056761Y-143347047D01*
X133152000Y-143299428D01*
X133390095Y-143299428D01*
X133485333Y-143251809D01*
X134390095Y-143680380D02*
X134390095Y-142680380D01*
X134390095Y-143632761D02*
X134294857Y-143680380D01*
X134104380Y-143680380D01*
X134009142Y-143632761D01*
X133961523Y-143585142D01*
X133913904Y-143489904D01*
X133913904Y-143204190D01*
X133961523Y-143108952D01*
X134009142Y-143061333D01*
X134104380Y-143013714D01*
X134294857Y-143013714D01*
X134390095Y-143061333D01*
X135580571Y-143632761D02*
X135723428Y-143680380D01*
X135961523Y-143680380D01*
X136056761Y-143632761D01*
X136104380Y-143585142D01*
X136152000Y-143489904D01*
X136152000Y-143394666D01*
X136104380Y-143299428D01*
X136056761Y-143251809D01*
X135961523Y-143204190D01*
X135771047Y-143156571D01*
X135675809Y-143108952D01*
X135628190Y-143061333D01*
X135580571Y-142966095D01*
X135580571Y-142870857D01*
X135628190Y-142775619D01*
X135675809Y-142728000D01*
X135771047Y-142680380D01*
X136009142Y-142680380D01*
X136152000Y-142728000D01*
X136961523Y-143632761D02*
X136866285Y-143680380D01*
X136675809Y-143680380D01*
X136580571Y-143632761D01*
X136532952Y-143537523D01*
X136532952Y-143156571D01*
X136580571Y-143061333D01*
X136675809Y-143013714D01*
X136866285Y-143013714D01*
X136961523Y-143061333D01*
X137009142Y-143156571D01*
X137009142Y-143251809D01*
X136532952Y-143347047D01*
X137437714Y-143680380D02*
X137437714Y-143013714D01*
X137437714Y-143204190D02*
X137485333Y-143108952D01*
X137532952Y-143061333D01*
X137628190Y-143013714D01*
X137723428Y-143013714D01*
X138485333Y-143013714D02*
X138485333Y-143823238D01*
X138437714Y-143918476D01*
X138390095Y-143966095D01*
X138294857Y-144013714D01*
X138152000Y-144013714D01*
X138056761Y-143966095D01*
X138485333Y-143632761D02*
X138390095Y-143680380D01*
X138199619Y-143680380D01*
X138104380Y-143632761D01*
X138056761Y-143585142D01*
X138009142Y-143489904D01*
X138009142Y-143204190D01*
X138056761Y-143108952D01*
X138104380Y-143061333D01*
X138199619Y-143013714D01*
X138390095Y-143013714D01*
X138485333Y-143061333D01*
X138961523Y-143680380D02*
X138961523Y-143013714D01*
X138961523Y-142680380D02*
X138913904Y-142728000D01*
X138961523Y-142775619D01*
X139009142Y-142728000D01*
X138961523Y-142680380D01*
X138961523Y-142775619D01*
X139580571Y-143680380D02*
X139485333Y-143632761D01*
X139437714Y-143585142D01*
X139390095Y-143489904D01*
X139390095Y-143204190D01*
X139437714Y-143108952D01*
X139485333Y-143061333D01*
X139580571Y-143013714D01*
X139723428Y-143013714D01*
X139818666Y-143061333D01*
X139866285Y-143108952D01*
X139913904Y-143204190D01*
X139913904Y-143489904D01*
X139866285Y-143585142D01*
X139818666Y-143632761D01*
X139723428Y-143680380D01*
X139580571Y-143680380D01*
X141056761Y-143394666D02*
X141532952Y-143394666D01*
X140961523Y-143680380D02*
X141294857Y-142680380D01*
X141628190Y-143680380D01*
X141961523Y-143680380D02*
X141961523Y-143013714D01*
X141961523Y-143204190D02*
X142009142Y-143108952D01*
X142056761Y-143061333D01*
X142152000Y-143013714D01*
X142247238Y-143013714D01*
X142580571Y-143680380D02*
X142580571Y-142680380D01*
X142580571Y-143061333D02*
X142675809Y-143013714D01*
X142866285Y-143013714D01*
X142961523Y-143061333D01*
X143009142Y-143108952D01*
X143056761Y-143204190D01*
X143056761Y-143489904D01*
X143009142Y-143585142D01*
X142961523Y-143632761D01*
X142866285Y-143680380D01*
X142675809Y-143680380D01*
X142580571Y-143632761D01*
X143628190Y-143680380D02*
X143532952Y-143632761D01*
X143485333Y-143585142D01*
X143437714Y-143489904D01*
X143437714Y-143204190D01*
X143485333Y-143108952D01*
X143532952Y-143061333D01*
X143628190Y-143013714D01*
X143771047Y-143013714D01*
X143866285Y-143061333D01*
X143913904Y-143108952D01*
X143961523Y-143204190D01*
X143961523Y-143489904D01*
X143913904Y-143585142D01*
X143866285Y-143632761D01*
X143771047Y-143680380D01*
X143628190Y-143680380D01*
X144532952Y-143680380D02*
X144437714Y-143632761D01*
X144390095Y-143537523D01*
X144390095Y-142680380D01*
X145294857Y-143632761D02*
X145199619Y-143680380D01*
X145009142Y-143680380D01*
X144913904Y-143632761D01*
X144866285Y-143537523D01*
X144866285Y-143156571D01*
X144913904Y-143061333D01*
X145009142Y-143013714D01*
X145199619Y-143013714D01*
X145294857Y-143061333D01*
X145342476Y-143156571D01*
X145342476Y-143251809D01*
X144866285Y-143347047D01*
X146199619Y-143680380D02*
X146199619Y-142680380D01*
X146199619Y-143632761D02*
X146104380Y-143680380D01*
X145913904Y-143680380D01*
X145818666Y-143632761D01*
X145771047Y-143585142D01*
X145723428Y-143489904D01*
X145723428Y-143204190D01*
X145771047Y-143108952D01*
X145818666Y-143061333D01*
X145913904Y-143013714D01*
X146104380Y-143013714D01*
X146199619Y-143061333D01*
X147104380Y-143680380D02*
X147104380Y-143156571D01*
X147056761Y-143061333D01*
X146961523Y-143013714D01*
X146771047Y-143013714D01*
X146675809Y-143061333D01*
X147104380Y-143632761D02*
X147009142Y-143680380D01*
X146771047Y-143680380D01*
X146675809Y-143632761D01*
X146628190Y-143537523D01*
X146628190Y-143442285D01*
X146675809Y-143347047D01*
X146771047Y-143299428D01*
X147009142Y-143299428D01*
X147104380Y-143251809D01*
D12*
G36*
X145478500Y-146913600D02*
G01*
X141414500Y-146913600D01*
X141414500Y-145295620D01*
X142917723Y-145295620D01*
X142919221Y-145445480D01*
X142919668Y-145488416D01*
X142920119Y-145522439D01*
X142920679Y-145548794D01*
X142921449Y-145568729D01*
X142922532Y-145583488D01*
X142924030Y-145594318D01*
X142926046Y-145602465D01*
X142928682Y-145609176D01*
X142932041Y-145615695D01*
X142933427Y-145618200D01*
X142948240Y-145638007D01*
X142970821Y-145657145D01*
X142979147Y-145662864D01*
X143004772Y-145679225D01*
X143037360Y-145699172D01*
X143074893Y-145721540D01*
X143115353Y-145745165D01*
X143156720Y-145768884D01*
X143196977Y-145791533D01*
X143234106Y-145811947D01*
X143266086Y-145828963D01*
X143276320Y-145834220D01*
X143302371Y-145847564D01*
X143326596Y-145860214D01*
X143346901Y-145871060D01*
X143361192Y-145878990D01*
X143365220Y-145881384D01*
X143377227Y-145888353D01*
X143385530Y-145892222D01*
X143386810Y-145892501D01*
X143387673Y-145887611D01*
X143388467Y-145873681D01*
X143389171Y-145851826D01*
X143389760Y-145823167D01*
X143390213Y-145788820D01*
X143390507Y-145749905D01*
X143390619Y-145707539D01*
X143390620Y-145704656D01*
X143390620Y-145661803D01*
X143497300Y-145661803D01*
X143497381Y-145709139D01*
X143497613Y-145753149D01*
X143497981Y-145792836D01*
X143498466Y-145827202D01*
X143499053Y-145855250D01*
X143499725Y-145875981D01*
X143500465Y-145888399D01*
X143501136Y-145891673D01*
X143506717Y-145888916D01*
X143519800Y-145882327D01*
X143538837Y-145872690D01*
X143562279Y-145860788D01*
X143583686Y-145849896D01*
X143622302Y-145829829D01*
X143663138Y-145807887D01*
X143705062Y-145784739D01*
X143746943Y-145761056D01*
X143787648Y-145737507D01*
X143826045Y-145714761D01*
X143861003Y-145693489D01*
X143891389Y-145674360D01*
X143916072Y-145658044D01*
X143933919Y-145645210D01*
X143943169Y-145637225D01*
X143949751Y-145629666D01*
X143955150Y-145621650D01*
X143959480Y-145612137D01*
X143962853Y-145600087D01*
X143965384Y-145584461D01*
X143967187Y-145564220D01*
X143968374Y-145538323D01*
X143969061Y-145505732D01*
X143969360Y-145465406D01*
X143969385Y-145416307D01*
X143969352Y-145397851D01*
X143968965Y-145214340D01*
X143954272Y-145258617D01*
X143942158Y-145291553D01*
X143930183Y-145315999D01*
X143917349Y-145333564D01*
X143902657Y-145345853D01*
X143898620Y-145348266D01*
X143887266Y-145352889D01*
X143868278Y-145358770D01*
X143844000Y-145365255D01*
X143816775Y-145371691D01*
X143807180Y-145373769D01*
X143786496Y-145378007D01*
X143759901Y-145383256D01*
X143728907Y-145389236D01*
X143695023Y-145395670D01*
X143659759Y-145402278D01*
X143624626Y-145408782D01*
X143591133Y-145414903D01*
X143560791Y-145420363D01*
X143535109Y-145424882D01*
X143515599Y-145428183D01*
X143503769Y-145429986D01*
X143501154Y-145430240D01*
X143500365Y-145435152D01*
X143499630Y-145449216D01*
X143498966Y-145471426D01*
X143498390Y-145500774D01*
X143497919Y-145536252D01*
X143497570Y-145576854D01*
X143497358Y-145621572D01*
X143497300Y-145661803D01*
X143390620Y-145661803D01*
X143390620Y-145516793D01*
X143379190Y-145514400D01*
X143370876Y-145512696D01*
X143354295Y-145509327D01*
X143331138Y-145504634D01*
X143303097Y-145498962D01*
X143271864Y-145492653D01*
X143264869Y-145491241D01*
X143202741Y-145478115D01*
X143149867Y-145465595D01*
X143105382Y-145453374D01*
X143068419Y-145441144D01*
X143038116Y-145428600D01*
X143013605Y-145415432D01*
X142994023Y-145401336D01*
X142983321Y-145391315D01*
X142971657Y-145377506D01*
X142957613Y-145358518D01*
X142943850Y-145337987D01*
X142941183Y-145333720D01*
X142917723Y-145295620D01*
X141414500Y-145295620D01*
X141414500Y-144754600D01*
X142918180Y-144754600D01*
X142918180Y-145216577D01*
X142969480Y-145278958D01*
X142988357Y-145301585D01*
X143006293Y-145322495D01*
X143021734Y-145339918D01*
X143033125Y-145352082D01*
X143036790Y-145355617D01*
X143046174Y-145362868D01*
X143060336Y-145372594D01*
X143076755Y-145383212D01*
X143092911Y-145393140D01*
X143106281Y-145400796D01*
X143114344Y-145404600D01*
X143115132Y-145404761D01*
X143115433Y-145400089D01*
X143115135Y-145387445D01*
X143114308Y-145368996D01*
X143113543Y-145355310D01*
X143112060Y-145332823D01*
X143110521Y-145313323D01*
X143110207Y-145310158D01*
X143173937Y-145310158D01*
X143174703Y-145323340D01*
X143176361Y-145341408D01*
X143178611Y-145361783D01*
X143181155Y-145381881D01*
X143183695Y-145399122D01*
X143185932Y-145410924D01*
X143187080Y-145414450D01*
X143192524Y-145416400D01*
X143206122Y-145419623D01*
X143225996Y-145423776D01*
X143250270Y-145428516D01*
X143277066Y-145433500D01*
X143304507Y-145438385D01*
X143330716Y-145442830D01*
X143353815Y-145446490D01*
X143371929Y-145449024D01*
X143381962Y-145450033D01*
X143386781Y-145449191D01*
X143389329Y-145444535D01*
X143390087Y-145433931D01*
X143389582Y-145416270D01*
X143388080Y-145381980D01*
X143335570Y-145362164D01*
X143497839Y-145362164D01*
X143498571Y-145373080D01*
X143501005Y-145378126D01*
X143505600Y-145379433D01*
X143506179Y-145379440D01*
X143513915Y-145378579D01*
X143529938Y-145376181D01*
X143552542Y-145372523D01*
X143580018Y-145367883D01*
X143610657Y-145362537D01*
X143613567Y-145362021D01*
X143643771Y-145356589D01*
X143670341Y-145351681D01*
X143691737Y-145347593D01*
X143706415Y-145344620D01*
X143712834Y-145343058D01*
X143712984Y-145342971D01*
X143714407Y-145336865D01*
X143715245Y-145328717D01*
X143766855Y-145328717D01*
X143767283Y-145333688D01*
X143767412Y-145333720D01*
X143772981Y-145332705D01*
X143786198Y-145329978D01*
X143804787Y-145326014D01*
X143817167Y-145323328D01*
X143838181Y-145318568D01*
X143855453Y-145314331D01*
X143866560Y-145311229D01*
X143869179Y-145310217D01*
X143872671Y-145305047D01*
X143879925Y-145292145D01*
X143890210Y-145272890D01*
X143902794Y-145248660D01*
X143916943Y-145220834D01*
X143921660Y-145211439D01*
X143969740Y-145115381D01*
X143969740Y-144754600D01*
X143868140Y-144754600D01*
X143868140Y-144870625D01*
X143867971Y-144911592D01*
X143867501Y-144956216D01*
X143866786Y-145001073D01*
X143865880Y-145042744D01*
X143864837Y-145077808D01*
X143864796Y-145078967D01*
X143861452Y-145171284D01*
X143816536Y-145195284D01*
X143771620Y-145219285D01*
X143771620Y-145260627D01*
X143771228Y-145282414D01*
X143770193Y-145302226D01*
X143768723Y-145316293D01*
X143768445Y-145317845D01*
X143766855Y-145328717D01*
X143715245Y-145328717D01*
X143715761Y-145323713D01*
X143716940Y-145306134D01*
X143717836Y-145286745D01*
X143718341Y-145268166D01*
X143718349Y-145253016D01*
X143717751Y-145243911D01*
X143717112Y-145242430D01*
X143711304Y-145243884D01*
X143697234Y-145247869D01*
X143676359Y-145253959D01*
X143650137Y-145261727D01*
X143620024Y-145270745D01*
X143606520Y-145274818D01*
X143499840Y-145307056D01*
X143498347Y-145343248D01*
X143497839Y-145362164D01*
X143335570Y-145362164D01*
X143282352Y-145342081D01*
X143251664Y-145330634D01*
X143224274Y-145320672D01*
X143201565Y-145312678D01*
X143184919Y-145307134D01*
X143175720Y-145304521D01*
X143174361Y-145304445D01*
X143173937Y-145310158D01*
X143110207Y-145310158D01*
X143109160Y-145299620D01*
X143108575Y-145295589D01*
X143102897Y-145287809D01*
X143088195Y-145277014D01*
X143064226Y-145263035D01*
X143056366Y-145258815D01*
X143006163Y-145232230D01*
X143002811Y-145117054D01*
X143001731Y-145074065D01*
X143000787Y-145025392D01*
X143000041Y-144975099D01*
X142999555Y-144927245D01*
X142999390Y-144889669D01*
X142999235Y-144856274D01*
X142998839Y-144825781D01*
X142998244Y-144799839D01*
X142997493Y-144780100D01*
X142996626Y-144768212D01*
X142996321Y-144766399D01*
X143035567Y-144766399D01*
X143036024Y-144780966D01*
X143037047Y-144796510D01*
X143037950Y-144812145D01*
X143039097Y-144836286D01*
X143040421Y-144867279D01*
X143041854Y-144903475D01*
X143043330Y-144943222D01*
X143044782Y-144984869D01*
X143045318Y-145000980D01*
X143046997Y-145051901D01*
X143048451Y-145093629D01*
X143049800Y-145127126D01*
X143051167Y-145153355D01*
X143052671Y-145173275D01*
X143054435Y-145187849D01*
X143056580Y-145198038D01*
X143059226Y-145204804D01*
X143062495Y-145209109D01*
X143066507Y-145211913D01*
X143071385Y-145214180D01*
X143072221Y-145214542D01*
X143086134Y-145220102D01*
X143093208Y-145220789D01*
X143095719Y-145216218D01*
X143095981Y-145210530D01*
X143095536Y-145202709D01*
X143094280Y-145186100D01*
X143092331Y-145162036D01*
X143089805Y-145131844D01*
X143086821Y-145096857D01*
X143083495Y-145058403D01*
X143079945Y-145017815D01*
X143076289Y-144976421D01*
X143072644Y-144935552D01*
X143069127Y-144896539D01*
X143065857Y-144860712D01*
X143062949Y-144829401D01*
X143060523Y-144803936D01*
X143058695Y-144785648D01*
X143057628Y-144776190D01*
X143054754Y-144762152D01*
X143051135Y-144757140D01*
X143092945Y-144757140D01*
X143124215Y-144990820D01*
X143130632Y-145038666D01*
X143136691Y-145083631D01*
X143142249Y-145124668D01*
X143147163Y-145160732D01*
X143151290Y-145190779D01*
X143154488Y-145213762D01*
X143156613Y-145228638D01*
X143157482Y-145234189D01*
X143161735Y-145240205D01*
X143172867Y-145247230D01*
X143191973Y-145255860D01*
X143210280Y-145263027D01*
X143231129Y-145270876D01*
X143248082Y-145277241D01*
X143259126Y-145281367D01*
X143262350Y-145282547D01*
X143262711Y-145277813D01*
X143263033Y-145264333D01*
X143263299Y-145243522D01*
X143263494Y-145216792D01*
X143263600Y-145186132D01*
X143304260Y-145186132D01*
X143304260Y-145302705D01*
X143343630Y-145315155D01*
X143362409Y-145321011D01*
X143377392Y-145325528D01*
X143385996Y-145327933D01*
X143386907Y-145328122D01*
X143387979Y-145323439D01*
X143388816Y-145310033D01*
X143389388Y-145289340D01*
X143389659Y-145262797D01*
X143389657Y-145261520D01*
X143497300Y-145261520D01*
X143518447Y-145256768D01*
X143532768Y-145253116D01*
X143542903Y-145249753D01*
X143544593Y-145248927D01*
X143545499Y-145243479D01*
X143546107Y-145229596D01*
X143546439Y-145208997D01*
X143546521Y-145183403D01*
X143546376Y-145154532D01*
X143546026Y-145124104D01*
X143545497Y-145093839D01*
X143544812Y-145065456D01*
X143543994Y-145040676D01*
X143543067Y-145021217D01*
X143542055Y-145008800D01*
X143541235Y-145005121D01*
X143536006Y-145003699D01*
X143524224Y-145001478D01*
X143518699Y-145000563D01*
X143497300Y-144997141D01*
X143497300Y-145261520D01*
X143389657Y-145261520D01*
X143389600Y-145231839D01*
X143389447Y-145216106D01*
X143388080Y-145103572D01*
X143348219Y-145086566D01*
X143329931Y-145078859D01*
X143315540Y-145072974D01*
X143307330Y-145069838D01*
X143306309Y-145069560D01*
X143305725Y-145074403D01*
X143305207Y-145087986D01*
X143304777Y-145108890D01*
X143304463Y-145135695D01*
X143304287Y-145166980D01*
X143304260Y-145186132D01*
X143263600Y-145186132D01*
X143263602Y-145185559D01*
X143263620Y-145166405D01*
X143263620Y-145049890D01*
X143225520Y-145028472D01*
X143195389Y-144896696D01*
X143187235Y-144861371D01*
X143179668Y-144829215D01*
X143173017Y-144801589D01*
X143167615Y-144779849D01*
X143163793Y-144765354D01*
X143161914Y-144759509D01*
X143155119Y-144756711D01*
X143140586Y-144755426D01*
X143125758Y-144755619D01*
X143092945Y-144757140D01*
X143051135Y-144757140D01*
X143050169Y-144755803D01*
X143044412Y-144754600D01*
X143039406Y-144755237D01*
X143036576Y-144758496D01*
X143035567Y-144766399D01*
X142996321Y-144766399D01*
X142996258Y-144766030D01*
X142993851Y-144760141D01*
X142989011Y-144756715D01*
X142979404Y-144755092D01*
X142962700Y-144754617D01*
X142955687Y-144754600D01*
X142918180Y-144754600D01*
X141414500Y-144754600D01*
X141414500Y-144754145D01*
X143203846Y-144754145D01*
X143220490Y-144824222D01*
X143227812Y-144855198D01*
X143235506Y-144887980D01*
X143242664Y-144918696D01*
X143248381Y-144943472D01*
X143248463Y-144943830D01*
X143253652Y-144964661D01*
X143258572Y-144981172D01*
X143262548Y-144991253D01*
X143264339Y-144993360D01*
X143265626Y-144988491D01*
X143266638Y-144974730D01*
X143267340Y-144953337D01*
X143267699Y-144925578D01*
X143267679Y-144892715D01*
X143267523Y-144875250D01*
X143266160Y-144757140D01*
X143235003Y-144755642D01*
X143213316Y-144754600D01*
X143314420Y-144754600D01*
X143314420Y-145027618D01*
X143341090Y-145035479D01*
X143358384Y-145040043D01*
X143373309Y-145043077D01*
X143379190Y-145043750D01*
X143390620Y-145044160D01*
X143390620Y-144994787D01*
X143592718Y-144994787D01*
X143595732Y-145041063D01*
X143597203Y-145065069D01*
X143598913Y-145095188D01*
X143600639Y-145127382D01*
X143602015Y-145154650D01*
X143603962Y-145185981D01*
X143606284Y-145207692D01*
X143608952Y-145219584D01*
X143610969Y-145221960D01*
X143618010Y-145220434D01*
X143632234Y-145216336D01*
X143651210Y-145210388D01*
X143662852Y-145206569D01*
X143709051Y-145191178D01*
X143712383Y-145080839D01*
X143713477Y-145038603D01*
X143714421Y-144990693D01*
X143715153Y-144941284D01*
X143715607Y-144894550D01*
X143715727Y-144862257D01*
X143715739Y-144754600D01*
X143766540Y-144754600D01*
X143766540Y-144837597D01*
X143766695Y-144868226D01*
X143767128Y-144906043D01*
X143767792Y-144948078D01*
X143768637Y-144991364D01*
X143769615Y-145032933D01*
X143769883Y-145043004D01*
X143773226Y-145165415D01*
X143832580Y-145135453D01*
X143832580Y-144754600D01*
X143766540Y-144754600D01*
X143715739Y-144754600D01*
X143715740Y-144754015D01*
X143694150Y-144755577D01*
X143672560Y-144757140D01*
X143664300Y-144831710D01*
X143661018Y-144861418D01*
X143657811Y-144890580D01*
X143655002Y-144916252D01*
X143652914Y-144935487D01*
X143652551Y-144938857D01*
X143649063Y-144971434D01*
X143620891Y-144983111D01*
X143592718Y-144994787D01*
X143390620Y-144994787D01*
X143390620Y-144851769D01*
X143497300Y-144851769D01*
X143497300Y-144948938D01*
X143518699Y-144945516D01*
X143532001Y-144943200D01*
X143540031Y-144941441D01*
X143540988Y-144941057D01*
X143540475Y-144935969D01*
X143538511Y-144922446D01*
X143535342Y-144902069D01*
X143531215Y-144876421D01*
X143526413Y-144847310D01*
X143520190Y-144811496D01*
X143514994Y-144785047D01*
X143510651Y-144767236D01*
X143506987Y-144757339D01*
X143505452Y-144755870D01*
X143563366Y-144755870D01*
X143564019Y-144761057D01*
X143565819Y-144774726D01*
X143568554Y-144795286D01*
X143572014Y-144821151D01*
X143575987Y-144850732D01*
X143576040Y-144851120D01*
X143580018Y-144880737D01*
X143583485Y-144906658D01*
X143586231Y-144927295D01*
X143588044Y-144941060D01*
X143588713Y-144946363D01*
X143588713Y-144946370D01*
X143593073Y-144947349D01*
X143600619Y-144947640D01*
X143604998Y-144947293D01*
X143608332Y-144945307D01*
X143610964Y-144940259D01*
X143613239Y-144930728D01*
X143615500Y-144915291D01*
X143618091Y-144892526D01*
X143621200Y-144862550D01*
X143624247Y-144833431D01*
X143627124Y-144807187D01*
X143629605Y-144785776D01*
X143631467Y-144771155D01*
X143632277Y-144766030D01*
X143632940Y-144760068D01*
X143630457Y-144756649D01*
X143622774Y-144755068D01*
X143607839Y-144754620D01*
X143598996Y-144754600D01*
X143581445Y-144754765D01*
X143568724Y-144755201D01*
X143563396Y-144755816D01*
X143563366Y-144755870D01*
X143505452Y-144755870D01*
X143504124Y-144754600D01*
X143501679Y-144756454D01*
X143499865Y-144762792D01*
X143498602Y-144774774D01*
X143497808Y-144793559D01*
X143497402Y-144820308D01*
X143497300Y-144851769D01*
X143390620Y-144851769D01*
X143390620Y-144754600D01*
X143314420Y-144754600D01*
X143213316Y-144754600D01*
X143203846Y-144754145D01*
X141414500Y-144754145D01*
X141414500Y-144678400D01*
X145478500Y-144678400D01*
X145478500Y-146913600D01*
X145478500Y-146913600D01*
G37*
X145478500Y-146913600D02*
X141414500Y-146913600D01*
X141414500Y-145295620D01*
X142917723Y-145295620D01*
X142919221Y-145445480D01*
X142919668Y-145488416D01*
X142920119Y-145522439D01*
X142920679Y-145548794D01*
X142921449Y-145568729D01*
X142922532Y-145583488D01*
X142924030Y-145594318D01*
X142926046Y-145602465D01*
X142928682Y-145609176D01*
X142932041Y-145615695D01*
X142933427Y-145618200D01*
X142948240Y-145638007D01*
X142970821Y-145657145D01*
X142979147Y-145662864D01*
X143004772Y-145679225D01*
X143037360Y-145699172D01*
X143074893Y-145721540D01*
X143115353Y-145745165D01*
X143156720Y-145768884D01*
X143196977Y-145791533D01*
X143234106Y-145811947D01*
X143266086Y-145828963D01*
X143276320Y-145834220D01*
X143302371Y-145847564D01*
X143326596Y-145860214D01*
X143346901Y-145871060D01*
X143361192Y-145878990D01*
X143365220Y-145881384D01*
X143377227Y-145888353D01*
X143385530Y-145892222D01*
X143386810Y-145892501D01*
X143387673Y-145887611D01*
X143388467Y-145873681D01*
X143389171Y-145851826D01*
X143389760Y-145823167D01*
X143390213Y-145788820D01*
X143390507Y-145749905D01*
X143390619Y-145707539D01*
X143390620Y-145704656D01*
X143390620Y-145661803D01*
X143497300Y-145661803D01*
X143497381Y-145709139D01*
X143497613Y-145753149D01*
X143497981Y-145792836D01*
X143498466Y-145827202D01*
X143499053Y-145855250D01*
X143499725Y-145875981D01*
X143500465Y-145888399D01*
X143501136Y-145891673D01*
X143506717Y-145888916D01*
X143519800Y-145882327D01*
X143538837Y-145872690D01*
X143562279Y-145860788D01*
X143583686Y-145849896D01*
X143622302Y-145829829D01*
X143663138Y-145807887D01*
X143705062Y-145784739D01*
X143746943Y-145761056D01*
X143787648Y-145737507D01*
X143826045Y-145714761D01*
X143861003Y-145693489D01*
X143891389Y-145674360D01*
X143916072Y-145658044D01*
X143933919Y-145645210D01*
X143943169Y-145637225D01*
X143949751Y-145629666D01*
X143955150Y-145621650D01*
X143959480Y-145612137D01*
X143962853Y-145600087D01*
X143965384Y-145584461D01*
X143967187Y-145564220D01*
X143968374Y-145538323D01*
X143969061Y-145505732D01*
X143969360Y-145465406D01*
X143969385Y-145416307D01*
X143969352Y-145397851D01*
X143968965Y-145214340D01*
X143954272Y-145258617D01*
X143942158Y-145291553D01*
X143930183Y-145315999D01*
X143917349Y-145333564D01*
X143902657Y-145345853D01*
X143898620Y-145348266D01*
X143887266Y-145352889D01*
X143868278Y-145358770D01*
X143844000Y-145365255D01*
X143816775Y-145371691D01*
X143807180Y-145373769D01*
X143786496Y-145378007D01*
X143759901Y-145383256D01*
X143728907Y-145389236D01*
X143695023Y-145395670D01*
X143659759Y-145402278D01*
X143624626Y-145408782D01*
X143591133Y-145414903D01*
X143560791Y-145420363D01*
X143535109Y-145424882D01*
X143515599Y-145428183D01*
X143503769Y-145429986D01*
X143501154Y-145430240D01*
X143500365Y-145435152D01*
X143499630Y-145449216D01*
X143498966Y-145471426D01*
X143498390Y-145500774D01*
X143497919Y-145536252D01*
X143497570Y-145576854D01*
X143497358Y-145621572D01*
X143497300Y-145661803D01*
X143390620Y-145661803D01*
X143390620Y-145516793D01*
X143379190Y-145514400D01*
X143370876Y-145512696D01*
X143354295Y-145509327D01*
X143331138Y-145504634D01*
X143303097Y-145498962D01*
X143271864Y-145492653D01*
X143264869Y-145491241D01*
X143202741Y-145478115D01*
X143149867Y-145465595D01*
X143105382Y-145453374D01*
X143068419Y-145441144D01*
X143038116Y-145428600D01*
X143013605Y-145415432D01*
X142994023Y-145401336D01*
X142983321Y-145391315D01*
X142971657Y-145377506D01*
X142957613Y-145358518D01*
X142943850Y-145337987D01*
X142941183Y-145333720D01*
X142917723Y-145295620D01*
X141414500Y-145295620D01*
X141414500Y-144754600D01*
X142918180Y-144754600D01*
X142918180Y-145216577D01*
X142969480Y-145278958D01*
X142988357Y-145301585D01*
X143006293Y-145322495D01*
X143021734Y-145339918D01*
X143033125Y-145352082D01*
X143036790Y-145355617D01*
X143046174Y-145362868D01*
X143060336Y-145372594D01*
X143076755Y-145383212D01*
X143092911Y-145393140D01*
X143106281Y-145400796D01*
X143114344Y-145404600D01*
X143115132Y-145404761D01*
X143115433Y-145400089D01*
X143115135Y-145387445D01*
X143114308Y-145368996D01*
X143113543Y-145355310D01*
X143112060Y-145332823D01*
X143110521Y-145313323D01*
X143110207Y-145310158D01*
X143173937Y-145310158D01*
X143174703Y-145323340D01*
X143176361Y-145341408D01*
X143178611Y-145361783D01*
X143181155Y-145381881D01*
X143183695Y-145399122D01*
X143185932Y-145410924D01*
X143187080Y-145414450D01*
X143192524Y-145416400D01*
X143206122Y-145419623D01*
X143225996Y-145423776D01*
X143250270Y-145428516D01*
X143277066Y-145433500D01*
X143304507Y-145438385D01*
X143330716Y-145442830D01*
X143353815Y-145446490D01*
X143371929Y-145449024D01*
X143381962Y-145450033D01*
X143386781Y-145449191D01*
X143389329Y-145444535D01*
X143390087Y-145433931D01*
X143389582Y-145416270D01*
X143388080Y-145381980D01*
X143335570Y-145362164D01*
X143497839Y-145362164D01*
X143498571Y-145373080D01*
X143501005Y-145378126D01*
X143505600Y-145379433D01*
X143506179Y-145379440D01*
X143513915Y-145378579D01*
X143529938Y-145376181D01*
X143552542Y-145372523D01*
X143580018Y-145367883D01*
X143610657Y-145362537D01*
X143613567Y-145362021D01*
X143643771Y-145356589D01*
X143670341Y-145351681D01*
X143691737Y-145347593D01*
X143706415Y-145344620D01*
X143712834Y-145343058D01*
X143712984Y-145342971D01*
X143714407Y-145336865D01*
X143715245Y-145328717D01*
X143766855Y-145328717D01*
X143767283Y-145333688D01*
X143767412Y-145333720D01*
X143772981Y-145332705D01*
X143786198Y-145329978D01*
X143804787Y-145326014D01*
X143817167Y-145323328D01*
X143838181Y-145318568D01*
X143855453Y-145314331D01*
X143866560Y-145311229D01*
X143869179Y-145310217D01*
X143872671Y-145305047D01*
X143879925Y-145292145D01*
X143890210Y-145272890D01*
X143902794Y-145248660D01*
X143916943Y-145220834D01*
X143921660Y-145211439D01*
X143969740Y-145115381D01*
X143969740Y-144754600D01*
X143868140Y-144754600D01*
X143868140Y-144870625D01*
X143867971Y-144911592D01*
X143867501Y-144956216D01*
X143866786Y-145001073D01*
X143865880Y-145042744D01*
X143864837Y-145077808D01*
X143864796Y-145078967D01*
X143861452Y-145171284D01*
X143816536Y-145195284D01*
X143771620Y-145219285D01*
X143771620Y-145260627D01*
X143771228Y-145282414D01*
X143770193Y-145302226D01*
X143768723Y-145316293D01*
X143768445Y-145317845D01*
X143766855Y-145328717D01*
X143715245Y-145328717D01*
X143715761Y-145323713D01*
X143716940Y-145306134D01*
X143717836Y-145286745D01*
X143718341Y-145268166D01*
X143718349Y-145253016D01*
X143717751Y-145243911D01*
X143717112Y-145242430D01*
X143711304Y-145243884D01*
X143697234Y-145247869D01*
X143676359Y-145253959D01*
X143650137Y-145261727D01*
X143620024Y-145270745D01*
X143606520Y-145274818D01*
X143499840Y-145307056D01*
X143498347Y-145343248D01*
X143497839Y-145362164D01*
X143335570Y-145362164D01*
X143282352Y-145342081D01*
X143251664Y-145330634D01*
X143224274Y-145320672D01*
X143201565Y-145312678D01*
X143184919Y-145307134D01*
X143175720Y-145304521D01*
X143174361Y-145304445D01*
X143173937Y-145310158D01*
X143110207Y-145310158D01*
X143109160Y-145299620D01*
X143108575Y-145295589D01*
X143102897Y-145287809D01*
X143088195Y-145277014D01*
X143064226Y-145263035D01*
X143056366Y-145258815D01*
X143006163Y-145232230D01*
X143002811Y-145117054D01*
X143001731Y-145074065D01*
X143000787Y-145025392D01*
X143000041Y-144975099D01*
X142999555Y-144927245D01*
X142999390Y-144889669D01*
X142999235Y-144856274D01*
X142998839Y-144825781D01*
X142998244Y-144799839D01*
X142997493Y-144780100D01*
X142996626Y-144768212D01*
X142996321Y-144766399D01*
X143035567Y-144766399D01*
X143036024Y-144780966D01*
X143037047Y-144796510D01*
X143037950Y-144812145D01*
X143039097Y-144836286D01*
X143040421Y-144867279D01*
X143041854Y-144903475D01*
X143043330Y-144943222D01*
X143044782Y-144984869D01*
X143045318Y-145000980D01*
X143046997Y-145051901D01*
X143048451Y-145093629D01*
X143049800Y-145127126D01*
X143051167Y-145153355D01*
X143052671Y-145173275D01*
X143054435Y-145187849D01*
X143056580Y-145198038D01*
X143059226Y-145204804D01*
X143062495Y-145209109D01*
X143066507Y-145211913D01*
X143071385Y-145214180D01*
X143072221Y-145214542D01*
X143086134Y-145220102D01*
X143093208Y-145220789D01*
X143095719Y-145216218D01*
X143095981Y-145210530D01*
X143095536Y-145202709D01*
X143094280Y-145186100D01*
X143092331Y-145162036D01*
X143089805Y-145131844D01*
X143086821Y-145096857D01*
X143083495Y-145058403D01*
X143079945Y-145017815D01*
X143076289Y-144976421D01*
X143072644Y-144935552D01*
X143069127Y-144896539D01*
X143065857Y-144860712D01*
X143062949Y-144829401D01*
X143060523Y-144803936D01*
X143058695Y-144785648D01*
X143057628Y-144776190D01*
X143054754Y-144762152D01*
X143051135Y-144757140D01*
X143092945Y-144757140D01*
X143124215Y-144990820D01*
X143130632Y-145038666D01*
X143136691Y-145083631D01*
X143142249Y-145124668D01*
X143147163Y-145160732D01*
X143151290Y-145190779D01*
X143154488Y-145213762D01*
X143156613Y-145228638D01*
X143157482Y-145234189D01*
X143161735Y-145240205D01*
X143172867Y-145247230D01*
X143191973Y-145255860D01*
X143210280Y-145263027D01*
X143231129Y-145270876D01*
X143248082Y-145277241D01*
X143259126Y-145281367D01*
X143262350Y-145282547D01*
X143262711Y-145277813D01*
X143263033Y-145264333D01*
X143263299Y-145243522D01*
X143263494Y-145216792D01*
X143263600Y-145186132D01*
X143304260Y-145186132D01*
X143304260Y-145302705D01*
X143343630Y-145315155D01*
X143362409Y-145321011D01*
X143377392Y-145325528D01*
X143385996Y-145327933D01*
X143386907Y-145328122D01*
X143387979Y-145323439D01*
X143388816Y-145310033D01*
X143389388Y-145289340D01*
X143389659Y-145262797D01*
X143389657Y-145261520D01*
X143497300Y-145261520D01*
X143518447Y-145256768D01*
X143532768Y-145253116D01*
X143542903Y-145249753D01*
X143544593Y-145248927D01*
X143545499Y-145243479D01*
X143546107Y-145229596D01*
X143546439Y-145208997D01*
X143546521Y-145183403D01*
X143546376Y-145154532D01*
X143546026Y-145124104D01*
X143545497Y-145093839D01*
X143544812Y-145065456D01*
X143543994Y-145040676D01*
X143543067Y-145021217D01*
X143542055Y-145008800D01*
X143541235Y-145005121D01*
X143536006Y-145003699D01*
X143524224Y-145001478D01*
X143518699Y-145000563D01*
X143497300Y-144997141D01*
X143497300Y-145261520D01*
X143389657Y-145261520D01*
X143389600Y-145231839D01*
X143389447Y-145216106D01*
X143388080Y-145103572D01*
X143348219Y-145086566D01*
X143329931Y-145078859D01*
X143315540Y-145072974D01*
X143307330Y-145069838D01*
X143306309Y-145069560D01*
X143305725Y-145074403D01*
X143305207Y-145087986D01*
X143304777Y-145108890D01*
X143304463Y-145135695D01*
X143304287Y-145166980D01*
X143304260Y-145186132D01*
X143263600Y-145186132D01*
X143263602Y-145185559D01*
X143263620Y-145166405D01*
X143263620Y-145049890D01*
X143225520Y-145028472D01*
X143195389Y-144896696D01*
X143187235Y-144861371D01*
X143179668Y-144829215D01*
X143173017Y-144801589D01*
X143167615Y-144779849D01*
X143163793Y-144765354D01*
X143161914Y-144759509D01*
X143155119Y-144756711D01*
X143140586Y-144755426D01*
X143125758Y-144755619D01*
X143092945Y-144757140D01*
X143051135Y-144757140D01*
X143050169Y-144755803D01*
X143044412Y-144754600D01*
X143039406Y-144755237D01*
X143036576Y-144758496D01*
X143035567Y-144766399D01*
X142996321Y-144766399D01*
X142996258Y-144766030D01*
X142993851Y-144760141D01*
X142989011Y-144756715D01*
X142979404Y-144755092D01*
X142962700Y-144754617D01*
X142955687Y-144754600D01*
X142918180Y-144754600D01*
X141414500Y-144754600D01*
X141414500Y-144754145D01*
X143203846Y-144754145D01*
X143220490Y-144824222D01*
X143227812Y-144855198D01*
X143235506Y-144887980D01*
X143242664Y-144918696D01*
X143248381Y-144943472D01*
X143248463Y-144943830D01*
X143253652Y-144964661D01*
X143258572Y-144981172D01*
X143262548Y-144991253D01*
X143264339Y-144993360D01*
X143265626Y-144988491D01*
X143266638Y-144974730D01*
X143267340Y-144953337D01*
X143267699Y-144925578D01*
X143267679Y-144892715D01*
X143267523Y-144875250D01*
X143266160Y-144757140D01*
X143235003Y-144755642D01*
X143213316Y-144754600D01*
X143314420Y-144754600D01*
X143314420Y-145027618D01*
X143341090Y-145035479D01*
X143358384Y-145040043D01*
X143373309Y-145043077D01*
X143379190Y-145043750D01*
X143390620Y-145044160D01*
X143390620Y-144994787D01*
X143592718Y-144994787D01*
X143595732Y-145041063D01*
X143597203Y-145065069D01*
X143598913Y-145095188D01*
X143600639Y-145127382D01*
X143602015Y-145154650D01*
X143603962Y-145185981D01*
X143606284Y-145207692D01*
X143608952Y-145219584D01*
X143610969Y-145221960D01*
X143618010Y-145220434D01*
X143632234Y-145216336D01*
X143651210Y-145210388D01*
X143662852Y-145206569D01*
X143709051Y-145191178D01*
X143712383Y-145080839D01*
X143713477Y-145038603D01*
X143714421Y-144990693D01*
X143715153Y-144941284D01*
X143715607Y-144894550D01*
X143715727Y-144862257D01*
X143715739Y-144754600D01*
X143766540Y-144754600D01*
X143766540Y-144837597D01*
X143766695Y-144868226D01*
X143767128Y-144906043D01*
X143767792Y-144948078D01*
X143768637Y-144991364D01*
X143769615Y-145032933D01*
X143769883Y-145043004D01*
X143773226Y-145165415D01*
X143832580Y-145135453D01*
X143832580Y-144754600D01*
X143766540Y-144754600D01*
X143715739Y-144754600D01*
X143715740Y-144754015D01*
X143694150Y-144755577D01*
X143672560Y-144757140D01*
X143664300Y-144831710D01*
X143661018Y-144861418D01*
X143657811Y-144890580D01*
X143655002Y-144916252D01*
X143652914Y-144935487D01*
X143652551Y-144938857D01*
X143649063Y-144971434D01*
X143620891Y-144983111D01*
X143592718Y-144994787D01*
X143390620Y-144994787D01*
X143390620Y-144851769D01*
X143497300Y-144851769D01*
X143497300Y-144948938D01*
X143518699Y-144945516D01*
X143532001Y-144943200D01*
X143540031Y-144941441D01*
X143540988Y-144941057D01*
X143540475Y-144935969D01*
X143538511Y-144922446D01*
X143535342Y-144902069D01*
X143531215Y-144876421D01*
X143526413Y-144847310D01*
X143520190Y-144811496D01*
X143514994Y-144785047D01*
X143510651Y-144767236D01*
X143506987Y-144757339D01*
X143505452Y-144755870D01*
X143563366Y-144755870D01*
X143564019Y-144761057D01*
X143565819Y-144774726D01*
X143568554Y-144795286D01*
X143572014Y-144821151D01*
X143575987Y-144850732D01*
X143576040Y-144851120D01*
X143580018Y-144880737D01*
X143583485Y-144906658D01*
X143586231Y-144927295D01*
X143588044Y-144941060D01*
X143588713Y-144946363D01*
X143588713Y-144946370D01*
X143593073Y-144947349D01*
X143600619Y-144947640D01*
X143604998Y-144947293D01*
X143608332Y-144945307D01*
X143610964Y-144940259D01*
X143613239Y-144930728D01*
X143615500Y-144915291D01*
X143618091Y-144892526D01*
X143621200Y-144862550D01*
X143624247Y-144833431D01*
X143627124Y-144807187D01*
X143629605Y-144785776D01*
X143631467Y-144771155D01*
X143632277Y-144766030D01*
X143632940Y-144760068D01*
X143630457Y-144756649D01*
X143622774Y-144755068D01*
X143607839Y-144754620D01*
X143598996Y-144754600D01*
X143581445Y-144754765D01*
X143568724Y-144755201D01*
X143563396Y-144755816D01*
X143563366Y-144755870D01*
X143505452Y-144755870D01*
X143504124Y-144754600D01*
X143501679Y-144756454D01*
X143499865Y-144762792D01*
X143498602Y-144774774D01*
X143497808Y-144793559D01*
X143497402Y-144820308D01*
X143497300Y-144851769D01*
X143390620Y-144851769D01*
X143390620Y-144754600D01*
X143314420Y-144754600D01*
X143213316Y-144754600D01*
X143203846Y-144754145D01*
X141414500Y-144754145D01*
X141414500Y-144678400D01*
X145478500Y-144678400D01*
X145478500Y-146913600D01*
D10*
X118620000Y-154940000D02*
X118620000Y-149100000D01*
X119380000Y-155700000D02*
X118620000Y-154940000D01*
X125220000Y-154940000D02*
X124460000Y-155700000D01*
X125220000Y-149100000D02*
X125220000Y-154940000D01*
X119380000Y-155700000D02*
X120800000Y-155700000D01*
X124460000Y-155700000D02*
X123040000Y-155700000D01*
X125220000Y-149100000D02*
X123040000Y-149100000D01*
X118620000Y-149100000D02*
X120800000Y-149100000D01*
X128108000Y-154844000D02*
X128108000Y-155544000D01*
X126908000Y-155544000D02*
X126908000Y-154844000D01*
X140210000Y-149100000D02*
X142390000Y-149100000D01*
X146810000Y-149100000D02*
X144630000Y-149100000D01*
X146050000Y-155700000D02*
X144630000Y-155700000D01*
X140970000Y-155700000D02*
X142390000Y-155700000D01*
X146810000Y-149100000D02*
X146810000Y-154940000D01*
X146810000Y-154940000D02*
X146050000Y-155700000D01*
X140970000Y-155700000D02*
X140210000Y-154940000D01*
X140210000Y-154940000D02*
X140210000Y-149100000D01*
X139538000Y-154844000D02*
X139538000Y-155544000D01*
X138338000Y-155544000D02*
X138338000Y-154844000D01*
X148886000Y-153394000D02*
X148886000Y-155994000D01*
X147786000Y-153394000D02*
X147786000Y-155994000D01*
X148886000Y-153394000D02*
X147786000Y-153394000D01*
X117408000Y-156778000D02*
X116078000Y-156778000D01*
X117408000Y-155448000D02*
X117408000Y-156778000D01*
X117408000Y-154178000D02*
X114748000Y-154178000D01*
X114748000Y-154178000D02*
X114748000Y-151578000D01*
X117408000Y-154178000D02*
X117408000Y-151578000D01*
X117408000Y-151578000D02*
X114748000Y-151578000D01*
X129250000Y-150006000D02*
X135260000Y-150006000D01*
X131500000Y-156826000D02*
X135260000Y-156826000D01*
X135260000Y-150006000D02*
X135260000Y-151266000D01*
X135260000Y-156826000D02*
X135260000Y-155566000D01*
X118594000Y-135612000D02*
X118594000Y-145772000D01*
X118594000Y-145772000D02*
X123674000Y-145772000D01*
X123674000Y-145772000D02*
X123674000Y-135612000D01*
X123674000Y-135612000D02*
X118594000Y-135612000D01*
X118594000Y-135612000D02*
X118594000Y-138152000D01*
X118594000Y-138152000D02*
X121134000Y-138152000D01*
X121134000Y-138152000D02*
X121134000Y-135612000D01*
D13*
X143105238Y-136624190D02*
X143105238Y-136124190D01*
X143271904Y-136481333D01*
X143438571Y-136124190D01*
X143438571Y-136624190D01*
X143938571Y-136624190D02*
X143652857Y-136624190D01*
X143795714Y-136624190D02*
X143795714Y-136124190D01*
X143748095Y-136195619D01*
X143700476Y-136243238D01*
X143652857Y-136267047D01*
D14*
X126837142Y-152566666D02*
X126884761Y-152614285D01*
X126932380Y-152757142D01*
X126932380Y-152852380D01*
X126884761Y-152995238D01*
X126789523Y-153090476D01*
X126694285Y-153138095D01*
X126503809Y-153185714D01*
X126360952Y-153185714D01*
X126170476Y-153138095D01*
X126075238Y-153090476D01*
X125980000Y-152995238D01*
X125932380Y-152852380D01*
X125932380Y-152757142D01*
X125980000Y-152614285D01*
X126027619Y-152566666D01*
X126932380Y-151614285D02*
X126932380Y-152185714D01*
X126932380Y-151900000D02*
X125932380Y-151900000D01*
X126075238Y-151995238D01*
X126170476Y-152090476D01*
X126218095Y-152185714D01*
X125001428Y-157060952D02*
X125001428Y-156299047D01*
X125382380Y-156680000D02*
X124620476Y-156680000D01*
X126615142Y-155360666D02*
X126662761Y-155408285D01*
X126710380Y-155551142D01*
X126710380Y-155646380D01*
X126662761Y-155789238D01*
X126567523Y-155884476D01*
X126472285Y-155932095D01*
X126281809Y-155979714D01*
X126138952Y-155979714D01*
X125948476Y-155932095D01*
X125853238Y-155884476D01*
X125758000Y-155789238D01*
X125710380Y-155646380D01*
X125710380Y-155551142D01*
X125758000Y-155408285D01*
X125805619Y-155360666D01*
X125805619Y-154979714D02*
X125758000Y-154932095D01*
X125710380Y-154836857D01*
X125710380Y-154598761D01*
X125758000Y-154503523D01*
X125805619Y-154455904D01*
X125900857Y-154408285D01*
X125996095Y-154408285D01*
X126138952Y-154455904D01*
X126710380Y-155027333D01*
X126710380Y-154408285D01*
X148185142Y-150026666D02*
X148232761Y-150074285D01*
X148280380Y-150217142D01*
X148280380Y-150312380D01*
X148232761Y-150455238D01*
X148137523Y-150550476D01*
X148042285Y-150598095D01*
X147851809Y-150645714D01*
X147708952Y-150645714D01*
X147518476Y-150598095D01*
X147423238Y-150550476D01*
X147328000Y-150455238D01*
X147280380Y-150312380D01*
X147280380Y-150217142D01*
X147328000Y-150074285D01*
X147375619Y-150026666D01*
X147280380Y-149693333D02*
X147280380Y-149074285D01*
X147661333Y-149407619D01*
X147661333Y-149264761D01*
X147708952Y-149169523D01*
X147756571Y-149121904D01*
X147851809Y-149074285D01*
X148089904Y-149074285D01*
X148185142Y-149121904D01*
X148232761Y-149169523D01*
X148280380Y-149264761D01*
X148280380Y-149550476D01*
X148232761Y-149645714D01*
X148185142Y-149693333D01*
X146591428Y-157060952D02*
X146591428Y-156299047D01*
X146972380Y-156680000D02*
X146210476Y-156680000D01*
X139295142Y-152058666D02*
X139342761Y-152106285D01*
X139390380Y-152249142D01*
X139390380Y-152344380D01*
X139342761Y-152487238D01*
X139247523Y-152582476D01*
X139152285Y-152630095D01*
X138961809Y-152677714D01*
X138818952Y-152677714D01*
X138628476Y-152630095D01*
X138533238Y-152582476D01*
X138438000Y-152487238D01*
X138390380Y-152344380D01*
X138390380Y-152249142D01*
X138438000Y-152106285D01*
X138485619Y-152058666D01*
X138723714Y-151201523D02*
X139390380Y-151201523D01*
X138342761Y-151439619D02*
X139057047Y-151677714D01*
X139057047Y-151058666D01*
X148788380Y-152630095D02*
X147788380Y-152630095D01*
X147788380Y-152392000D01*
X147836000Y-152249142D01*
X147931238Y-152153904D01*
X148026476Y-152106285D01*
X148216952Y-152058666D01*
X148359809Y-152058666D01*
X148550285Y-152106285D01*
X148645523Y-152153904D01*
X148740761Y-152249142D01*
X148788380Y-152392000D01*
X148788380Y-152630095D01*
X148788380Y-151106285D02*
X148788380Y-151677714D01*
X148788380Y-151392000D02*
X147788380Y-151392000D01*
X147931238Y-151487238D01*
X148026476Y-151582476D01*
X148074095Y-151677714D01*
X115744666Y-149566380D02*
X115744666Y-150280666D01*
X115697047Y-150423523D01*
X115601809Y-150518761D01*
X115458952Y-150566380D01*
X115363714Y-150566380D01*
X116744666Y-150566380D02*
X116173238Y-150566380D01*
X116458952Y-150566380D02*
X116458952Y-149566380D01*
X116363714Y-149709238D01*
X116268476Y-149804476D01*
X116173238Y-149852095D01*
X132588095Y-148368380D02*
X132588095Y-149177904D01*
X132635714Y-149273142D01*
X132683333Y-149320761D01*
X132778571Y-149368380D01*
X132969047Y-149368380D01*
X133064285Y-149320761D01*
X133111904Y-149273142D01*
X133159523Y-149177904D01*
X133159523Y-148368380D01*
X134159523Y-149368380D02*
X133588095Y-149368380D01*
X133873809Y-149368380D02*
X133873809Y-148368380D01*
X133778571Y-148511238D01*
X133683333Y-148606476D01*
X133588095Y-148654095D01*
X116776380Y-143993904D02*
X117585904Y-143993904D01*
X117681142Y-143946285D01*
X117728761Y-143898666D01*
X117776380Y-143803428D01*
X117776380Y-143612952D01*
X117728761Y-143517714D01*
X117681142Y-143470095D01*
X117585904Y-143422476D01*
X116776380Y-143422476D01*
X116871619Y-142993904D02*
X116824000Y-142946285D01*
X116776380Y-142851047D01*
X116776380Y-142612952D01*
X116824000Y-142517714D01*
X116871619Y-142470095D01*
X116966857Y-142422476D01*
X117062095Y-142422476D01*
X117204952Y-142470095D01*
X117776380Y-143041523D01*
X117776380Y-142422476D01*
M02*
