G04 #@! TF.GenerationSoftware,KiCad,Pcbnew,(5.1.2)-2*
G04 #@! TF.CreationDate,2022-10-24T21:46:32-05:00*
G04 #@! TF.ProjectId,nrf24l01_breakout,6e726632-346c-4303-915f-627265616b6f,v1.0*
G04 #@! TF.SameCoordinates,Original*
G04 #@! TF.FileFunction,Soldermask,Top*
G04 #@! TF.FilePolarity,Negative*
%FSLAX46Y46*%
G04 Gerber Fmt 4.6, Leading zero omitted, Abs format (unit mm)*
G04 Created by KiCad (PCBNEW (5.1.2)-2) date 2022-10-24 21:46:32*
%MOMM*%
%LPD*%
G04 APERTURE LIST*
%ADD10C,0.100000*%
G04 APERTURE END LIST*
D10*
G36*
X148837000Y-156945000D02*
G01*
X147835000Y-156945000D01*
X147835000Y-155643000D01*
X148837000Y-155643000D01*
X148837000Y-156945000D01*
X148837000Y-156945000D01*
G37*
G36*
X144361000Y-156901000D02*
G01*
X142659000Y-156901000D01*
X142659000Y-153299000D01*
X144361000Y-153299000D01*
X144361000Y-156901000D01*
X144361000Y-156901000D01*
G37*
G36*
X122771000Y-156901000D02*
G01*
X121069000Y-156901000D01*
X121069000Y-153299000D01*
X122771000Y-153299000D01*
X122771000Y-156901000D01*
X122771000Y-156901000D01*
G37*
G36*
X139364000Y-156795000D02*
G01*
X138512000Y-156795000D01*
X138512000Y-155493000D01*
X139364000Y-155493000D01*
X139364000Y-156795000D01*
X139364000Y-156795000D01*
G37*
G36*
X127934000Y-156795000D02*
G01*
X127082000Y-156795000D01*
X127082000Y-155493000D01*
X127934000Y-155493000D01*
X127934000Y-156795000D01*
X127934000Y-156795000D01*
G37*
G36*
X131251000Y-156517000D02*
G01*
X129149000Y-156517000D01*
X129149000Y-154915000D01*
X131251000Y-154915000D01*
X131251000Y-156517000D01*
X131251000Y-156517000D01*
G37*
G36*
X116979000Y-156349000D02*
G01*
X115177000Y-156349000D01*
X115177000Y-154547000D01*
X116979000Y-154547000D01*
X116979000Y-156349000D01*
X116979000Y-156349000D01*
G37*
G36*
X137551000Y-155367000D02*
G01*
X135449000Y-155367000D01*
X135449000Y-151465000D01*
X137551000Y-151465000D01*
X137551000Y-155367000D01*
X137551000Y-155367000D01*
G37*
G36*
X127934000Y-154895000D02*
G01*
X127082000Y-154895000D01*
X127082000Y-153593000D01*
X127934000Y-153593000D01*
X127934000Y-154895000D01*
X127934000Y-154895000D01*
G37*
G36*
X139364000Y-154895000D02*
G01*
X138512000Y-154895000D01*
X138512000Y-153593000D01*
X139364000Y-153593000D01*
X139364000Y-154895000D01*
X139364000Y-154895000D01*
G37*
G36*
X148837000Y-154745000D02*
G01*
X147835000Y-154745000D01*
X147835000Y-153443000D01*
X148837000Y-153443000D01*
X148837000Y-154745000D01*
X148837000Y-154745000D01*
G37*
G36*
X131251000Y-154217000D02*
G01*
X129149000Y-154217000D01*
X129149000Y-152615000D01*
X131251000Y-152615000D01*
X131251000Y-154217000D01*
X131251000Y-154217000D01*
G37*
G36*
X116188443Y-152013519D02*
G01*
X116254627Y-152020037D01*
X116424466Y-152071557D01*
X116580991Y-152155222D01*
X116616729Y-152184552D01*
X116718186Y-152267814D01*
X116801448Y-152369271D01*
X116830778Y-152405009D01*
X116914443Y-152561534D01*
X116965963Y-152731373D01*
X116983359Y-152908000D01*
X116965963Y-153084627D01*
X116914443Y-153254466D01*
X116830778Y-153410991D01*
X116804509Y-153443000D01*
X116718186Y-153548186D01*
X116616729Y-153631448D01*
X116580991Y-153660778D01*
X116424466Y-153744443D01*
X116254627Y-153795963D01*
X116188442Y-153802482D01*
X116122260Y-153809000D01*
X116033740Y-153809000D01*
X115967558Y-153802482D01*
X115901373Y-153795963D01*
X115731534Y-153744443D01*
X115575009Y-153660778D01*
X115539271Y-153631448D01*
X115437814Y-153548186D01*
X115351491Y-153443000D01*
X115325222Y-153410991D01*
X115241557Y-153254466D01*
X115190037Y-153084627D01*
X115172641Y-152908000D01*
X115190037Y-152731373D01*
X115241557Y-152561534D01*
X115325222Y-152405009D01*
X115354552Y-152369271D01*
X115437814Y-152267814D01*
X115539271Y-152184552D01*
X115575009Y-152155222D01*
X115731534Y-152071557D01*
X115901373Y-152020037D01*
X115967557Y-152013519D01*
X116033740Y-152007000D01*
X116122260Y-152007000D01*
X116188443Y-152013519D01*
X116188443Y-152013519D01*
G37*
G36*
X131251000Y-151917000D02*
G01*
X129149000Y-151917000D01*
X129149000Y-150315000D01*
X131251000Y-150315000D01*
X131251000Y-151917000D01*
X131251000Y-151917000D01*
G37*
G36*
X122771000Y-151501000D02*
G01*
X121069000Y-151501000D01*
X121069000Y-147899000D01*
X122771000Y-147899000D01*
X122771000Y-151501000D01*
X122771000Y-151501000D01*
G37*
G36*
X144361000Y-151501000D02*
G01*
X142659000Y-151501000D01*
X142659000Y-147899000D01*
X144361000Y-147899000D01*
X144361000Y-151501000D01*
X144361000Y-151501000D01*
G37*
G36*
X134730443Y-145155519D02*
G01*
X134796627Y-145162037D01*
X134966466Y-145213557D01*
X135122991Y-145297222D01*
X135144653Y-145315000D01*
X135260186Y-145409814D01*
X135343448Y-145511271D01*
X135372778Y-145547009D01*
X135456443Y-145703534D01*
X135507963Y-145873373D01*
X135525359Y-146050000D01*
X135507963Y-146226627D01*
X135456443Y-146396466D01*
X135372778Y-146552991D01*
X135343448Y-146588729D01*
X135260186Y-146690186D01*
X135158729Y-146773448D01*
X135122991Y-146802778D01*
X134966466Y-146886443D01*
X134796627Y-146937963D01*
X134730442Y-146944482D01*
X134664260Y-146951000D01*
X134575740Y-146951000D01*
X134509558Y-146944482D01*
X134443373Y-146937963D01*
X134273534Y-146886443D01*
X134117009Y-146802778D01*
X134081271Y-146773448D01*
X133979814Y-146690186D01*
X133896552Y-146588729D01*
X133867222Y-146552991D01*
X133783557Y-146396466D01*
X133732037Y-146226627D01*
X133714641Y-146050000D01*
X133732037Y-145873373D01*
X133783557Y-145703534D01*
X133867222Y-145547009D01*
X133896552Y-145511271D01*
X133979814Y-145409814D01*
X134095347Y-145315000D01*
X134117009Y-145297222D01*
X134273534Y-145213557D01*
X134443373Y-145162037D01*
X134509557Y-145155519D01*
X134575740Y-145149000D01*
X134664260Y-145149000D01*
X134730443Y-145155519D01*
X134730443Y-145155519D01*
G37*
G36*
X137270443Y-145155519D02*
G01*
X137336627Y-145162037D01*
X137506466Y-145213557D01*
X137662991Y-145297222D01*
X137684653Y-145315000D01*
X137800186Y-145409814D01*
X137883448Y-145511271D01*
X137912778Y-145547009D01*
X137996443Y-145703534D01*
X138047963Y-145873373D01*
X138065359Y-146050000D01*
X138047963Y-146226627D01*
X137996443Y-146396466D01*
X137912778Y-146552991D01*
X137883448Y-146588729D01*
X137800186Y-146690186D01*
X137698729Y-146773448D01*
X137662991Y-146802778D01*
X137506466Y-146886443D01*
X137336627Y-146937963D01*
X137270442Y-146944482D01*
X137204260Y-146951000D01*
X137115740Y-146951000D01*
X137049558Y-146944482D01*
X136983373Y-146937963D01*
X136813534Y-146886443D01*
X136657009Y-146802778D01*
X136621271Y-146773448D01*
X136519814Y-146690186D01*
X136436552Y-146588729D01*
X136407222Y-146552991D01*
X136323557Y-146396466D01*
X136272037Y-146226627D01*
X136254641Y-146050000D01*
X136272037Y-145873373D01*
X136323557Y-145703534D01*
X136407222Y-145547009D01*
X136436552Y-145511271D01*
X136519814Y-145409814D01*
X136635347Y-145315000D01*
X136657009Y-145297222D01*
X136813534Y-145213557D01*
X136983373Y-145162037D01*
X137049557Y-145155519D01*
X137115740Y-145149000D01*
X137204260Y-145149000D01*
X137270443Y-145155519D01*
X137270443Y-145155519D01*
G37*
G36*
X130441000Y-146951000D02*
G01*
X128639000Y-146951000D01*
X128639000Y-145149000D01*
X130441000Y-145149000D01*
X130441000Y-146951000D01*
X130441000Y-146951000D01*
G37*
G36*
X132190443Y-145155519D02*
G01*
X132256627Y-145162037D01*
X132426466Y-145213557D01*
X132582991Y-145297222D01*
X132604653Y-145315000D01*
X132720186Y-145409814D01*
X132803448Y-145511271D01*
X132832778Y-145547009D01*
X132916443Y-145703534D01*
X132967963Y-145873373D01*
X132985359Y-146050000D01*
X132967963Y-146226627D01*
X132916443Y-146396466D01*
X132832778Y-146552991D01*
X132803448Y-146588729D01*
X132720186Y-146690186D01*
X132618729Y-146773448D01*
X132582991Y-146802778D01*
X132426466Y-146886443D01*
X132256627Y-146937963D01*
X132190442Y-146944482D01*
X132124260Y-146951000D01*
X132035740Y-146951000D01*
X131969558Y-146944482D01*
X131903373Y-146937963D01*
X131733534Y-146886443D01*
X131577009Y-146802778D01*
X131541271Y-146773448D01*
X131439814Y-146690186D01*
X131356552Y-146588729D01*
X131327222Y-146552991D01*
X131243557Y-146396466D01*
X131192037Y-146226627D01*
X131174641Y-146050000D01*
X131192037Y-145873373D01*
X131243557Y-145703534D01*
X131327222Y-145547009D01*
X131356552Y-145511271D01*
X131439814Y-145409814D01*
X131555347Y-145315000D01*
X131577009Y-145297222D01*
X131733534Y-145213557D01*
X131903373Y-145162037D01*
X131969557Y-145155519D01*
X132035740Y-145149000D01*
X132124260Y-145149000D01*
X132190443Y-145155519D01*
X132190443Y-145155519D01*
G37*
G36*
X120101142Y-143720242D02*
G01*
X120249101Y-143781529D01*
X120382255Y-143870499D01*
X120495501Y-143983745D01*
X120584471Y-144116899D01*
X120645758Y-144264858D01*
X120677000Y-144421925D01*
X120677000Y-144582075D01*
X120645758Y-144739142D01*
X120584471Y-144887101D01*
X120495501Y-145020255D01*
X120382255Y-145133501D01*
X120249101Y-145222471D01*
X120101142Y-145283758D01*
X119944075Y-145315000D01*
X119783925Y-145315000D01*
X119626858Y-145283758D01*
X119478899Y-145222471D01*
X119345745Y-145133501D01*
X119232499Y-145020255D01*
X119143529Y-144887101D01*
X119082242Y-144739142D01*
X119051000Y-144582075D01*
X119051000Y-144421925D01*
X119082242Y-144264858D01*
X119143529Y-144116899D01*
X119232499Y-143983745D01*
X119345745Y-143870499D01*
X119478899Y-143781529D01*
X119626858Y-143720242D01*
X119783925Y-143689000D01*
X119944075Y-143689000D01*
X120101142Y-143720242D01*
X120101142Y-143720242D01*
G37*
G36*
X122641142Y-143720242D02*
G01*
X122789101Y-143781529D01*
X122922255Y-143870499D01*
X123035501Y-143983745D01*
X123124471Y-144116899D01*
X123185758Y-144264858D01*
X123217000Y-144421925D01*
X123217000Y-144582075D01*
X123185758Y-144739142D01*
X123124471Y-144887101D01*
X123035501Y-145020255D01*
X122922255Y-145133501D01*
X122789101Y-145222471D01*
X122641142Y-145283758D01*
X122484075Y-145315000D01*
X122323925Y-145315000D01*
X122166858Y-145283758D01*
X122018899Y-145222471D01*
X121885745Y-145133501D01*
X121772499Y-145020255D01*
X121683529Y-144887101D01*
X121622242Y-144739142D01*
X121591000Y-144582075D01*
X121591000Y-144421925D01*
X121622242Y-144264858D01*
X121683529Y-144116899D01*
X121772499Y-143983745D01*
X121885745Y-143870499D01*
X122018899Y-143781529D01*
X122166858Y-143720242D01*
X122323925Y-143689000D01*
X122484075Y-143689000D01*
X122641142Y-143720242D01*
X122641142Y-143720242D01*
G37*
G36*
X122641142Y-141180242D02*
G01*
X122789101Y-141241529D01*
X122922255Y-141330499D01*
X123035501Y-141443745D01*
X123124471Y-141576899D01*
X123185758Y-141724858D01*
X123217000Y-141881925D01*
X123217000Y-142042075D01*
X123185758Y-142199142D01*
X123124471Y-142347101D01*
X123035501Y-142480255D01*
X122922255Y-142593501D01*
X122789101Y-142682471D01*
X122641142Y-142743758D01*
X122484075Y-142775000D01*
X122323925Y-142775000D01*
X122166858Y-142743758D01*
X122018899Y-142682471D01*
X121885745Y-142593501D01*
X121772499Y-142480255D01*
X121683529Y-142347101D01*
X121622242Y-142199142D01*
X121591000Y-142042075D01*
X121591000Y-141881925D01*
X121622242Y-141724858D01*
X121683529Y-141576899D01*
X121772499Y-141443745D01*
X121885745Y-141330499D01*
X122018899Y-141241529D01*
X122166858Y-141180242D01*
X122323925Y-141149000D01*
X122484075Y-141149000D01*
X122641142Y-141180242D01*
X122641142Y-141180242D01*
G37*
G36*
X120101142Y-141180242D02*
G01*
X120249101Y-141241529D01*
X120382255Y-141330499D01*
X120495501Y-141443745D01*
X120584471Y-141576899D01*
X120645758Y-141724858D01*
X120677000Y-141881925D01*
X120677000Y-142042075D01*
X120645758Y-142199142D01*
X120584471Y-142347101D01*
X120495501Y-142480255D01*
X120382255Y-142593501D01*
X120249101Y-142682471D01*
X120101142Y-142743758D01*
X119944075Y-142775000D01*
X119783925Y-142775000D01*
X119626858Y-142743758D01*
X119478899Y-142682471D01*
X119345745Y-142593501D01*
X119232499Y-142480255D01*
X119143529Y-142347101D01*
X119082242Y-142199142D01*
X119051000Y-142042075D01*
X119051000Y-141881925D01*
X119082242Y-141724858D01*
X119143529Y-141576899D01*
X119232499Y-141443745D01*
X119345745Y-141330499D01*
X119478899Y-141241529D01*
X119626858Y-141180242D01*
X119783925Y-141149000D01*
X119944075Y-141149000D01*
X120101142Y-141180242D01*
X120101142Y-141180242D01*
G37*
G36*
X120101142Y-138640242D02*
G01*
X120249101Y-138701529D01*
X120382255Y-138790499D01*
X120495501Y-138903745D01*
X120584471Y-139036899D01*
X120645758Y-139184858D01*
X120677000Y-139341925D01*
X120677000Y-139502075D01*
X120645758Y-139659142D01*
X120584471Y-139807101D01*
X120495501Y-139940255D01*
X120382255Y-140053501D01*
X120249101Y-140142471D01*
X120101142Y-140203758D01*
X119944075Y-140235000D01*
X119783925Y-140235000D01*
X119626858Y-140203758D01*
X119478899Y-140142471D01*
X119345745Y-140053501D01*
X119232499Y-139940255D01*
X119143529Y-139807101D01*
X119082242Y-139659142D01*
X119051000Y-139502075D01*
X119051000Y-139341925D01*
X119082242Y-139184858D01*
X119143529Y-139036899D01*
X119232499Y-138903745D01*
X119345745Y-138790499D01*
X119478899Y-138701529D01*
X119626858Y-138640242D01*
X119783925Y-138609000D01*
X119944075Y-138609000D01*
X120101142Y-138640242D01*
X120101142Y-138640242D01*
G37*
G36*
X122641142Y-138640242D02*
G01*
X122789101Y-138701529D01*
X122922255Y-138790499D01*
X123035501Y-138903745D01*
X123124471Y-139036899D01*
X123185758Y-139184858D01*
X123217000Y-139341925D01*
X123217000Y-139502075D01*
X123185758Y-139659142D01*
X123124471Y-139807101D01*
X123035501Y-139940255D01*
X122922255Y-140053501D01*
X122789101Y-140142471D01*
X122641142Y-140203758D01*
X122484075Y-140235000D01*
X122323925Y-140235000D01*
X122166858Y-140203758D01*
X122018899Y-140142471D01*
X121885745Y-140053501D01*
X121772499Y-139940255D01*
X121683529Y-139807101D01*
X121622242Y-139659142D01*
X121591000Y-139502075D01*
X121591000Y-139341925D01*
X121622242Y-139184858D01*
X121683529Y-139036899D01*
X121772499Y-138903745D01*
X121885745Y-138790499D01*
X122018899Y-138701529D01*
X122166858Y-138640242D01*
X122323925Y-138609000D01*
X122484075Y-138609000D01*
X122641142Y-138640242D01*
X122641142Y-138640242D01*
G37*
G36*
X146274549Y-137301116D02*
G01*
X146385734Y-137323232D01*
X146595203Y-137409997D01*
X146783720Y-137535960D01*
X146944040Y-137696280D01*
X147070003Y-137884797D01*
X147156768Y-138094266D01*
X147201000Y-138316636D01*
X147201000Y-138543364D01*
X147156768Y-138765734D01*
X147070003Y-138975203D01*
X146944040Y-139163720D01*
X146783720Y-139324040D01*
X146595203Y-139450003D01*
X146385734Y-139536768D01*
X146274549Y-139558884D01*
X146163365Y-139581000D01*
X145936635Y-139581000D01*
X145825451Y-139558884D01*
X145714266Y-139536768D01*
X145504797Y-139450003D01*
X145316280Y-139324040D01*
X145155960Y-139163720D01*
X145029997Y-138975203D01*
X144943232Y-138765734D01*
X144899000Y-138543364D01*
X144899000Y-138316636D01*
X144943232Y-138094266D01*
X145029997Y-137884797D01*
X145155960Y-137696280D01*
X145316280Y-137535960D01*
X145504797Y-137409997D01*
X145714266Y-137323232D01*
X145825451Y-137301116D01*
X145936635Y-137279000D01*
X146163365Y-137279000D01*
X146274549Y-137301116D01*
X146274549Y-137301116D01*
G37*
G36*
X137270443Y-136265519D02*
G01*
X137336627Y-136272037D01*
X137506466Y-136323557D01*
X137662991Y-136407222D01*
X137698729Y-136436552D01*
X137800186Y-136519814D01*
X137883448Y-136621271D01*
X137912778Y-136657009D01*
X137996443Y-136813534D01*
X138047963Y-136983373D01*
X138065359Y-137160000D01*
X138047963Y-137336627D01*
X137996443Y-137506466D01*
X137912778Y-137662991D01*
X137886509Y-137695000D01*
X137800186Y-137800186D01*
X137698729Y-137883448D01*
X137662991Y-137912778D01*
X137506466Y-137996443D01*
X137336627Y-138047963D01*
X137270442Y-138054482D01*
X137204260Y-138061000D01*
X137115740Y-138061000D01*
X137049558Y-138054482D01*
X136983373Y-138047963D01*
X136813534Y-137996443D01*
X136657009Y-137912778D01*
X136621271Y-137883448D01*
X136519814Y-137800186D01*
X136433491Y-137695000D01*
X136407222Y-137662991D01*
X136323557Y-137506466D01*
X136272037Y-137336627D01*
X136254641Y-137160000D01*
X136272037Y-136983373D01*
X136323557Y-136813534D01*
X136407222Y-136657009D01*
X136436552Y-136621271D01*
X136519814Y-136519814D01*
X136621271Y-136436552D01*
X136657009Y-136407222D01*
X136813534Y-136323557D01*
X136983373Y-136272037D01*
X137049557Y-136265519D01*
X137115740Y-136259000D01*
X137204260Y-136259000D01*
X137270443Y-136265519D01*
X137270443Y-136265519D01*
G37*
G36*
X134730443Y-136265519D02*
G01*
X134796627Y-136272037D01*
X134966466Y-136323557D01*
X135122991Y-136407222D01*
X135158729Y-136436552D01*
X135260186Y-136519814D01*
X135343448Y-136621271D01*
X135372778Y-136657009D01*
X135456443Y-136813534D01*
X135507963Y-136983373D01*
X135525359Y-137160000D01*
X135507963Y-137336627D01*
X135456443Y-137506466D01*
X135372778Y-137662991D01*
X135346509Y-137695000D01*
X135260186Y-137800186D01*
X135158729Y-137883448D01*
X135122991Y-137912778D01*
X134966466Y-137996443D01*
X134796627Y-138047963D01*
X134730442Y-138054482D01*
X134664260Y-138061000D01*
X134575740Y-138061000D01*
X134509558Y-138054482D01*
X134443373Y-138047963D01*
X134273534Y-137996443D01*
X134117009Y-137912778D01*
X134081271Y-137883448D01*
X133979814Y-137800186D01*
X133893491Y-137695000D01*
X133867222Y-137662991D01*
X133783557Y-137506466D01*
X133732037Y-137336627D01*
X133714641Y-137160000D01*
X133732037Y-136983373D01*
X133783557Y-136813534D01*
X133867222Y-136657009D01*
X133896552Y-136621271D01*
X133979814Y-136519814D01*
X134081271Y-136436552D01*
X134117009Y-136407222D01*
X134273534Y-136323557D01*
X134443373Y-136272037D01*
X134509557Y-136265519D01*
X134575740Y-136259000D01*
X134664260Y-136259000D01*
X134730443Y-136265519D01*
X134730443Y-136265519D01*
G37*
G36*
X132190443Y-136265519D02*
G01*
X132256627Y-136272037D01*
X132426466Y-136323557D01*
X132582991Y-136407222D01*
X132618729Y-136436552D01*
X132720186Y-136519814D01*
X132803448Y-136621271D01*
X132832778Y-136657009D01*
X132916443Y-136813534D01*
X132967963Y-136983373D01*
X132985359Y-137160000D01*
X132967963Y-137336627D01*
X132916443Y-137506466D01*
X132832778Y-137662991D01*
X132806509Y-137695000D01*
X132720186Y-137800186D01*
X132618729Y-137883448D01*
X132582991Y-137912778D01*
X132426466Y-137996443D01*
X132256627Y-138047963D01*
X132190442Y-138054482D01*
X132124260Y-138061000D01*
X132035740Y-138061000D01*
X131969558Y-138054482D01*
X131903373Y-138047963D01*
X131733534Y-137996443D01*
X131577009Y-137912778D01*
X131541271Y-137883448D01*
X131439814Y-137800186D01*
X131353491Y-137695000D01*
X131327222Y-137662991D01*
X131243557Y-137506466D01*
X131192037Y-137336627D01*
X131174641Y-137160000D01*
X131192037Y-136983373D01*
X131243557Y-136813534D01*
X131327222Y-136657009D01*
X131356552Y-136621271D01*
X131439814Y-136519814D01*
X131541271Y-136436552D01*
X131577009Y-136407222D01*
X131733534Y-136323557D01*
X131903373Y-136272037D01*
X131969557Y-136265519D01*
X132035740Y-136259000D01*
X132124260Y-136259000D01*
X132190443Y-136265519D01*
X132190443Y-136265519D01*
G37*
G36*
X130441000Y-138061000D02*
G01*
X128639000Y-138061000D01*
X128639000Y-136259000D01*
X130441000Y-136259000D01*
X130441000Y-138061000D01*
X130441000Y-138061000D01*
G37*
G36*
X120677000Y-137695000D02*
G01*
X119051000Y-137695000D01*
X119051000Y-136069000D01*
X120677000Y-136069000D01*
X120677000Y-137695000D01*
X120677000Y-137695000D01*
G37*
G36*
X122641142Y-136100242D02*
G01*
X122789101Y-136161529D01*
X122922255Y-136250499D01*
X123035501Y-136363745D01*
X123124471Y-136496899D01*
X123185758Y-136644858D01*
X123217000Y-136801925D01*
X123217000Y-136962075D01*
X123185758Y-137119142D01*
X123124471Y-137267101D01*
X123035501Y-137400255D01*
X122922255Y-137513501D01*
X122789101Y-137602471D01*
X122641142Y-137663758D01*
X122484075Y-137695000D01*
X122323925Y-137695000D01*
X122166858Y-137663758D01*
X122018899Y-137602471D01*
X121885745Y-137513501D01*
X121772499Y-137400255D01*
X121683529Y-137267101D01*
X121622242Y-137119142D01*
X121591000Y-136962075D01*
X121591000Y-136801925D01*
X121622242Y-136644858D01*
X121683529Y-136496899D01*
X121772499Y-136363745D01*
X121885745Y-136250499D01*
X122018899Y-136161529D01*
X122166858Y-136100242D01*
X122323925Y-136069000D01*
X122484075Y-136069000D01*
X122641142Y-136100242D01*
X122641142Y-136100242D01*
G37*
M02*
