M48
; DRILL file {KiCad (5.1.2)-2} date 24/10/2022 21:46:26
; FORMAT={-:-/ absolute / inch / decimal}
; #@! TF.CreationDate,2022-10-24T21:46:26-05:00
; #@! TF.GenerationSoftware,Kicad,Pcbnew,(5.1.2)-2
; #@! TF.FileFunction,Plated,1,2,PTH
FMAT,2
INCH
T1C0.0157
T2C0.0197
T3C0.0300
T4C0.0394
%
G90
G05
T1
X4.8743Y-5.7157
X4.89Y-5.61
T2
X4.97Y-6.06
X5.04Y-5.98
X5.24Y-6.0
X5.25Y-6.1
T3
X4.7191Y-5.3891
X4.7191Y-5.4891
X4.7191Y-5.5891
X4.7191Y-5.6891
X4.8191Y-5.3891
X4.8191Y-5.4891
X4.8191Y-5.5891
X4.8191Y-5.6891
T4
X4.57Y-6.02
X4.57Y-6.12
X5.1Y-5.75
X5.2Y-5.75
X5.3Y-5.75
X5.4Y-5.75
X5.1Y-5.4
X5.2Y-5.4
X5.3Y-5.4
X5.4Y-5.4
T0
M30
